<?xml version="1.0" standalone="no"?>
<!DOCTYPE svg PUBLIC "-//W3C//DTD SVG 1.1//EN" "http://www.w3.org/Graphics/SVG/1.1/DTD/svg11.dtd" >
<svg xmlns="http://www.w3.org/2000/svg" xmlns:xlink="http://www.w3.org/1999/xlink" version="1.1">
<metadata>
Created by FontForge 20170731 at Thu Feb 18 21:03:49 2016
 By Aleksey,,,
Created by Fabian De Smet
</metadata>
<defs>
<font id="Butler-Black" horiz-adv-x="613" >
  <font-face 
    font-family="Butler"
    font-weight="900"
    font-stretch="normal"
    units-per-em="1000"
    panose-1="2 7 8 3 8 7 6 2 3 3"
    ascent="735"
    descent="-265"
    x-height="462"
    cap-height="704"
    bbox="-146 -361 1244 981"
    underline-thickness="50"
    underline-position="-200"
    unicode-range="U+0020-FB02"
  />
<missing-glyph horiz-adv-x="507" 
d="M-1 704h508v-704h-508v704zM75 144l133 208l-133 209v-417zM253 423l132 204h-263zM385 76l-132 207l-131 -207h263zM298 352l134 -208v417z" />
    <glyph glyph-name="f_i" unicode="fi" horiz-adv-x="645" 
d="M608 8v-8h-250v8q26 7 32.5 32t6.5 73v260q0 21 -0.5 28.5t-3 23t-11 22t-21.5 6.5h-108v-340q0 -47 8 -72.5t33 -32.5v-8h-250v8q26 7 32.5 32t6.5 73v340h-65v9h65q0 80 22 138t61 88t83 43.5t96 13.5q60 0 121.5 -20t82.5 -58q25 -47 -5 -98q-20 -29 -54.5 -36
t-63.5 12q-30 20 -37 54t13 64q16 28 50 36q17 4 -6 16q-39 21 -102 21q-30 0 -49 -18t-28 -58.5t-11.5 -83.5t-2.5 -114h108q64 0 115.5 7.5t71.5 14.5l19 8v-379q0 -48 8 -73.5t33 -31.5z" />
    <glyph glyph-name="f_l" unicode="fl" horiz-adv-x="621" 
d="M606 8v-8h-250v8q26 7 32.5 32t6.5 73v519q0 30 -6.5 46t-28.5 26q-70 19 -93.5 -37.5t-23.5 -204.5h107v-9h-107v-340q0 -47 8 -72.5t33 -32.5v-8h-250v8q26 7 32.5 32t6.5 73v340h-65v9h65v80q0 62 19 105.5t49 63t55 27t48 7.5q75 4 116 -32l205 33v-633
q0 -48 8 -73.5t33 -31.5z" />
    <glyph glyph-name=".notdef" horiz-adv-x="507" 
d="M-1 704h508v-704h-508v704zM75 144l133 208l-133 209v-417zM253 423l132 204h-263zM385 76l-132 207l-131 -207h263zM298 352l134 -208v417z" />
    <glyph glyph-name=".null" horiz-adv-x="0" 
 />
    <glyph glyph-name="nonmarkingreturn" horiz-adv-x="333" 
 />
    <glyph glyph-name="space" unicode=" " horiz-adv-x="280" 
 />
    <glyph glyph-name="exclam" unicode="!" horiz-adv-x="378" 
d="M245 260h-115l-37 486h192zM283 88q0 40 -28 68t-68 28t-68 -28t-28 -68t28 -68.5t68 -28.5t68 28.5t28 68.5z" />
    <glyph glyph-name="quotedbl" unicode="&#x22;" horiz-adv-x="602" 
d="M131 377l-30 327h166l-28 -327h-108zM363 377l-30 327h167l-29 -327h-108z" />
    <glyph glyph-name="numbersign" unicode="#" horiz-adv-x="781" 
d="M611 577h106v-119h-133l-33 -139h103v-119h-130l-46 -200h-116l46 200h-136l-46 -200h-116l46 200h-112v119h140l32 139h-109v119h136l40 169h116l-39 -169h135l40 169h116zM435 319l33 139h-136l-32 -139h135z" />
    <glyph glyph-name="dollar" unicode="$" horiz-adv-x="584" 
d="M290 0q39 0 64 22.5t30 55t-14.5 72.5t-62.5 72l-17 11v-233zM281 492v212q-53 0 -79.5 -33t-9.5 -82.5t79 -89.5zM425 397q99 -65 124 -153.5t-32 -170.5q-2 -3 -7 -8.5t-23.5 -20t-42 -25t-65 -19.5t-89.5 -9v-122h-9v122q-84 1 -149 13.5t-88 25.5l-23 12v192h9
q7 -29 25.5 -65t48.5 -74.5t77 -65.5t100 -29v238l-128 81q-106 67 -131 152.5t39 165.5q2 3 7 8t23.5 18.5t41 23.5t62.5 18t86 8v122h9v-122q73 -1 129.5 -12.5t76.5 -22.5l21 -11v-168h-9q-8 27 -16 49t-25.5 52.5t-39.5 51t-57.5 36t-79.5 16.5v-218z" />
    <glyph glyph-name="percent" unicode="%" horiz-adv-x="1121" 
d="M311 679q82 0 125.5 -52t43.5 -131q0 -78 -43 -127t-126 -49t-126.5 49t-43.5 127q0 79 43.5 131t126.5 52zM311 329q34 0 42 30t8 137t-8.5 140.5t-41.5 33.5q-34 0 -42.5 -33t-8.5 -141q0 -105 8.5 -136t42.5 -31zM810 384q82 0 126 -51.5t44 -130.5q0 -78 -43.5 -127
t-126.5 -49t-126.5 49t-43.5 127q0 79 43.5 130.5t126.5 51.5zM810 35q35 0 42.5 29.5t7.5 137.5q0 106 -8.5 139.5t-41.5 33.5q-34 0 -42.5 -33t-8.5 -140q0 -106 8.5 -136.5t42.5 -30.5zM791 704h100l-551 -704h-99z" />
    <glyph glyph-name="ampersand" unicode="&#x26;" horiz-adv-x="820" 
d="M382 699q-27 0 -48.5 -20.5t-25.5 -54t25 -77.5l60 -90q80 52 80 146q0 41 -27 68.5t-64 27.5zM261 149q25 -32 56 -54t64 -21.5t52 36.5l-180 254l-14 -9q-19 -15 -27 -44.5t3.5 -74t45.5 -87.5zM697 77q52 0 52 52l10 -1q1 -62 -34 -99.5t-105 -37.5q-74 0 -116 35
q-28 22 -66 76q-12 -42 -55 -71.5t-93.5 -38t-104 10t-84.5 64.5q-27 40 -29.5 81t12 72t42.5 61.5t53 48.5t53 35l14 8l-32 47q-41 54 -53 112.5t4 104.5t61 76t111 30q62 0 109.5 -37t47.5 -104q0 -88 -96 -153l132 -197q28 55 60 82t72 40q49 15 86 -14q26 -22 28.5 -56
t-19.5 -61q-22 -26 -56 -28.5t-61 19.5q-28 24 -28 55q-1 19 -26 7q-33 -15 -50 -53q56 -84 72 -105q28 -37 46 -49t43 -12z" />
    <glyph glyph-name="quotesingle" unicode="'" horiz-adv-x="312" 
d="M105 377l-30 327h166l-28 -327h-108z" />
    <glyph glyph-name="parenleft" unicode="(" horiz-adv-x="372" 
d="M78 254q0 2 1 28t5 51t12.5 65t28 80.5t48 85t76 92t108.5 89.5l14 -13q-36 -43 -62 -108t-36.5 -128t-16.5 -119.5t-6 -90.5l1 -35q2 -4 0 -35t4.5 -88t16.5 -114.5t35.5 -116t61.5 -90.5l-14 -13q-60 34 -107.5 75.5t-75.5 83.5t-47.5 80.5t-28.5 78.5t-12.5 65
t-4.5 50.5t-1 26.5z" />
    <glyph glyph-name="parenright" unicode=")" horiz-adv-x="370" 
d="M14 746q61 -42 108.5 -89.5t76 -92t48 -85t28 -80.5t12.5 -65t5 -51t1 -28q0 -1 -1 -26.5t-4.5 -50.5t-12.5 -65t-28.5 -78.5t-47.5 -80.5t-75.5 -83.5t-107.5 -75.5l-14 13q36 32 61.5 90t36 117t16 113.5t4.5 89.5v34v36t-5 88t-16 122.5t-37 124.5t-62 110z" />
    <glyph glyph-name="asterisk" unicode="*" horiz-adv-x="566" 
d="M498 498l-178 -13l137 -114l-110 -79l-67 165l-66 -165l-109 79l136 114l-177 13l42 128l150 -94l-43 172h135l-44 -172l152 94z" />
    <glyph glyph-name="plus" unicode="+" horiz-adv-x="715" 
d="M657 376v-133h-234v-243h-133v243h-234v133h234v243h133v-243h234z" />
    <glyph glyph-name="comma" unicode="," horiz-adv-x="322" 
d="M234 169q22 -22 27 -53.5t-4.5 -63.5t-22.5 -57.5t-28 -47.5q-26 -41 -94 -80l-7 10q25 20 42 48.5t18 45t-6 21.5q-43 3 -70 29q-31 31 -31 74t30 74q31 30 73.5 30t72.5 -30z" />
    <glyph glyph-name="hyphen" unicode="-" horiz-adv-x="444" 
d="M379 185h-315v138h315v-138z" />
    <glyph glyph-name="period" unicode="." horiz-adv-x="323" 
d="M268 94q0 -43 -30 -73t-72 -30q-44 0 -74 30t-30 73t30.5 73.5t73.5 30.5q42 0 72 -30.5t30 -73.5z" />
    <glyph glyph-name="slash" unicode="/" horiz-adv-x="465" 
d="M448 725l-308 -746h-126l308 746h126z" />
    <glyph glyph-name="zero" unicode="0" horiz-adv-x="740" 
d="M674 346q0 -157 -80.5 -256t-238.5 -99t-239 98.5t-81 256.5q0 103 33 184t107 132t180 51t179.5 -51t106.5 -132t33 -184zM436 346q0 223 -13 290.5t-68 67.5q-58 0 -70 -65.5t-12 -292.5q0 -224 12 -285t70 -61q19 0 32 5.5t22.5 24t14.5 40t8 66t3.5 89t0.5 121.5z
" />
    <glyph glyph-name="one" unicode="1" horiz-adv-x="423" 
d="M327 86q0 -43 6.5 -60.5t30.5 -17.5v-8h-261v8q28 0 36.5 18.5t8.5 59.5v435q0 26 -10 38t-24.5 10t-29 -8t-24.5 -13l-10 -7l-5 7l189 165h93v-627z" />
    <glyph glyph-name="two" unicode="2" horiz-adv-x="529" 
d="M480 213h8l-58 -213h-398l201 267q108 160 58 247q-29 51 -96 53q-63 2 -98 -41q-28 -33 -19 -80l-16 -9q-19 36 -21 75.5t13 74.5t42 63.5t70 45.5t93 17q75 0 133 -55t58 -124q0 -53 -34 -109.5t-75 -94.5t-89 -80.5t-63 -61.5l-25 -32h216q28 0 56.5 14.5t43.5 42.5z
" />
    <glyph glyph-name="three" unicode="3" horiz-adv-x="561" 
d="M514 215q0 -57 -19 -99t-47 -65.5t-70 -37.5t-78.5 -18t-80.5 -4q-126 0 -175 85q-10 18 -8.5 44.5t15.5 45.5q20 30 56 36t64 -15q29 -22 35.5 -57t-14.5 -64q-22 -30 -55 -34q-9 0 -1 -9q17 -23 82 -23q56 0 81 54t10 139q-5 31 -12.5 52.5t-23.5 49t-46.5 42.5
t-73.5 15v9q47 8 75.5 35.5t34.5 60t-4 64.5t-34 49q-22 16 -54 17.5t-58.5 -14t-30.5 -43.5l-9 -2q-20 66 30 125.5t153 59.5q56 0 100.5 -25.5t65 -65.5t23 -84t-26.5 -87t-83 -69q78 -3 128.5 -54t50.5 -113z" />
    <glyph glyph-name="four" unicode="4" horiz-adv-x="558" 
d="M525 196h-84v-59q0 -30 0.5 -47t1 -33t3 -23.5t5 -13.5t8.5 -8t11 -2.5t16 -0.5v-9h-270v9q15 0 21.5 2t12.5 6.5t7.5 20t2.5 35.5t1 59v64h-232v17l366 500l46 -9v-438h84v-70zM261 266v250l-142 -194q-37 -51 -18 -55q3 -1 12 -1h148z" />
    <glyph glyph-name="five" unicode="5" horiz-adv-x="577" 
d="M96 446q110 17 192 5t135.5 -47.5t78.5 -86.5t21 -111q-4 -75 -44.5 -124.5t-97.5 -70t-129 -20.5q-111 0 -175 51q-18 15 -26 40.5t-3 50.5q9 35 41 54.5t69 11.5q35 -8 54.5 -39.5t11.5 -68.5q-9 -39 -38 -55q-11 -6 -1 -18q15 -18 67 -18q65 0 100.5 55t15.5 123
q-5 18 -15.5 35t-33 37.5t-56 31t-85 17t-120.5 -4.5l79 410h371l-48 -167h-347z" />
    <glyph glyph-name="six" unicode="6" 
d="M376 438q48 0 84 -12.5t57.5 -33t35 -50t18 -59t4.5 -65.5q0 -112 -69.5 -169.5t-188.5 -57.5q-134 0 -204.5 87t-70.5 240q0 185 83 290t231 105q51 0 91.5 -18.5t53.5 -32.5t21 -26q12 -19 12 -46.5t-15 -48.5q-19 -33 -56 -41t-70 12q-32 19 -40 57t12 69q22 36 56 40
q7 2 -2 11q-17 15 -63 15q-56 0 -83 -81t-28 -268q5 31 43 57t88 26zM317 0q50 0 60.5 31.5t10.5 144.5v22q0 108 -15 153t-52 45q-26 0 -48 -17t-28 -49q3 -201 8 -242q11 -80 53 -87q5 -1 11 -1z" />
    <glyph glyph-name="seven" unicode="7" horiz-adv-x="571" 
d="M88 704h451l-98 -169q-26 -52 -43.5 -120t-25.5 -115.5t-12 -124t-4 -95.5v-80h-192q18 143 71.5 261.5t194.5 273.5h-274q-28 0 -57 -15t-44 -43h-9z" />
    <glyph glyph-name="eight" unicode="8" horiz-adv-x="575" 
d="M277 497l92 -47q33 24 33 115q0 71 -32.5 105t-79.5 34q-36 0 -60.5 -23.5t-29.5 -57.5q-5 -36 14 -70.5t63 -55.5zM321 244l-125 68q-18 -17 -23 -46.5t-5 -87.5q0 -178 124 -178q46 0 75.5 26t35.5 66q6 41 -14.5 82.5t-67.5 69.5zM292 -9q-131 0 -192 44.5t-61 134.5
q0 66 39 104.5t87 55.5q-57 39 -85.5 84t-28.5 109q0 80 63.5 135t175.5 55q107 0 158 -40t51 -108q0 -31 -14.5 -54.5t-38 -37t-37.5 -19t-30 -9.5q86 -38 127 -101.5t41 -136.5q0 -216 -255 -216z" />
    <glyph glyph-name="nine" unicode="9" horiz-adv-x="606" 
d="M251 267q-65 0 -109.5 18t-66 51.5t-29.5 69t-8 81.5q0 112 69.5 169t188.5 57q275 0 275 -326q0 -66 -5 -115.5t-17.5 -96t-35 -79t-57 -57t-84.5 -36.5t-115 -12q-39 0 -72 10t-52 25t-28.5 25.5t-13.5 17.5q-12 19 -12 46.5t14 48.5q20 33 57 41t70 -12q32 -20 40 -57
t-12 -69q-24 -36 -56 -40q-8 -2 2 -11q17 -16 63 -16q33 0 54 10.5t33 28.5t17 55t6 75t1 104v26.5v25.5v29q-5 -31 -41 -59t-76 -28zM300 704q-47 0 -61 -39t-14 -158q0 -102 13 -150t46 -48q69 0 84 69q-3 207 -12 255q-15 69 -56 71z" />
    <glyph glyph-name="colon" unicode=":" horiz-adv-x="312" 
d="M259 386q0 -43 -30 -73t-72 -30q-43 0 -73.5 30t-30.5 73t30.5 73.5t73.5 30.5q42 0 72 -30.5t30 -73.5zM259 94q0 -43 -30 -73t-72 -30q-44 0 -74 30t-30 73t30.5 73.5t73.5 30.5q42 0 72 -30.5t30 -73.5z" />
    <glyph glyph-name="semicolon" unicode=";" horiz-adv-x="305" 
d="M256 386q0 -43 -30 -73t-72 -30q-43 0 -73.5 30t-30.5 73q0 44 30 74t74 30q42 0 72 -30.5t30 -73.5zM227 167q22 -22 27 -53.5t-4.5 -63.5t-22.5 -57.5t-28 -47.5q-26 -41 -94 -80l-7 10q25 20 42 48.5t18 45.5t-6 21q-43 3 -70 29q-31 31 -31 74t30 74q31 30 73.5 30
t72.5 -30z" />
    <glyph glyph-name="less" unicode="&#x3c;" horiz-adv-x="600" 
d="M250 266l303 -149v-133l-507 260v43l507 260v-134z" />
    <glyph glyph-name="equal" unicode="=" 
d="M567 319h-511v120h511v-120zM567 94h-511v120h511v-120z" />
    <glyph glyph-name="greater" unicode="&#x3e;" horiz-adv-x="600" 
d="M47 117l303 149l-303 147v134l507 -260v-43l-507 -260v133z" />
    <glyph glyph-name="question" unicode="?" horiz-adv-x="621" 
d="M540 553q2 -51 -13.5 -93.5t-42.5 -68.5t-52.5 -41.5t-50.5 -21.5q-106 -28 -100 -104l-9 -1q0 3 -6 24t-7 35t6.5 37.5t27.5 44.5q59 63 46 189q-6 70 -53.5 113.5t-105.5 20.5q-28 -11 -32 -37q0 -15 9 -15q29 4 57 -19q26 -23 28.5 -57t-18.5 -60q-22 -25 -56.5 -27
t-60.5 21q-31 26 -29 79q-1 30 26 65.5t71 55.5q59 26 123.5 29t116.5 -15.5t87 -59t38 -94.5zM373 78q0 37 -26 62.5t-62 25.5t-62 -25.5t-26 -62.5q0 -36 26 -61.5t62 -25.5t62 25.5t26 61.5z" />
    <glyph glyph-name="at" unicode="@" horiz-adv-x="985" 
d="M580 635q60 -4 113.5 -18t103 -44t83 -72.5t50 -107t8.5 -144.5q-8 -74 -39 -128.5t-72.5 -81t-80 -38t-72.5 -10.5q-57 2 -84 26t-23 57q-57 -83 -139 -83q-43 0 -71.5 34t-37.5 76.5t-4 80.5q5 33 17.5 67.5t37 74.5t68.5 65.5t100 25.5q26 0 48 -12t30.5 -22t8.5 -13
l5 26l123 -3q-53 -257 -61 -293l-2.5 -10t-2.5 -9.5t-1 -8t2 -7t6.5 -4t11.5 -1.5q43 0 92 53.5t54 154.5q2 51 -1.5 87t-18.5 73.5t-43 61.5t-77 42.5t-119 25.5q-91 9 -168 -16.5t-127.5 -75t-81.5 -111t-40 -127.5q-1 -7 -2.5 -18.5t-1.5 -46.5t5.5 -67t22 -73t43.5 -72
t75 -57t111 -35t124.5 2.5t92.5 26.5l30 16l5 -6q-3 -3 -9.5 -9t-31.5 -20t-55 -24.5t-82.5 -18.5t-111.5 -7q-46 1 -94 12.5t-97 40t-86 69.5t-58.5 106t-16.5 144q13 217 164 338.5t377 107.5zM575 112q18 76 35 178q16 99 -29 101q-37 2 -66.5 -48.5t-46.5 -122.5
q-15 -57 -9 -92t20.5 -49t37.5 -16q20 -2 34.5 10.5t18.5 25.5z" />
    <glyph glyph-name="A" unicode="A" horiz-adv-x="762" 
d="M382 203l-100 225l-89 -225h189zM181 194l202 510h5l270 -613q16 -37 35.5 -56.5t29 -22t25.5 -4.5v-8h-350v8q22 0 32.5 12t9 29t-6 34.5t-9.5 29.5l-6 12l-32 69h-196q-10 -17 -6.5 -48.5t13 -62t39.5 -53t72 -22.5v-8h-288v8q16 1 28 6t33.5 21t47 56.5t52.5 102.5z
" />
    <glyph glyph-name="B" unicode="B" horiz-adv-x="751" 
d="M313 695h-12v-333h29q24 0 41 5.5t35 21.5t27.5 52.5t9.5 91.5q0 54 -13 89.5t-35.5 49.5t-40.5 18.5t-41 4.5zM430 361q27 0 53.5 -2t67.5 -13t70.5 -29t51.5 -54t22 -84q0 -37 -11.5 -65t-28 -47t-46.5 -32t-56 -19.5t-68 -10.5t-70 -4.5t-75 -0.5h-303v9q58 0 58 128
v429q0 54 -14 92t-44 38v8h303q34 0 53.5 -0.5t52.5 -2.5t53 -7t46.5 -12.5t42.5 -21t31 -31.5t22 -44t7 -58q0 -42 -21 -74t-49.5 -49t-62.5 -27.5t-54 -13t-31 -2.5zM315 9h29t26.5 1.5t26 4.5t22 8.5t20.5 14t15.5 21.5t13.5 30.5t7 41t3 52.5q0 48 -10.5 81.5
t-24.5 50.5t-38.5 26t-40.5 10.5t-42 1.5h-21v-344h14z" />
    <glyph glyph-name="C" unicode="C" horiz-adv-x="722" 
d="M660 240h8l10 -202q-24 -16 -92.5 -31.5t-141.5 -15.5q-108 0 -199 42t-148 126t-57 193t57 193t148 126t199 42q88 0 150 -14.5t84 -31.5l-10 -202h-8q-11 73 -35.5 124t-57.5 74t-62 32t-61 9q-86 0 -122 -76t-36 -276q0 -136 17.5 -213.5t51 -108t89.5 -30.5
q29 0 58.5 10t61.5 34.5t58 75t38 120.5z" />
    <glyph glyph-name="D" unicode="D" horiz-adv-x="816" 
d="M333 9q42 0 65 4t49.5 22t39 53.5t21 100t8.5 160.5q0 95 -8 159t-20.5 101t-37.5 56t-50 24.5t-67 5.5h-44v-686h44zM333 704q65 0 122 -8.5t116 -32.5t101 -62t68.5 -102.5t26.5 -149.5q0 -71 -18 -127t-51 -93.5t-73 -63.5t-91.5 -39.5t-99 -19.5t-101.5 -6h-296v9
q30 0 44.5 36t14.5 92v429q0 53 -14.5 91.5t-44.5 38.5v8h296z" />
    <glyph glyph-name="E" unicode="E" horiz-adv-x="683" 
d="M602 196h9v-196h-584v9q30 0 44 36t14 92v429q0 54 -14 92t-44 38v8h571v-205h-9q0 55 -28 95t-68 58.5t-80.5 29t-68.5 12.5l-28 1h-36v-335h81q6 0 12.5 0.5t26 6.5t34 17t28.5 35.5t17 58.5h9v-245h-9q-3 34 -17 58.5t-28.5 35.5t-34 17t-26.5 6.5t-12 0.5h-81v-342
h36q1 2 16 0t41 2.5t56 9t60.5 19t55.5 33t41 51t16 72.5z" />
    <glyph glyph-name="F" unicode="F" horiz-adv-x="630" 
d="M376 9v-9h-351v9q30 0 44 36t14 92v429q0 54 -14 92t-44 38v8h581v-205h-9q0 55 -29 95t-70.5 58.5t-83 29t-70.5 12.5l-29 1h-36v-335h89q6 0 12.5 0.5t26 6.5t34 17t29 35.5t17.5 58.5h9v-245h-9q-2 24 -10.5 44t-18 32t-23 21t-23.5 12.5t-22 6t-15.5 2.5h-6.5h-89
v-228q0 -34 10 -58.5t24.5 -35t28.5 -15.5t24 -5h10z" />
    <glyph glyph-name="G" unicode="G" horiz-adv-x="771" 
d="M461 263h282v-9q-48 0 -56 -22.5t-8 -145.5v-38q-37 -26 -106.5 -41.5t-149.5 -15.5q-164 0 -274 102t-110 259q0 158 110 259.5t274 101.5q100 0 152.5 -12t100.5 -44l-19 -197h-8q0 244 -226 244q-84 0 -111 -71t-27 -281q0 -143 11.5 -215.5t40.5 -104.5t86 -32
q58 0 83 31t25 104q0 79 -13.5 99t-56.5 20v9z" />
    <glyph glyph-name="H" unicode="H" horiz-adv-x="757" 
d="M737 696q-44 0 -44 -86v-514q0 -87 44 -87v-9h-258v9q24 0 24 87v236h-242v-236q0 -87 24 -87v-9h-259v9q45 0 45 87v514q0 86 -45 86v8h259v-8q-6 0 -10.5 -4t-7 -11.5t-4.5 -15t-2 -17.5t-0.5 -16.5t-0.5 -13.5l1 -8v-269h242v269q0 86 -24 86v8h258v-8z" />
    <glyph glyph-name="I" unicode="I" horiz-adv-x="405" 
d="M39 704h330v-8q-19 0 -28.5 -1.5t-19.5 -9.5t-13.5 -27t-3.5 -51v-494q0 -66 15 -85t50 -19v-9h-330v9q35 0 50 19t15 85v494q0 61 -13.5 75t-51.5 14v8z" />
    <glyph glyph-name="J" unicode="J" horiz-adv-x="422" 
d="M94 704h290v-8q-35 0 -41 -7.5t-6 -54.5v-452q0 -69 -22.5 -126t-58 -94t-85 -65t-97 -42t-100.5 -22l-3 8q73 26 119 108t46 233v330q0 138 -5 161t-37 23v8z" />
    <glyph glyph-name="K" unicode="K" horiz-adv-x="846" 
d="M706 82q24 -32 44 -49t30 -20t27 -4v-9h-178q-57 0 -84.5 10t-54.5 39.5t-84 111.5l-101 141l170 180q34 37 43 88.5t-6.5 88.5t-46.5 37v8h330v-8q-48 0 -142 -68t-211 -194zM326 704h-286v-8q31 0 36 -10t5 -59v-554q0 -50 -4.5 -57t-36.5 -7v-9h283v9q-34 0 -40.5 7.5
t-6.5 56.5v554q0 29 0.5 42t8.5 19.5t13.5 7t27.5 0.5v8z" />
    <glyph glyph-name="L" unicode="L" horiz-adv-x="637" 
d="M563 217h9v-217h-530v9q29 0 35 13.5t6 62.5v3v3v3v544q0 44 -7.5 51t-41.5 7v8h299v-8q-34 0 -42.5 -10t-8.5 -61v-616q32 0 63 3.5t72.5 16.5t72 34t52 61t21.5 93z" />
    <glyph glyph-name="M" unicode="M" horiz-adv-x="1029" 
d="M588 244l173 460h244v-9q-35 0 -41 -12t-6 -62v-528q0 -52 10.5 -68t46.5 -16v-9h-305v9q34 0 42.5 15.5t8.5 68.5v584l-259 -686h-9l-324 602v-328q0 -110 36.5 -183t116.5 -73v-9h-312v9q75 0 112.5 74t37.5 182v343q-47 83 -99 87v9h285z" />
    <glyph glyph-name="N" unicode="N" horiz-adv-x="844" 
d="M676 0h-110l-377 537v-312q0 -32 1.5 -54t10 -55.5t23.5 -54.5t44.5 -36.5t71.5 -15.5v-9h-318v9q49 0 82.5 21.5t48.5 58t21 68.5t6 68v324l-47 67q-21 28 -40 45.5t-37 24t-25 8t-23 2.5v8h319l340 -491v267q0 52 -11.5 98t-45.5 82t-86 36v8h303v-8q-44 0 -75.5 -20
t-47 -54t-22 -68.5t-6.5 -73.5v-480z" />
    <glyph glyph-name="O" unicode="O" horiz-adv-x="812" 
d="M406 0q30 0 50 5.5t34 24.5t21.5 39t11 67t4.5 88.5t1 122.5q0 60 -0.5 94.5t-2 76t-5 63.5t-9.5 47t-14.5 36t-21.5 22t-30 14.5t-39 3.5q-30 0 -50.5 -6.5t-34.5 -26.5t-21.5 -41.5t-11.5 -69t-5 -90.5t-1 -123t1 -122.5t5 -88.5t11.5 -66.5t21.5 -39.5t34.5 -24.5
t50.5 -5.5zM406 713q161 0 263 -106.5t102 -259.5q0 -152 -101.5 -254t-263.5 -102t-263.5 102t-101.5 254q0 153 102 259.5t263 106.5z" />
    <glyph glyph-name="P" unicode="P" horiz-adv-x="710" 
d="M278 312v383q89 0 110 -7q37 -13 47 -69q7 -39 7 -117q0 -38 -0.5 -63t-5 -47t-7 -34t-14 -22t-18.5 -14t-28.5 -7t-36 -3h-47.5h-7zM278 137v166q50 0 85.5 1t79.5 5.5t75 12.5t62.5 23t50.5 35.5t31 51.5t12 70q0 46 -14.5 80.5t-44.5 56t-63.5 35t-83.5 20t-91 8.5
t-99 2h-253v-8q32 0 42 -18.5t10 -67.5v-515q0 -53 -8 -69.5t-38 -16.5v-9h329v9q-27 0 -38 2t-23.5 13.5t-16.5 38t-4 74.5z" />
    <glyph glyph-name="Q" unicode="Q" horiz-adv-x="804" 
d="M653 -112l-171 58q-7 3 -20.5 6.5t-54 6.5t-81 -3t-97 -30t-106.5 -67l5 -7q15 9 25.5 13t35 3.5t55.5 -12.5l86 -36q92 -39 144.5 -54.5t103.5 -11.5t92 36l125 108l-5 7q-1 0 -10 -6t-13 -8t-14.5 -6.5t-19.5 -5.5t-21.5 -1.5t-27.5 2t-31 8.5zM406 0q30 0 50 5.5
t34 24.5t21.5 39t11 67t4.5 88.5t1 122.5q0 60 -0.5 94.5t-2 76t-5 63.5t-9.5 47t-14.5 36t-21.5 22t-30 14.5t-39 3.5q-30 0 -50.5 -6.5t-34.5 -26.5t-21.5 -41.5t-11.5 -69t-5 -90.5t-1 -123t1 -122.5t5 -88.5t11.5 -66.5t21.5 -39.5t34.5 -24.5t50.5 -5.5zM406 713
q161 0 263 -106.5t102 -259.5q0 -152 -101.5 -254t-263.5 -102t-263.5 102t-101.5 254q0 153 102 259.5t263 106.5z" />
    <glyph glyph-name="R" unicode="R" horiz-adv-x="773" 
d="M304 334h36t28.5 1.5t24 3t17.5 6.5t14.5 10.5t9 16.5t7.5 22.5t3.5 30.5t2.5 39v49q0 35 -1 60t-5 45t-6.5 33t-13 22t-16 13t-23 6.5t-27.5 2.5h-36h-15h-31v-361h31zM670 127q14 -52 45 -84t54 -34v-9h-199q-53 0 -76 45.5t-41 185.5q-6 44 -39 67.5t-64 25.5l-30 1
h-47v-212q0 -73 7 -88.5t39 -15.5v-9h-299v9q24 0 33 5t14 26t5 73v494q0 49 -10 69t-42 20v8h284q66 0 116.5 -3.5t102 -15.5t84.5 -32.5t54 -55.5t21 -84q0 -53 -22.5 -91t-59.5 -56.5t-74 -26t-78 -7.5q47 0 77 -7t58 -28t48.5 -62t38.5 -108z" />
    <glyph glyph-name="S" unicode="S" horiz-adv-x="619" 
d="M439 397q99 -65 124 -153.5t-32 -170.5q-2 -3 -7 -8.5t-23.5 -20t-42 -25t-65 -19.5t-89.5 -9q-54 0 -102 5.5t-77 12.5t-50.5 14.5t-30.5 12.5l-9 6v192h9q7 -29 26 -65.5t50 -76t80 -66t104 -26.5q39 0 64 22.5t30 55t-14.5 72.5t-62.5 72l-154 97q-106 67 -131 152.5
t39 165.5q2 3 7 8t23 18.5t41 23.5t62.5 18t85.5 8q76 0 135.5 -11.5t80.5 -23.5l21 -11v-168h-9q-57 205 -228 205q-40 0 -65 -20.5t-29.5 -50t17 -67t68.5 -67.5z" />
    <glyph glyph-name="T" unicode="T" horiz-adv-x="762" 
d="M20 704h715v-225h-8q-4 81 -85.5 148.5t-150.5 67.5h-11v-582q0 -56 8.5 -80t36.5 -24v-9h-295v9q28 0 36.5 24t8.5 80v582h-11q-69 0 -150.5 -67.5t-85.5 -148.5h-8v225z" />
    <glyph glyph-name="U" unicode="U" horiz-adv-x="736" 
d="M320 -9q-71 0 -130 24t-98.5 78.5t-39.5 132.5v381v14q0 31 -1.5 43.5t-10 21.5t-28.5 9v9h286v-9q-29 0 -35 -13.5t-6 -65.5v-9v-388q0 -86 41.5 -127t115.5 -41q77 0 119 47t42 121v260q0 34 -6 69t-18.5 69.5t-37.5 56t-59 21.5v9h262l1 -9q-40 0 -68 -21.5t-41 -56.5
t-18.5 -68.5t-5.5 -69.5v-260q0 -103 -68 -165.5t-196 -62.5z" />
    <glyph glyph-name="V" unicode="V" horiz-adv-x="807" 
d="M480 704h303v-8q-93 0 -185 -207l-197 -489h-29l-282 615q-17 38 -31 56t-22 21t-26 4v8h333v-8q-19 0 -27.5 -12t-7 -29t5.5 -34t9 -29l6 -12l155 -345l103 254q12 29 12.5 64t-10 67t-39 54t-71.5 22v8z" />
    <glyph glyph-name="W" unicode="W" horiz-adv-x="1141" 
d="M843 704h284v-8q-88 0 -174 -207l-175 -489h-36q-153 357 -193 448l-160 -448h-36l-265 615q-12 29 -21.5 46t-19 24t-15 8.5t-18.5 2.5v8h312v-8q-18 0 -26 -12t-6.5 -29t5.5 -34t9 -29l5 -12l151 -343l80 223l-67 155q-12 29 -21.5 46t-19 24t-15 8.5t-18.5 2.5v8h312
v-8q-18 0 -26 -12t-6.5 -29t5.5 -34t9 -29l5 -12l150 -344l90 253q11 27 9 62.5t-11 67.5t-35 54.5t-62 22.5v8z" />
    <glyph glyph-name="X" unicode="X" horiz-adv-x="836" 
d="M704 105q71 -94 114 -97v-8h-340v8q25 4 23.5 25t-15.5 45l-14 25l-114 166l-52 -73q-16 -23 -24 -54.5t-6 -61.5t22 -51t56 -21v-8h-308v8q39 3 64 15q80 39 190 178l53 75l-224 321q-72 94 -115 99v8h353v-8q-18 0 -29.5 -7t-10 -27.5t23.5 -51.5l129 -181q21 29 52 73
q14 19 25 49.5t15.5 64t-13.5 57t-61 23.5v8h277v-8q-16 -2 -21.5 -3t-31 -12t-47.5 -29.5t-59.5 -59t-77.5 -96.5l-54 -75z" />
    <glyph glyph-name="Y" unicode="Y" horiz-adv-x="782" 
d="M473 335q50 99 78 160q10 21 15 52.5t2 66t-26.5 58.5t-66.5 24v8h290v-8q-103 0 -206 -205l-81 -164v-214v-21.5v-19v-16.5t1 -14.5t2.5 -11t4 -9.5t6 -6.5t9 -4.5t12.5 -1v-9h-269v9q18 0 26.5 11.5t9.5 25t1 47.5v7v6v7v163l-195 342q-31 53 -43.5 65t-33.5 14v7h301
v-7q-29 0 -32 -9q-4 -15 49 -105z" />
    <glyph glyph-name="Z" unicode="Z" horiz-adv-x="672" 
d="M636 704l-355 -695h10q155 0 235.5 49t94.5 175h8l-15 -233h-589l382 695h-47q-130 0 -211 -51.5t-93 -141.5h-8l13 202h575z" />
    <glyph glyph-name="bracketleft" unicode="[" horiz-adv-x="376" 
d="M113 735h245v-9q-26 0 -40.5 -2t-32 -9.5t-25.5 -26t-8 -48.5v-700q0 -26 8.5 -42.5t26 -23t32.5 -8.5t39 -2v-10h-245v881z" />
    <glyph glyph-name="backslash" unicode="\" horiz-adv-x="482" 
d="M325 -20l-311 755h136l311 -755h-136z" />
    <glyph glyph-name="bracketright" unicode="]" horiz-adv-x="376" 
d="M11 735h245v-881h-245v10q24 0 39 2t32.5 8.5t26 23t8.5 42.5v700q0 30 -8 48.5t-26 25.5t-31.5 8.5t-40.5 1.5v11z" />
    <glyph glyph-name="asciicircum" unicode="^" horiz-adv-x="606" 
d="M330 704l185 -328h-50l-162 141l-159 -141h-55l188 328h53z" />
    <glyph glyph-name="underscore" unicode="_" horiz-adv-x="560" 
d="M0 -49h560v-101h-560v101z" />
    <glyph glyph-name="grave" unicode="`" horiz-adv-x="491" 
d="M196 720l224 -163h-82l-304 113z" />
    <glyph glyph-name="a" unicode="a" horiz-adv-x="567" 
d="M300 90v154q-24 -5 -40 -16t-24 -22t-12 -29.5t-4.5 -28.5t-0.5 -30v-7.5t2 -15.5t6 -20t12 -16t19 -7q25 0 42 38zM544 69l6 -5q-10 -33 -46 -53t-83 -20q-5 0 -12.5 0.5t-27 5.5t-35 13.5t-29 27t-16.5 43.5q-10 -40 -46.5 -65t-88.5 -25q-25 0 -50.5 7t-50 31.5
t-24.5 63.5q0 21 6 38t13.5 30t27.5 24.5t34.5 19t49 17t57 15t71.5 17.5v64q0 78 -38 114.5t-90 9.5q-1 -1 -2 -1.5t-3 -3.5t-2 -6t4.5 -7t14.5 -7q23 -8 36 -38q11 -28 0 -54.5t-39 -38.5q-27 -11 -54 0.5t-38 38.5q-17 44 12 74q27 30 67 51q20 11 43.5 16t36.5 5h14
q96 0 150 -55t54 -145v-149q0 -3 0.5 -8t3 -17t7 -21.5t14.5 -17t23 -6.5q25 0 30 17z" />
    <glyph glyph-name="b" unicode="b" horiz-adv-x="663" 
d="M317 0q45 0 72 55.5t27 169.5q0 95 -24.5 155.5t-75.5 60.5q-82 0 -82 -159v-106q0 -176 83 -176zM406 471q99 0 155 -67t56 -165q0 -71 -22 -121.5t-60.5 -77t-82 -38t-95.5 -11.5q-105 0 -153 44q-15 -10 -50 -20.5t-60 -13.5t-29 4v627q0 26 -10.5 39.5t-40.5 24.5v8
l220 42v-351q44 76 172 76z" />
    <glyph glyph-name="c" unicode="c" horiz-adv-x="515" 
d="M318 471q99 0 153 -61q13 -13 17 -34.5t-2 -41.5q-10 -29 -38 -42t-57 -2q-29 10 -42 37.5t-2 56.5q12 29 38 40q10 3 -1 17q-17 21 -61 21q-82 0 -82 -216q0 -81 33.5 -123.5t96.5 -42.5q79 0 101 53l7 -3q0 -52 -53 -95.5t-141 -43.5q-100 0 -170 69t-70 173
q0 108 68.5 173t204.5 65z" />
    <glyph glyph-name="d" unicode="d" horiz-adv-x="666" 
d="M432 119v201q0 66 -27 104t-67 38q-41 0 -64.5 -46.5t-23.5 -164.5q0 -98 23 -147.5t76 -49.5q27 0 51.5 20.5t31.5 44.5zM601 90q0 -36 10 -48.5t41 -16.5v-8l-192 -25q-12 -2 -19 2.5t-8 9.5l-1 6v89q-11 -50 -60 -79t-106 -29q-105 0 -162 60t-57 177q0 120 69 181.5
t182 61.5q102 0 134 -44v205q0 27 -10.5 40t-40.5 24v8l220 42v-656z" />
    <glyph glyph-name="e" unicode="e" horiz-adv-x="537" 
d="M289 471q43 0 77.5 -10t65 -34t47.5 -71t17 -115h-272q0 -106 29 -150t86 -57q41 -9 82 17.5t55 86.5l9 -2q-11 -60 -66.5 -102.5t-144.5 -42.5q-99 0 -168 69t-69 170q0 61 22 109t58.5 76t80 42t91.5 14zM224 250h127q0 212 -58 212q-32 0 -50.5 -66t-18.5 -146z" />
    <glyph glyph-name="f" unicode="f" horiz-adv-x="388" 
d="M247 113q0 -47 8 -72.5t33 -32.5v-8h-250v8q26 7 32.5 32t6.5 73v340h-65v9h65q0 85 18 142.5t52 86.5t73 40.5t92 11.5q36 0 66 -16t45 -44q20 -37 -4 -77q-15 -23 -42.5 -28.5t-50.5 9.5t-29 42t10 51q13 22 40 28q15 4 11 15q-6 11 -30 12q-54 0 -70 -64
q-11 -46 -11 -209h107v-9h-107v-340z" />
    <glyph glyph-name="g" unicode="g" horiz-adv-x="593" 
d="M511 485q37 9 65 -19q18 -19 16.5 -44.5t-21.5 -43.5q-19 -17 -45 -15t-43 21q-19 23 -15 44q1 5 -6 6q-13 0 -29 -13q35 -35 35 -100q0 -24 -8 -46.5t-28.5 -47.5t-64.5 -40.5t-106 -15.5q-58 0 -97 13q-9 -5 -17 -12t-12 -15.5t-1.5 -15.5t17.5 -11.5t43 -4.5h140
q27 0 45 -1.5t47 -12t45.5 -29.5t26 -58t2.5 -93q0 -3 -1 -8.5t-7.5 -22t-16.5 -33t-31 -38.5t-49 -41q-53 -36 -133 -48.5t-147.5 4.5t-85.5 57q-15 28 -12.5 54t10.5 44.5t25.5 35t33 26t32.5 17.5q-56 27 -56 86q0 3 0.5 9t5 22.5t13 31t27.5 32t45 28.5q-55 19 -77 57
t-22 77q0 150 207 150q115 0 167 -45q42 52 83 59zM221 -44q-54 0 -95 17q-29 -34 -28.5 -59.5t22.5 -43.5t47.5 -29t46.5 -16l22 -5q86 -10 138 -3.5t66 22.5q9 10 10.5 26.5t-1.5 28.5l-3 11q-1 2 -2.5 5.5t-8 12.5t-15.5 15.5t-26 12t-37 5.5h-136zM261 179
q23 0 31.5 29.5t8.5 112.5q0 87 -7 114t-33 27q-27 0 -33.5 -26.5t-6.5 -114.5q0 -84 8.5 -113t31.5 -29z" />
    <glyph glyph-name="h" unicode="h" horiz-adv-x="594" 
d="M535 114q0 -47 8.5 -73.5t32.5 -32.5v-8h-250v8q26 7 33 33t7 73v200q0 43 -16.5 64t-52.5 20q-17 0 -34.5 -12.5t-27.5 -30.5v-242q0 -47 8 -72.5t33 -32.5v-8h-250v8q26 7 32.5 32t6.5 73v519q0 26 -11 39.5t-42 24.5v8l223 42v-377q19 43 56.5 72.5t79.5 29.5
q70 0 117 -35.5t47 -117.5v-204z" />
    <glyph glyph-name="i" unicode="i" horiz-adv-x="326" 
d="M152 497q-40 0 -67.5 27.5t-27.5 67.5t27.5 67.5t67.5 27.5t68 -27.5t28 -67.5t-28 -67.5t-68 -27.5zM248 113q0 -47 8 -72.5t33 -32.5v-8h-250v8q26 7 32.5 32t6.5 73v244q0 26 -10.5 39.5t-41.5 24.5v8l222 42v-358z" />
    <glyph glyph-name="j" unicode="j" horiz-adv-x="314" 
d="M153 499q-40 0 -67.5 27.5t-27.5 67.5t27.5 67.5t67.5 27.5t68 -27.5t28 -67.5t-28 -67.5t-68 -27.5zM29 421v8l219 42v-421q0 -220 -230 -278v8q27 7 42.5 68.5t17.5 119.5l1 59v320q0 26 -10 42t-40 32z" />
    <glyph glyph-name="k" unicode="k" horiz-adv-x="654" 
d="M522 85q55 -76 116 -76v-9h-185q-49 0 -70 18.5t-75 99.5l-58 87l117 120q22 23 32 53.5t0.5 53t-39.5 22.5v8h272v-8q-46 0 -130 -44.5t-148 -110.5zM232 113q0 -47 8 -72.5t33 -32.5v-8h-250v8q18 5 27 22t10.5 33.5t1.5 49.5v519q0 26 -11 39.5t-42 24.5v8l223 42
v-633z" />
    <glyph glyph-name="l" unicode="l" horiz-adv-x="313" 
d="M242 113q0 -47 8 -72.5t33 -32.5v-8h-250v8q18 5 27 22t10.5 33.5t1.5 49.5v519q0 26 -11 39.5t-42 24.5v8l223 42v-633z" />
    <glyph glyph-name="m" unicode="m" horiz-adv-x="829" 
d="M769 114q0 -47 8.5 -73.5t32.5 -32.5v-8h-250v8q26 7 33 33t7 73v201q0 44 -10 64t-35 20q-35 0 -59 -45q2 -17 2 -35v-205q0 -47 8.5 -73.5t32.5 -32.5v-8h-250v8q26 7 33 33t7 73v201q0 45 -9.5 64.5t-35.5 19.5q-30 0 -54 -38v-248q0 -47 8 -72.5t33 -32.5v-8h-250v8
q18 5 27 22t10.5 33.5t1.5 49.5v244q0 26 -10.5 39.5t-41.5 24.5v8l222 42v-95q18 41 50 68t71 27q127 0 144 -103q17 46 50.5 74.5t76.5 28.5q147 0 147 -152v-205z" />
    <glyph glyph-name="n" unicode="n" horiz-adv-x="593" 
d="M527 114q0 -47 8.5 -73.5t32.5 -32.5v-8h-250v8q26 7 33 33t7 73v201q0 84 -69 84q-33 0 -59 -39v-247q0 -47 8 -72.5t33 -32.5v-8h-250v8q18 5 27 22t10.5 33.5t1.5 49.5v244q0 26 -10.5 39.5t-41.5 24.5v8l222 42v-97q20 41 57 69t76 28q70 0 117 -35t47 -117v-205z
" />
    <glyph glyph-name="o" unicode="o" horiz-adv-x="595" 
d="M299 471q128 0 193 -67t65 -173q0 -105 -65 -172.5t-193 -67.5t-193 67.5t-65 172.5q0 106 65 173t193 67zM299 0q38 0 46.5 42t8.5 189t-8.5 189t-46.5 42q-39 0 -47.5 -42t-8.5 -189t8.5 -189t47.5 -42z" />
    <glyph glyph-name="p" unicode="p" horiz-adv-x="662" 
d="M319 0q45 0 72.5 55.5t27.5 169.5q0 95 -24.5 153.5t-75.5 58.5q-75 0 -82 -125v-173q8 -139 82 -139zM409 471q99 0 155 -67t56 -165q0 -71 -22 -121.5t-60.5 -77t-82 -38t-95.5 -11.5q-77 0 -123 23v-166q0 -47 8 -72t33 -32v-9h-250v9q18 5 27 22t10.5 33.5t1.5 48.5
v509q0 26 -10.5 39.5t-41.5 24.5v8l222 42v-78q45 78 172 78z" />
    <glyph glyph-name="q" unicode="q" horiz-adv-x="658" 
d="M350 25q29 0 55.5 21t26.5 49v250q-4 55 -29.5 86t-62.5 31q-89 0 -89 -211q0 -226 99 -226zM602 -152q0 -47 8 -72t33 -32v-9h-250v9q18 5 27 22t10.5 33.5t1.5 48.5v206q-16 -25 -62.5 -44t-102.5 -19q-105 0 -162 60t-57 177q0 120 69 181.5t182 61.5t169 -35
q29 19 61.5 28t52.5 6.5t20 -13.5v-609z" />
    <glyph glyph-name="r" unicode="r" horiz-adv-x="511" 
d="M462 448q29 -26 32 -64.5t-22 -67.5t-63.5 -32t-68.5 22q-32 30 -32 62q0 11 -19 2q-25 -14 -54 -58v-199q0 -47 8 -72.5t33 -32.5v-8h-250v8q26 7 32.5 32t6.5 73v244q0 26 -11 39.5t-42 24.5v8l223 42v-140q33 50 60 79.5t38.5 36.5t32.5 17t49 5.5t47 -21.5z" />
    <glyph glyph-name="s" unicode="s" horiz-adv-x="445" 
d="M313 279q67 -41 84 -113t-25 -121q-2 -2 -5 -5.5t-16 -13t-29 -16.5t-44 -13t-60 -6q-54 0 -98.5 8.5t-61.5 16.5l-18 9v131h9q14 -67 65.5 -111.5t103.5 -44.5q35 0 51.5 22.5t6 54.5t-46.5 56l-101 61q-70 46 -87 112t29 117q4 5 13.5 13t48 21.5t89.5 13.5t92 -7
t56 -14l15 -7v-102h-9q-12 62 -57.5 91.5t-96.5 29.5q-33 0 -51 -18t-8.5 -47t50.5 -55z" />
    <glyph glyph-name="t" unicode="t" horiz-adv-x="399" 
d="M320 64q35 0 61 30l6 -4q-9 -41 -49.5 -70t-94.5 -29q-44 0 -79.5 12t-62.5 48t-27 93v309h-63v9h63v134l168 21v-155h129v-9h-129v-306q0 -43 18 -63t60 -20z" />
    <glyph glyph-name="u" unicode="u" 
d="M544 89q0 -36 9.5 -47.5t41.5 -15.5v-8l-192 -26q-12 -2 -19 3t-8 11l-1 5v82q-6 -42 -43.5 -72t-96.5 -30q-69 0 -115.5 35.5t-46.5 117.5v222v26.5t-1.5 17.5t-4.5 14.5t-10 8t-16 7t-24 3.5v8l228 20v-324q0 -44 14 -63.5t51 -19.5q52 0 65 56v243v12q0 41 -6.5 52.5
t-40.5 15.5v8l216 20v-382z" />
    <glyph glyph-name="v" unicode="v" horiz-adv-x="599" 
d="M360 462h233v-8q-47 0 -75 -33t-69 -131l-113 -299h-55l-197 401q-31 57 -81 62v8h313v-8q-30 0 -35.5 -21t3.5 -42l9 -21l102 -200q28 74 45 122q7 21 9 46.5t-3.5 52.5t-27 45t-58.5 18v8z" />
    <glyph glyph-name="w" unicode="w" horiz-adv-x="846" 
d="M627 462h215v-8q-44 0 -69.5 -33t-63.5 -131l-105 -299h-50l-131 289l-97 -289h-52l-183 401q-28 57 -75 62v8h270v-8q-20 0 -20 -21t10 -42l9 -21l93 -198l40 117l-47 103q-20 39 -28.5 50t-21.5 12v8h250v-8q-13 0 -19 -8.5t-4 -21t5.5 -25t7.5 -21.5l4 -8l93 -199
q27 72 43 120q7 20 7.5 46t-5 53t-25.5 45.5t-51 18.5v8z" />
    <glyph glyph-name="x" unicode="x" horiz-adv-x="659" 
d="M573 59q34 -46 80 -51v-8h-306v8q39 0 -6 67q-7 10 -9 12l-64 88l-35 -48q-3 -5 -8 -13t-11.5 -28.5t-4 -36t24 -28.5t63.5 -13v-8h-269v8q50 0 102.5 33t93.5 91l38 50l-164 228q-35 38 -87 44v8h342v-8q-24 0 -30.5 -22t17.5 -57l54 -67l31 46q3 4 6.5 11t9.5 24
t4.5 30t-17 24t-46.5 11v8h249v-8q-59 0 -112.5 -27t-82.5 -72l-36 -55z" />
    <glyph glyph-name="y" unicode="y" horiz-adv-x="616" 
d="M368 462h233v-8q-52 0 -79 -32t-69 -132l-125 -359q-37 -120 -83 -158q-17 -14 -45.5 -17t-50.5 7q-32 15 -44.5 48t1.5 65q15 32 48 44.5t65 -1.5q33 -15 44 -47q4 -16 17 -11q20 7 40 77l-228 454q-31 57 -81 62v8h313v-8q-30 0 -35.5 -21t3.5 -42l9 -21l102 -198
l41 121q2 7 4.5 17.5t4 38.5t-3.5 49t-25.5 38.5t-55.5 17.5v8z" />
    <glyph glyph-name="z" unicode="z" horiz-adv-x="529" 
d="M493 462l-242 -453q52 0 93.5 16t65.5 41.5t36 45.5t19 40h8l-9 -152h-435l258 453q-178 0 -221 -123h-8l5 132h430z" />
    <glyph glyph-name="braceleft" unicode="{" horiz-adv-x="383" 
d="M268 3q0 -163 60 -163l-1 -4q-199 0 -199 167v117q0 31 -1.5 54.5t-7.5 39.5t-9 25.5t-13.5 17t-13.5 9.5t-17.5 6.5t-16.5 5.5v4l15 5t15 5.5t12.5 7.5t12.5 12.5t9.5 19t8.5 28.5t4 39t2 52v117q0 86 48 126.5t151 40.5l1 -4q-35 0 -47.5 -39t-12.5 -124v-144
q0 -81 -42 -112.5t-140 -31.5q100 0 141 -27t41 -106v-144z" />
    <glyph glyph-name="bar" unicode="|" horiz-adv-x="250" 
d="M73 -164v899h111v-899h-111z" />
    <glyph glyph-name="braceright" unicode="}" horiz-adv-x="376" 
d="M52 -161q33 0 46.5 40.5t13.5 122.5v144q0 79 41.5 106t140.5 27q-97 0 -139.5 31.5t-42.5 112.5v144q0 86 -12 124.5t-48 38.5l1 4q104 0 151.5 -40t47.5 -127v-117q0 -29 2 -52t4 -39t8.5 -28.5t9.5 -19t12.5 -12.5t12.5 -7.5t15 -5.5l15 -5v-4q-2 -1 -16.5 -5.5
t-17.5 -6.5t-13.5 -9.5t-13.5 -17t-9 -25.5t-7.5 -39.5t-1.5 -54.5v-117q0 -167 -199 -167z" />
    <glyph glyph-name="asciitilde" unicode="~" horiz-adv-x="648" 
d="M367 165l-119 47q-24 9 -56.5 16.5t-72.5 4t-52 -27.5l-4 1q23 54 54 88t58.5 44t51.5 12t38 -2l14 -5l119 -46q22 -10 56 -17.5t73.5 -4t52.5 28.5l4 -1q-24 -52 -55 -85t-58.5 -43.5t-51.5 -13.5t-38 1z" />
    <glyph glyph-name="uni007F" horiz-adv-x="0" 
 />
    <glyph glyph-name="uni00A0" unicode="&#xa0;" horiz-adv-x="280" 
 />
    <glyph glyph-name="exclamdown" unicode="&#xa1;" horiz-adv-x="358" 
d="M127 302h115l37 -477h-192zM88 472q0 40 28.5 68.5t68.5 28.5q39 0 67 -28.5t28 -68.5t-28 -68t-67 -28q-40 0 -68.5 28t-28.5 68z" />
    <glyph glyph-name="cent" unicode="&#xa2;" horiz-adv-x="582" 
d="M338 94v368q-68 -19 -68 -216q0 -117 68 -152zM376 384q12 29 38 40q9 3 1 16q-17 22 -68 22v-372q38 -20 89.5 -7t64.5 50l7 -3q0 -47 -44 -89t-117 -50v-109h-9v109q-115 0 -189.5 63.5t-74.5 178.5q0 106 66 171t198 67v122h9v-122q99 0 153 -61q13 -13 17 -34.5
t-2 -41.5q-10 -29 -38 -42t-57 -2q-29 10 -42 37.5t-2 56.5z" />
    <glyph glyph-name="sterling" unicode="&#xa3;" horiz-adv-x="705" 
d="M276 64q-62 40 -94 55q-56 19 -87.5 0t-28.5 -53q2 -23 15 -37.5t32 -20t30 -7t21 -1.5q36 0 66.5 19.5t45.5 44.5zM566 -2q-46 -13 -116.5 -3t-117.5 36q-74 -40 -167 -40q-8 0 -21 2t-35 8t-41.5 22.5t-28.5 40.5t-3.5 52.5t29 54t70.5 31t121 -16.5l31 -11
q-3 15 -53 104q-36 62 -51 85h-90v9h85q-36 80 -39.5 146t18.5 107.5t59 70t81.5 39t87.5 9t75 -15.5q77 -33 103 -94q8 -21 2 -47.5t-24 -44.5q-25 -26 -62.5 -26.5t-63.5 25.5q-27 26 -27.5 63t25.5 63q27 27 61 27q17 0 5 12q-10 10 -24 14q-115 29 -145 -41
q-37 -92 87 -307h131v-9h-125q12 -17 20 -34q31 -59 33 -117.5t-16 -85.5l26 -9q31 -10 59 -14.5t54.5 -3t42.5 16t16 41.5h11q6 -38 0 -68t-19.5 -46t-28 -27t-25.5 -14z" />
    <glyph glyph-name="currency" unicode="&#xa4;" horiz-adv-x="612" 
d="M545 345q0 -76 -44 -139l89 -88l-58 -59l-89 89q-61 -44 -139 -44q-77 0 -140 44l-88 -89l-58 59l88 88q-44 65 -44 139q0 76 44 140l-88 88l58 58l88 -88q63 44 140 44q78 0 139 -44l89 88l58 -58l-89 -88q44 -61 44 -140zM304 232q46 0 79.5 33t33.5 80t-33 80.5
t-80 33.5t-80.5 -33.5t-33.5 -80.5t33.5 -80t80.5 -33z" />
    <glyph glyph-name="yen" unicode="&#xa5;" horiz-adv-x="712" 
d="M440 704h290v-8q-48 0 -101 -51t-105 -154l-81 -163h157v-9h-157v-90h157v-9h-157v-107v-21.5v-19v-16.5t1 -14.5t2.5 -11t4 -9.5t6 -6.5t9 -4.5t12.5 -1v-9h-269v9q18 0 26.5 11.5t9.5 25t1 47.5v7v6v7v107h-142v9h142v47q-8 15 -24 43h-118v9h113l-166 290
q-31 53 -43.5 65t-33.5 14v7h301v-7q-29 0 -31 -9q-4 -15 48 -105l145 -248q51 99 79 160q10 21 15 52.5t2 66t-26.5 58.5t-66.5 24v8z" />
    <glyph glyph-name="brokenbar" unicode="&#xa6;" horiz-adv-x="251" 
d="M182 735v-375h-111v375h111zM182 186v-377h-111v377h111z" />
    <glyph glyph-name="section" unicode="&#xa7;" horiz-adv-x="587" 
d="M416 85q51 -36 74 -78t17 -103q-5 -48 -26 -82t-49.5 -48.5t-62 -23.5t-62.5 -6.5t-51 2.5q-37 3 -69 21t-45 35q-13 15 -15.5 37.5t5.5 41.5q14 29 43.5 39.5t58.5 -2.5q29 -14 39.5 -43t-2.5 -58q-14 -29 -41 -39q-7 -2 1 -11t26 -12q56 -4 90.5 22.5t39.5 73.5
q7 68 -83 124l-124 73q-52 32 -82.5 75.5t-36 88.5t24.5 89.5t95 75.5q-103 62 -91 181q5 48 26 82t49.5 49t61.5 24t62.5 7t51.5 -2q37 -3 68 -21.5t45 -36.5q13 -15 16 -37t-6 -42q-14 -29 -43.5 -39.5t-58.5 2.5q-29 14 -39.5 43t2.5 58q16 30 42 39q8 2 -2 13
q-9 11 -26 13q-56 4 -90 -23.5t-39 -75.5q-7 -68 83 -124l124 -73q69 -44 100.5 -103.5t7.5 -121.5t-109 -104zM261 187q18 -12 54.5 -35t63 -40.5t30.5 -20.5q18 16 27.5 31.5t12 28t-4.5 27t-12.5 23.5t-21.5 22t-24 19t-27 18t-23 15q-18 12 -54.5 35t-63 40.5
t-30.5 20.5q-18 -16 -27.5 -31.5t-12.5 -28t4 -27t12.5 -23t22.5 -22.5t24 -19t27 -18t23 -15z" />
    <glyph glyph-name="dieresis" unicode="&#xa8;" horiz-adv-x="374" 
d="M163 655q0 -29 -20.5 -50t-48.5 -21q-29 0 -50 21t-21 50q0 28 21 48.5t50 20.5q28 0 48.5 -20.5t20.5 -48.5zM351 655q0 -29 -20.5 -50t-48.5 -21q-29 0 -50 21t-21 50q0 28 21 48.5t50 20.5q28 0 48.5 -20.5t20.5 -48.5z" />
    <glyph glyph-name="copyright" unicode="&#xa9;" horiz-adv-x="815" 
d="M407 746q156 0 266.5 -110.5t110.5 -266.5t-110.5 -266.5t-266.5 -110.5q-157 0 -267 110.5t-110 266.5t110 266.5t267 110.5zM407 70q123 0 211 87.5t88 211.5t-88 212t-211 88q-124 0 -212 -88t-88 -212t88 -211.5t212 -87.5zM550 301h9l3 -114q-13 -9 -51.5 -17.5
t-81.5 -8.5q-95 0 -162 55.5t-67 148.5t67 149t162 56q102 0 133 -26l-3 -115h-9q-19 132 -121 132q-49 0 -69 -41t-20 -155q0 -113 20.5 -154t68.5 -41q39 0 73.5 28t47.5 103z" />
    <glyph glyph-name="ordfeminine" unicode="&#xaa;" horiz-adv-x="328" 
d="M155 510v72q-20 -4 -30 -15.5t-11.5 -21t-1.5 -26.5q0 -32 21 -32q12 0 22 23zM280 495l8 -3q-5 -18 -24.5 -28.5t-44.5 -10.5h-6t-14 2.5t-18 6.5t-15 12.5t-9 19.5q-13 -41 -72 -41q-23 0 -44.5 12t-21.5 42q0 36 27.5 50.5t108.5 33.5v34q0 41 -19 59t-47 4
q-12 -7 5 -12q13 -3 19 -19q6 -15 0 -29t-20 -20q-15 -5 -29 1t-20 20q-8 20 6 39q11 15 32 26q9 5 22 7.5t22 2.5l9 1q51 0 79 -28.5t28 -76.5v-78q0 -4 0.5 -10.5t7 -16.5t18.5 -10q9 1 12 10z" />
    <glyph glyph-name="guillemotleft" unicode="&#xab;" horiz-adv-x="721" 
d="M373 505v-49l-118 -190l118 -184v-49l-286 233zM632 505v-49l-117 -190l117 -184v-49l-286 233z" />
    <glyph glyph-name="logicalnot" unicode="&#xac;" horiz-adv-x="692" 
d="M41 418h606v-370h-123v248h-483v122z" />
    <glyph glyph-name="uni00AD" unicode="&#xad;" horiz-adv-x="444" 
d="M379 185h-315v138h315v-138z" />
    <glyph glyph-name="registered" unicode="&#xae;" horiz-adv-x="819" 
d="M408 746q156 0 266.5 -110.5t110.5 -266.5t-110.5 -266.5t-266.5 -110.5t-266.5 110.5t-110.5 266.5t110.5 266.5t266.5 110.5zM408 70q124 0 211.5 87.5t87.5 211.5t-87.5 212t-211.5 88t-211.5 -88t-87.5 -212t87.5 -211.5t211.5 -87.5zM376 362h30.5t19.5 3t14.5 7.5
t6.5 15.5t4.5 25t0.5 39q0 37 -2.5 56t-13 28.5t-21.5 11t-39 1.5h-17v-187h17zM571 250q7 -28 23.5 -43t29.5 -16v-9h-106q-28 0 -40.5 24.5t-22.5 98.5q-3 21 -20.5 33t-34.5 14l-16 1h-25v-106q0 -39 4 -47.5t21 -8.5v-9h-160v9q18 0 23 8.5t5 47.5v259q0 26 -5.5 37
t-22.5 11v4h152q45 0 77 -3.5t62.5 -14t46.5 -31.5t16 -53q0 -28 -12 -48.5t-32 -30.5t-39.5 -14t-41.5 -4q50 0 75 -20.5t43 -88.5z" />
    <glyph glyph-name="macron" unicode="&#xaf;" horiz-adv-x="360" 
d="M-16 671h393v-100h-393v100z" />
    <glyph glyph-name="degree" unicode="&#xb0;" horiz-adv-x="381" 
d="M187 737q54 0 92 -37.5t38 -92.5q0 -54 -38 -91t-92 -37t-92 37t-38 91q0 55 38 92.5t92 37.5zM250 606q0 26 -18 44t-44 18t-44 -18t-18 -44q0 -25 18 -43t44 -18t44 18t18 43z" />
    <glyph glyph-name="plusminus" unicode="&#xb1;" horiz-adv-x="608" 
d="M350 403h210v-101h-210v-157h-100v157h-209v101h209v132h100v-132zM41 0v100h519v-100h-519z" />
    <glyph glyph-name="twosuperior" unicode="&#xb2;" horiz-adv-x="280" 
d="M227 476h9l-27 -97h-181l91 122q57 84 19 121q-23 24 -58 12q-35 -11 -32 -45q0 -3 1 -6l-8 -4q-22 43 5 84t85 41q34 0 60.5 -25t26.5 -56q0 -24 -15 -50t-32.5 -43.5t-39.5 -37t-28 -27.5l-11 -15h94q27 0 41 26z" />
    <glyph glyph-name="threesuperior" unicode="&#xb3;" horiz-adv-x="289" 
d="M249 477q0 -101 -134 -101q-57 0 -79 39q-11 21 3 40q9 13 25.5 16t29.5 -6q13 -10 16 -25.5t-7 -28.5q-8 -14 -25 -17q-6 0 0 -6q12 -8 37 -8t36.5 24.5t4.5 63.5q-3 20 -8 33t-21 26t-42 13v4q28 5 41 24t10 39.5t-18 30.5q-15 11 -38.5 6.5t-26.5 -23.5l-4 -1
q-9 29 13.5 56.5t69.5 27.5q42 0 66.5 -28.5t17 -65.5t-48.5 -57q36 -1 59 -24t23 -52z" />
    <glyph glyph-name="acute" unicode="&#xb4;" horiz-adv-x="508" 
d="M87 558l224 163l162 -50l-304 -113h-82z" />
    <glyph glyph-name="mu" unicode="&#xb5;" horiz-adv-x="618" 
d="M546 89q0 -36 10 -48t42 -15v-9l-193 -25q-12 -2 -19 2.5t-8 10.5l-1 6v89q-11 -56 -53.5 -82.5t-77.5 -26.5v-157q0 -36 10 -48.5t42 -15.5v-8l-202 -26q-13 -2 -20 2.5t-8 10.5l-1 6v608v12q0 41 -6.5 52.5t-40.5 15.5v8l226 20v-323q0 -45 15.5 -64t58.5 -19
q21 0 36.5 18t20.5 47v233v12q0 41 -6.5 52.5t-40.5 15.5v8l216 20v-382z" />
    <glyph glyph-name="paragraph" unicode="&#xb6;" horiz-adv-x="796" 
d="M716 694q-36 0 -59 -43.5t-23 -98.5v-660q0 -62 20 -105t55 -43v-9h-195v969h202v-10zM303 704h120v-969h-255v9q22 0 42 5.5t42.5 19.5t36 45.5t13.5 77.5v362q-45 0 -80 4.5t-71.5 18.5t-60 38t-38.5 65t-15 97q0 225 265 227h1z" />
    <glyph glyph-name="periodcentered" unicode="&#xb7;" horiz-adv-x="290" 
d="M212 299q0 -27 -19.5 -46.5t-46.5 -19.5t-46.5 19.5t-19.5 46.5t19.5 46.5t46.5 19.5t46.5 -19.5t19.5 -46.5z" />
    <glyph glyph-name="cedilla" unicode="&#xb8;" horiz-adv-x="278" 
d="M128 -4h9l-22 -59q67 15 103.5 -12.5t31.5 -73.5q-9 -78 -113 -78q-44 0 -69 22q-16 13 -13 36q4 14 16.5 22t27.5 4q15 -3 23 -15.5t5 -26.5q-6 -18 -18 -22q-7 -4 4 -8q7 -3 19 -3q19 0 29 13.5t10 31.5q0 8 -3 18.5t-11.5 22.5t-27 18t-44.5 1z" />
    <glyph glyph-name="onesuperior" unicode="&#xb9;" horiz-adv-x="232" 
d="M162 425q0 -20 3 -28t14 -8v-9h-119v9q13 0 17 8.5t4 27.5v193q0 10 -4 14t-10 2.5t-12 -4t-10 -5.5l-4 -3l-7 8l86 74h42v-279z" />
    <glyph glyph-name="ordmasculine" unicode="&#xba;" horiz-adv-x="372" 
d="M183 707q73 0 111.5 -51t38.5 -120q0 -68 -38 -115.5t-112 -47.5q-73 0 -111 48t-38 115q0 69 38.5 120t110.5 51zM183 382q22 0 27 29.5t5 124.5q0 98 -5 130t-27 32t-27 -33t-5 -129q0 -94 5 -124t27 -30z" />
    <glyph glyph-name="guillemotright" unicode="&#xbb;" horiz-adv-x="719" 
d="M342 456v49l286 -239l-286 -233v49l118 184zM83 456v49l286 -239l-286 -233v49l117 184z" />
    <glyph glyph-name="onequarter" unicode="&#xbc;" horiz-adv-x="680" 
d="M576 713h100l-559 -676h-99zM192 426q0 -15 1 -22.5t5 -13t13 -5.5v-10h-136v10q15 0 19.5 9.5t4.5 31.5v220q0 11 -4.5 15.5t-11 3.5t-13.5 -4t-12 -7l-4 -3l-8 9l98 84h48v-318zM582 101h-43v-26q0 -48 3 -57t20 -9v-9h-139v9q16 0 19.5 9t3.5 54v29h-120v9l189 258
l24 -5v-226h43v-36zM446 137v123l-68 -94q-15 -27 -3 -29h71z" />
    <glyph glyph-name="onehalf" unicode="&#xbd;" horiz-adv-x="672" 
d="M621 116h4l-32 -116h-199l103 139q60 88 19 128q-25 26 -67 14q-38 -10 -40 -43v-6l-8 -5q-26 48 8.5 97.5t94.5 45.5q39 0 69 -25.5t30 -60.5q0 -28 -15.5 -59t-32 -50.5t-41 -45t-29.5 -31.5l-9 -12h93q35 0 52 30zM576 713h100l-559 -676h-99zM192 426q0 -15 1 -22.5
t5 -13t13 -5.5v-10h-136v10q15 0 19.5 9.5t4.5 31.5v220q0 11 -4.5 15.5t-11 3.5t-13.5 -4t-12 -7l-4 -3l-8 9l98 84h48v-318z" />
    <glyph glyph-name="threequarters" unicode="&#xbe;" horiz-adv-x="656" 
d="M576 713h100l-559 -676h-99zM582 101h-43v-26q0 -48 3 -57t20 -9v-9h-139v9q16 0 19.5 9t3.5 54v29h-120v9l189 258l24 -5v-226h43v-36zM446 137v123l-68 -94q-15 -27 -3 -29h71zM271 488q0 -115 -153 -115q-63 0 -90 44q-11 25 4 46q10 16 28.5 19t34.5 -8
q15 -11 18 -29t-8 -32q-10 -12 -24 -16q-8 -2 0 -8q9 -7 37 -7q29 0 42 26t5 70q-3 21 -8.5 36t-24 29.5t-48.5 14.5v9q32 6 47 27t11.5 43.5t-20.5 34.5q-17 13 -42 7.5t-28 -26.5l-9 -2q-10 34 15.5 65t79.5 31q48 0 76 -32.5t19.5 -74.5t-55.5 -65q41 -2 67 -28.5
t26 -58.5z" />
    <glyph glyph-name="questiondown" unicode="&#xbf;" horiz-adv-x="638" 
d="M101 -95q-2 51 13.5 93.5t42.5 68.5t52.5 41.5t50.5 21.5q106 28 100 104l9 1q0 -3 6 -24t7 -35t-6.5 -37.5t-27.5 -44.5q-59 -63 -46 -189q6 -70 53.5 -113.5t105.5 -20.5q28 11 32 37q0 15 -9 15q-29 -4 -57 19q-26 23 -28.5 57t18.5 60q22 25 56.5 27t60.5 -21
q31 -26 29 -79q1 -30 -26 -65.5t-71 -55.5q-59 -26 -123.5 -29t-116.5 15.5t-87 59t-38 94.5zM268 384q0 36 26 61.5t62 25.5t62 -25.5t26 -61.5q0 -37 -26 -62.5t-62 -25.5t-62 25.5t-26 62.5z" />
    <glyph glyph-name="Agrave" unicode="&#xc0;" horiz-adv-x="762" 
d="M341 898l224 -163h-82l-304 113zM382 203l-100 225l-89 -225h189zM181 194l202 510h5l270 -613q16 -37 35.5 -56.5t29 -22t25.5 -4.5v-8h-350v8q22 0 32.5 12t9 29t-6 34.5t-9.5 29.5l-6 12l-32 69h-196q-10 -17 -6.5 -48.5t13 -62t39.5 -53t72 -22.5v-8h-288v8
q16 1 28 6t33.5 21t47 56.5t52.5 102.5z" />
    <glyph glyph-name="Aacute" unicode="&#xc1;" horiz-adv-x="762" 
d="M209 735l224 163l162 -50l-304 -113h-82zM382 203l-100 225l-89 -225h189zM181 194l202 510h5l270 -613q16 -37 35.5 -56.5t29 -22t25.5 -4.5v-8h-350v8q22 0 32.5 12t9 29t-6 34.5t-9.5 29.5l-6 12l-32 69h-196q-10 -17 -6.5 -48.5t13 -62t39.5 -53t72 -22.5v-8h-288v8
q16 1 28 6t33.5 21t47 56.5t52.5 102.5z" />
    <glyph glyph-name="Acircumflex" unicode="&#xc2;" horiz-adv-x="762" 
d="M262 735h-41l165 193l165 -193h-41l-124 82zM382 203l-100 225l-89 -225h189zM181 194l202 510h5l270 -613q16 -37 35.5 -56.5t29 -22t25.5 -4.5v-8h-350v8q22 0 32.5 12t9 29t-6 34.5t-9.5 29.5l-6 12l-32 69h-196q-10 -17 -6.5 -48.5t13 -62t39.5 -53t72 -22.5v-8h-288
v8q16 1 28 6t33.5 21t47 56.5t52.5 102.5z" />
    <glyph glyph-name="Atilde" unicode="&#xc3;" horiz-adv-x="762" 
d="M436 773l-119 47q-21 8 -55.5 14t-74 0t-51.5 -31l-4 1q23 54 54 87t58.5 41.5t51.5 9t38 -5.5l14 -5l119 -46q21 -9 56 -15t74 0.5t52 31.5l4 -1q-24 -52 -55 -84t-58.5 -41t-51.5 -10.5t-38 2.5zM382 203l-100 225l-89 -225h189zM181 194l202 510h5l270 -613
q16 -37 35.5 -56.5t29 -22t25.5 -4.5v-8h-350v8q22 0 32.5 12t9 29t-6 34.5t-9.5 29.5l-6 12l-32 69h-196q-10 -17 -6.5 -48.5t13 -62t39.5 -53t72 -22.5v-8h-288v8q16 1 28 6t33.5 21t47 56.5t52.5 102.5z" />
    <glyph glyph-name="Adieresis" unicode="&#xc4;" horiz-adv-x="762" 
d="M358 833q0 -29 -20.5 -50t-48.5 -21q-29 0 -50 21t-21 50q0 28 21 48.5t50 20.5q28 0 48.5 -20.5t20.5 -48.5zM546 833q0 -29 -20.5 -50t-48.5 -21q-29 0 -50 21t-21 50q0 28 21 48.5t50 20.5q28 0 48.5 -20.5t20.5 -48.5zM382 203l-100 225l-89 -225h189zM181 194
l202 510h5l270 -613q16 -37 35.5 -56.5t29 -22t25.5 -4.5v-8h-350v8q22 0 32.5 12t9 29t-6 34.5t-9.5 29.5l-6 12l-32 69h-196q-10 -17 -6.5 -48.5t13 -62t39.5 -53t72 -22.5v-8h-288v8q16 1 28 6t33.5 21t47 56.5t52.5 102.5z" />
    <glyph glyph-name="Aring" unicode="&#xc5;" horiz-adv-x="762" 
d="M386 919q-16 0 -27.5 -11.5t-11.5 -27.5q0 -17 11.5 -28.5t27.5 -11.5t27.5 11.5t11.5 28.5q0 16 -11.5 27.5t-27.5 11.5zM386 980q43 0 73 -29t30 -71t-30 -72t-73 -30q-42 0 -72.5 30t-30.5 72t30.5 71t72.5 29zM382 203l-100 225l-89 -225h189zM181 194l202 510h5
l270 -613q16 -37 35.5 -56.5t29 -22t25.5 -4.5v-8h-350v8q22 0 32.5 12t9 29t-6 34.5t-9.5 29.5l-6 12l-32 69h-196q-10 -17 -6.5 -48.5t13 -62t39.5 -53t72 -22.5v-8h-288v8q16 1 28 6t33.5 21t47 56.5t52.5 102.5z" />
    <glyph glyph-name="AE" unicode="&#xc6;" horiz-adv-x="1056" 
d="M225 203h253v363q0 37 -5 61zM975 196h9v-196h-564v9q30 0 44 36t14 92v57h-258q-12 -18 -16.5 -48.5t0.5 -61.5t30 -53.5t67 -22.5v-8h-289v8q16 1 29.5 6t38 21t57 56t71.5 102l262 448q-14 55 -50 55v8h551v-205h-9q0 40 -15 72.5t-39 52.5t-53 34.5t-58.5 21
t-53.5 10.5t-39 4l-15 1h-16v-334h61q6 0 12.5 0.5t26 6.5t34 17t28.5 35t17 58h9v-245h-9q-3 34 -17 58.5t-28.5 35.5t-34 17.5t-26 7t-12.5 0.5h-61v-343h16h16.5t40 3t56.5 8.5t60 19t56.5 33t40 51.5t16.5 72z" />
    <glyph glyph-name="Ccedilla" unicode="&#xc7;" horiz-adv-x="733" 
d="M668 240l10 -202q-25 -17 -94.5 -32t-160.5 -15l-18 -49q67 15 103.5 -12.5t31.5 -73.5q-9 -78 -113 -78q-44 0 -69 22q-16 13 -13 36q4 14 16.5 22t27.5 4q15 -3 23 -15.5t5 -26.5q-6 -18 -18 -22q-7 -4 4 -8q7 -3 19 -3q19 0 29 13.5t10 31.5q0 8 -3 18.5t-11.5 22.5
t-27 18t-44.5 1l39 99q-158 9 -266 107t-108 254q0 109 57 193t148 126t199 42q88 0 150 -14.5t84 -31.5l-10 -202h-8q-11 73 -35.5 124t-57.5 74t-62 32t-61 9q-86 0 -122 -76t-36 -276q0 -136 17.5 -213.5t51 -108t89.5 -30.5q29 0 58.5 10t61.5 34.5t58 75t38 120.5h8z
" />
    <glyph glyph-name="Egrave" unicode="&#xc8;" horiz-adv-x="683" 
d="M277 898l224 -163h-82l-304 113zM602 196h9v-196h-584v9q30 0 44 36t14 92v429q0 54 -14 92t-44 38v8h571v-205h-9q0 55 -28 95t-68 58.5t-80.5 29t-68.5 12.5l-28 1h-36v-335h81q6 0 12.5 0.5t26 6.5t34 17t28.5 35.5t17 58.5h9v-245h-9q-3 34 -17 58.5t-28.5 35.5
t-34 17t-26.5 6.5t-12 0.5h-81v-342h36q1 2 16 0t41 2.5t56 9t60.5 19t55.5 33t41 51t16 72.5z" />
    <glyph glyph-name="Eacute" unicode="&#xc9;" horiz-adv-x="683" 
d="M127 735l224 163l162 -50l-304 -113h-82zM602 196h9v-196h-584v9q30 0 44 36t14 92v429q0 54 -14 92t-44 38v8h571v-205h-9q0 55 -28 95t-68 58.5t-80.5 29t-68.5 12.5l-28 1h-36v-335h81q6 0 12.5 0.5t26 6.5t34 17t28.5 35.5t17 58.5h9v-245h-9q-3 34 -17 58.5
t-28.5 35.5t-34 17t-26.5 6.5t-12 0.5h-81v-342h36q1 2 16 0t41 2.5t56 9t60.5 19t55.5 33t41 51t16 72.5z" />
    <glyph glyph-name="Ecircumflex" unicode="&#xca;" horiz-adv-x="683" 
d="M189 735h-41l165 193l165 -193h-41l-124 82zM602 196h9v-196h-584v9q30 0 44 36t14 92v429q0 54 -14 92t-44 38v8h571v-205h-9q0 55 -28 95t-68 58.5t-80.5 29t-68.5 12.5l-28 1h-36v-335h81q6 0 12.5 0.5t26 6.5t34 17t28.5 35.5t17 58.5h9v-245h-9q-3 34 -17 58.5
t-28.5 35.5t-34 17t-26.5 6.5t-12 0.5h-81v-342h36q1 2 16 0t41 2.5t56 9t60.5 19t55.5 33t41 51t16 72.5z" />
    <glyph glyph-name="Edieresis" unicode="&#xcb;" horiz-adv-x="683" 
d="M301 833q0 -29 -20.5 -50t-48.5 -21q-29 0 -50 21t-21 50q0 28 21 48.5t50 20.5q28 0 48.5 -20.5t20.5 -48.5zM489 833q0 -29 -20.5 -50t-48.5 -21q-29 0 -50 21t-21 50q0 28 21 48.5t50 20.5q28 0 48.5 -20.5t20.5 -48.5zM602 196h9v-196h-584v9q30 0 44 36t14 92v429
q0 54 -14 92t-44 38v8h571v-205h-9q0 55 -28 95t-68 58.5t-80.5 29t-68.5 12.5l-28 1h-36v-335h81q6 0 12.5 0.5t26 6.5t34 17t28.5 35.5t17 58.5h9v-245h-9q-3 34 -17 58.5t-28.5 35.5t-34 17t-26.5 6.5t-12 0.5h-81v-342h36q1 2 16 0t41 2.5t56 9t60.5 19t55.5 33t41 51
t16 72.5z" />
    <glyph glyph-name="Igrave" unicode="&#xcc;" horiz-adv-x="405" 
d="M39 704h330v-8q-19 0 -28.5 -1.5t-19.5 -9.5t-13.5 -27t-3.5 -51v-494q0 -66 15 -85t50 -19v-9h-330v9q35 0 50 19t15 85v494q0 61 -13.5 75t-51.5 14v8zM159 898l224 -163h-82l-304 113z" />
    <glyph glyph-name="Iacute" unicode="&#xcd;" horiz-adv-x="405" 
d="M39 704h330v-8q-19 0 -28.5 -1.5t-19.5 -9.5t-13.5 -27t-3.5 -51v-494q0 -66 15 -85t50 -19v-9h-330v9q35 0 50 19t15 85v494q0 61 -13.5 75t-51.5 14v8zM29 735l224 163l162 -50l-304 -113h-82z" />
    <glyph glyph-name="Icircumflex" unicode="&#xce;" horiz-adv-x="405" 
d="M39 704h330v-8q-19 0 -28.5 -1.5t-19.5 -9.5t-13.5 -27t-3.5 -51v-494q0 -66 15 -85t50 -19v-9h-330v9q35 0 50 19t15 85v494q0 61 -13.5 75t-51.5 14v8zM80 735h-41l165 193l165 -193h-41l-124 82z" />
    <glyph glyph-name="Idieresis" unicode="&#xcf;" horiz-adv-x="405" 
d="M39 704h330v-8q-19 0 -28.5 -1.5t-19.5 -9.5t-13.5 -27t-3.5 -51v-494q0 -66 15 -85t50 -19v-9h-330v9q35 0 50 19t15 85v494q0 61 -13.5 75t-51.5 14v8zM179 833q0 -29 -20.5 -50t-48.5 -21q-29 0 -50 21t-21 50q0 28 21 48.5t50 20.5q28 0 48.5 -20.5t20.5 -48.5z
M367 833q0 -29 -20.5 -50t-48.5 -21q-29 0 -50 21t-21 50q0 28 21 48.5t50 20.5q28 0 48.5 -20.5t20.5 -48.5z" />
    <glyph glyph-name="Eth" unicode="&#xd0;" horiz-adv-x="823" 
d="M340 704q65 0 122 -8.5t116 -32.5t101 -62t68.5 -102.5t26.5 -149.5q0 -71 -18 -127t-51 -93.5t-73 -63.5t-91.5 -39.5t-99 -19.5t-101.5 -6h-296v9q30 0 44.5 36t14.5 92v212h-82v9h82v208q0 53 -14.5 91t-44.5 38v9h296zM340 9q42 0 65 4t49.5 22t39 53.5t21 100
t8.5 160.5q0 95 -8 159t-20.5 101t-37.5 56t-50 24.5t-67 5.5h-44v-337h131v-9h-131v-340h44z" />
    <glyph glyph-name="Ntilde" unicode="&#xd1;" horiz-adv-x="840" 
d="M470 773l-119 47q-21 8 -55.5 14t-74 0t-51.5 -31l-4 1q23 54 54 87t58.5 41.5t51.5 9t38 -5.5l14 -5l119 -46q21 -9 56 -15t74 0.5t52 31.5l4 -1q-24 -52 -55 -84t-58.5 -41t-51.5 -10.5t-38 2.5zM676 0h-110l-377 537v-312q0 -32 1.5 -54t10 -55.5t23.5 -54.5
t44.5 -36.5t71.5 -15.5v-9h-318v9q49 0 82.5 21.5t48.5 58t21 68.5t6 68v324l-47 67q-21 28 -40 45.5t-37 24t-25 8t-23 2.5v8h319l340 -491v267q0 52 -11.5 98t-45.5 82t-86 36v8h303v-8q-44 0 -75.5 -20t-47 -54t-22 -68.5t-6.5 -73.5v-480z" />
    <glyph glyph-name="Ograve" unicode="&#xd2;" horiz-adv-x="812" 
d="M406 0q30 0 50 5.5t34 24.5t21.5 39t11 67t4.5 88.5t1 122.5q0 60 -0.5 94.5t-2 76t-5 63.5t-9.5 47t-14.5 36t-21.5 22t-30 14.5t-39 3.5q-30 0 -50.5 -6.5t-34.5 -26.5t-21.5 -41.5t-11.5 -69t-5 -90.5t-1 -123t1 -122.5t5 -88.5t11.5 -66.5t21.5 -39.5t34.5 -24.5
t50.5 -5.5zM406 713q161 0 263 -106.5t102 -259.5q0 -152 -101.5 -254t-263.5 -102t-263.5 102t-101.5 254q0 153 102 259.5t263 106.5zM367 898l224 -163h-82l-304 113z" />
    <glyph glyph-name="Oacute" unicode="&#xd3;" horiz-adv-x="812" 
d="M406 0q30 0 50 5.5t34 24.5t21.5 39t11 67t4.5 88.5t1 122.5q0 60 -0.5 94.5t-2 76t-5 63.5t-9.5 47t-14.5 36t-21.5 22t-30 14.5t-39 3.5q-30 0 -50.5 -6.5t-34.5 -26.5t-21.5 -41.5t-11.5 -69t-5 -90.5t-1 -123t1 -122.5t5 -88.5t11.5 -66.5t21.5 -39.5t34.5 -24.5
t50.5 -5.5zM406 713q161 0 263 -106.5t102 -259.5q0 -152 -101.5 -253.5t-263.5 -101.5t-263.5 101.5t-101.5 253.5q0 153 102 259.5t263 106.5zM207 735l224 163l162 -50l-304 -113h-82z" />
    <glyph glyph-name="Ocircumflex" unicode="&#xd4;" horiz-adv-x="812" 
d="M406 0q30 0 50 5.5t34 24.5t21.5 39t11 67t4.5 88.5t1 122.5q0 60 -0.5 94.5t-2 76t-5 63.5t-9.5 47t-14.5 36t-21.5 22t-30 14.5t-39 3.5q-30 0 -50.5 -6.5t-34.5 -26.5t-21.5 -41.5t-11.5 -69t-5 -90.5t-1 -123t1 -122.5t5 -88.5t11.5 -66.5t21.5 -39.5t34.5 -24.5
t50.5 -5.5zM406 713q161 0 263 -106.5t102 -259.5q0 -152 -101.5 -253.5t-263.5 -101.5t-263.5 101.5t-101.5 253.5q0 153 102 259.5t263 106.5zM282 735h-41l165 193l165 -193h-41l-124 82z" />
    <glyph glyph-name="Otilde" unicode="&#xd5;" horiz-adv-x="812" 
d="M406 0q30 0 50 5.5t34 24.5t21.5 39t11 67t4.5 88.5t1 122.5q0 60 -0.5 94.5t-2 76t-5 63.5t-9.5 47t-14.5 36t-21.5 22t-30 14.5t-39 3.5q-30 0 -50.5 -6.5t-34.5 -26.5t-21.5 -41.5t-11.5 -69t-5 -90.5t-1 -123t1 -122.5t5 -88.5t11.5 -66.5t21.5 -39.5t34.5 -24.5
t50.5 -5.5zM406 713q161 0 263 -106.5t102 -259.5q0 -152 -101.5 -254t-263.5 -102t-263.5 102t-101.5 254q0 153 102 259.5t263 106.5zM456 773l-119 47q-21 8 -55.5 14t-74 0t-51.5 -31l-4 1q23 54 54 87t58.5 41.5t51.5 9t38 -5.5l14 -5l119 -46q21 -9 56 -15t74 0.5
t52 31.5l4 -1q-24 -52 -55 -84t-58.5 -41t-51.5 -10.5t-38 2.5z" />
    <glyph glyph-name="Odieresis" unicode="&#xd6;" horiz-adv-x="812" 
d="M406 0q30 0 50 5.5t34 24.5t21.5 39t11 67t4.5 88.5t1 122.5q0 60 -0.5 94.5t-2 76t-5 63.5t-9.5 47t-14.5 36t-21.5 22t-30 14.5t-39 3.5q-30 0 -50.5 -6.5t-34.5 -26.5t-21.5 -41.5t-11.5 -69t-5 -90.5t-1 -123t1 -122.5t5 -88.5t11.5 -66.5t21.5 -39.5t34.5 -24.5
t50.5 -5.5zM406 713q161 0 263 -106.5t102 -259.5q0 -152 -101.5 -253.5t-263.5 -101.5t-263.5 101.5t-101.5 253.5q0 153 102 259.5t263 106.5zM382 833q0 -29 -20.5 -50t-48.5 -21q-29 0 -50 21t-21 50q0 28 21 48.5t50 20.5q28 0 48.5 -20.5t20.5 -48.5zM570 833
q0 -29 -20.5 -50t-48.5 -21q-29 0 -50 21t-21 50q0 28 21 48.5t50 20.5q28 0 48.5 -20.5t20.5 -48.5z" />
    <glyph glyph-name="multiply" unicode="&#xd7;" horiz-adv-x="672" 
d="M615 432l-178 -178l178 -177l-99 -101l-179 178l-178 -178l-100 100l178 178l-178 178l100 101l178 -178l179 178z" />
    <glyph glyph-name="Oslash" unicode="&#xd8;" horiz-adv-x="813" 
d="M588 669q85 -47 134.5 -133.5t49.5 -188.5q0 -152 -101.5 -254t-263.5 -102q-95 0 -174 38l-35 -64h-11l38 68q-86 44 -134.5 127.5t-48.5 186.5q0 153 102 259.5t263 106.5q96 0 173 -40l40 72h10zM283 347q0 -152 4 -201l235 426q-8 73 -33 102.5t-82 29.5
q-30 0 -50.5 -6.5t-34.5 -26.5t-21.5 -41.5t-11.5 -69t-5 -90.5t-1 -123zM407 0q30 0 50 5.5t34 24.5t21.5 39t11 67t4.5 88.5t1 122.5q0 142 -5 207l-235 -425q8 -73 33.5 -101t84.5 -28z" />
    <glyph glyph-name="Ugrave" unicode="&#xd9;" horiz-adv-x="736" 
d="M530 67q-35 -36 -92.5 -56t-117.5 -20q-71 0 -130 24t-98.5 78.5t-39.5 132.5v381v14q0 31 -1.5 43.5t-10 21.5t-28.5 9v9h286v-9q-29 0 -35 -13.5t-6 -65.5v-9v-388q0 -86 41.5 -127t115.5 -41q59 0 108 36q21 16 34.5 49t15.5 58l3 25v260q0 34 -6 69t-18.5 69.5
t-37.5 56t-59 21.5v9h262l1 -9q-40 0 -68 -21.5t-41 -56.5t-18.5 -68.5t-5.5 -69.5v-260q0 -95 -54 -152zM332 898l224 -163h-82l-304 113z" />
    <glyph glyph-name="Uacute" unicode="&#xda;" horiz-adv-x="736" 
d="M530 67q-35 -36 -92.5 -56t-117.5 -20q-71 0 -130 24t-98.5 78.5t-39.5 132.5v381v14q0 31 -1.5 43.5t-10 21.5t-28.5 9v9h286v-9q-29 0 -35 -13.5t-6 -65.5v-9v-388q0 -86 41.5 -127t115.5 -41q59 0 108 36q21 16 34.5 49t15.5 58l3 25v260q0 34 -6 69t-18.5 69.5
t-37.5 56t-59 21.5v9h262l1 -9q-40 0 -68 -21.5t-41 -56.5t-18.5 -68.5t-5.5 -69.5v-260q0 -95 -54 -152zM214 735l224 163l162 -50l-304 -113h-82z" />
    <glyph glyph-name="Ucircumflex" unicode="&#xdb;" horiz-adv-x="736" 
d="M530 67q-35 -36 -92.5 -56t-117.5 -20q-71 0 -130 24t-98.5 78.5t-39.5 132.5v381v14q0 31 -1.5 43.5t-10 21.5t-28.5 9v9h286v-9q-29 0 -35 -13.5t-6 -65.5v-9v-388q0 -86 41.5 -127t115.5 -41q59 0 108 36q21 16 34.5 49t15.5 58l3 25v260q0 34 -6 69t-18.5 69.5
t-37.5 56t-59 21.5v9h262l1 -9q-40 0 -68 -21.5t-41 -56.5t-18.5 -68.5t-5.5 -69.5v-260q0 -95 -54 -152zM234 735h-41l165 193l165 -193h-41l-124 82z" />
    <glyph glyph-name="Udieresis" unicode="&#xdc;" horiz-adv-x="736" 
d="M335 833q0 -29 -20.5 -50t-48.5 -21q-29 0 -50 21t-21 50q0 28 21 48.5t50 20.5q28 0 48.5 -20.5t20.5 -48.5zM523 833q0 -29 -20.5 -50t-48.5 -21q-29 0 -50 21t-21 50q0 28 21 48.5t50 20.5q28 0 48.5 -20.5t20.5 -48.5zM530 67q-35 -36 -92.5 -56t-117.5 -20
q-71 0 -130 24t-98.5 78.5t-39.5 132.5v381v14q0 31 -1.5 43.5t-10 21.5t-28.5 9v9h286v-9q-29 0 -35 -13.5t-6 -65.5v-9v-388q0 -86 41.5 -127t115.5 -41q59 0 108 36q21 16 34.5 49t15.5 58l3 25v260q0 34 -6 69t-18.5 69.5t-37.5 56t-59 21.5v9h262l1 -9q-40 0 -68 -21.5
t-41 -56.5t-18.5 -68.5t-5.5 -69.5v-260q0 -95 -54 -152z" />
    <glyph glyph-name="Yacute" unicode="&#xdd;" horiz-adv-x="777" 
d="M473 335q50 99 78 160q10 21 15 52.5t2 66t-26.5 58.5t-66.5 24v8h290v-8q-103 0 -206 -205l-81 -164v-214v-21.5v-19v-16.5t1 -14.5t2.5 -11t4 -9.5t6 -6.5t9 -4.5t12.5 -1v-9h-269v9q18 0 26.5 11.5t9.5 25t1 47.5v7v6v7v163l-195 342q-31 53 -43.5 65t-33.5 14v7h301
v-7q-29 0 -32 -9q-4 -15 49 -105zM230 735l224 163l162 -50l-304 -113h-82z" />
    <glyph glyph-name="Thorn" unicode="&#xde;" horiz-adv-x="730" 
d="M293 574v-383h4h40t31 1.5t26.5 3.5t19.5 7.5t15.5 11.5t10.5 17.5t8 24t3.5 32t3 41t0.5 51.5q0 98 -13.5 137.5t-38 47.5t-93.5 8h-17zM293 182v-69q0 -66 15 -85t50 -19v-9h-331v9q36 0 50.5 19t14.5 85v494q0 33 -3 51.5t-13.5 26t-19 9t-29.5 1.5v9h331v-9
q-21 0 -29 -1.5t-18.5 -9t-14 -26t-3.5 -51.5v-24q49 0 85 -1t80 -6t74.5 -13t61.5 -23t50 -36t31 -52.5t12 -70.5q0 -45 -14.5 -79t-44.5 -55.5t-62.5 -35t-82.5 -19.5t-91 -8t-99 -2z" />
    <glyph glyph-name="germandbls" unicode="&#xdf;" horiz-adv-x="761" 
d="M440 420q34 0 66.5 -3.5t76 -17t75.5 -36t54.5 -65.5t22.5 -100q0 -63 -19 -104.5t-58.5 -63.5t-89.5 -30.5t-123 -8.5q-65 0 -89 33q-29 31 -19 74q8 27 33 40.5t52 4.5q26 -8 39.5 -32.5t5.5 -50.5q-8 -29 -30 -40q-6 -2 -11 -6.5t-1.5 -9t20.5 -4.5q40 0 57 42t17 143
q0 226 -170 226v9q43 0 63 34t20 128q0 44 -5 75.5t-11.5 47t-17 23.5t-16 9t-14.5 1q-36 0 -55 -41.5t-21 -82.5l-1 -42v-572h-263v8q24 0 40.5 26.5t16.5 78.5v375q0 73 23 125.5t64.5 80.5t89 40.5t106.5 12.5q40 0 72 -3t70 -13t63 -28t42 -50.5t17 -76.5
q0 -43 -19 -74.5t-42.5 -46.5t-55 -24t-47 -10t-28.5 -1z" />
    <glyph glyph-name="agrave" unicode="&#xe0;" horiz-adv-x="567" 
d="M300 90v154q-24 -5 -40 -16t-24 -22t-12 -29.5t-4.5 -28.5t-0.5 -30v-7.5t2 -15.5t6 -20t12 -16t19 -7q25 0 42 38zM544 69l6 -5q-10 -33 -46 -53t-83 -20q-5 0 -12.5 0.5t-27 5.5t-35 13.5t-29 27t-16.5 43.5q-10 -40 -46.5 -65t-88.5 -25q-25 0 -50.5 7t-50 31.5
t-24.5 63.5q0 21 6 38t13.5 30t27.5 24.5t34.5 19t49 17t57 15t71.5 17.5v64q0 78 -38 114.5t-90 9.5q-1 -1 -2 -1.5t-3 -3.5t-2 -6t4.5 -7t14.5 -7q23 -8 36 -38q11 -28 0 -54.5t-39 -38.5q-27 -11 -54 0.5t-38 38.5q-17 44 12 74q27 30 67 51q20 11 43.5 16t36.5 5h14
q96 0 150 -55t54 -145v-149q0 -3 0.5 -8t3 -17t7 -21.5t14.5 -17t23 -6.5q25 0 30 17zM256 704l224 -163h-82l-304 113z" />
    <glyph glyph-name="aacute" unicode="&#xe1;" horiz-adv-x="567" 
d="M300 90v154q-24 -5 -40 -16t-24 -22t-12 -29.5t-4.5 -28.5t-0.5 -30v-7.5t2 -15.5t6 -20t12 -16t19 -7q25 0 42 38zM544 69l6 -5q-10 -33 -46 -53t-83 -20q-5 0 -12.5 0.5t-27 5.5t-35 13.5t-29 27t-16.5 43.5q-10 -40 -46.5 -65t-88.5 -25q-25 0 -50.5 7t-50 31.5
t-24.5 63.5q0 21 6 38t13.5 30t27.5 24.5t34.5 19t49 17t57 15t71.5 17.5v64q0 78 -38 114.5t-90 9.5q-1 -1 -2 -1.5t-3 -3.5t-2 -6t4.5 -7t14.5 -7q23 -8 36 -38q11 -28 0 -54.5t-39 -38.5q-27 -11 -54 0.5t-38 38.5q-17 44 12 74q27 30 67 51q20 11 43.5 16t36.5 5h14
q96 0 150 -55t54 -145v-149q0 -3 0.5 -8t3 -17t7 -21.5t14.5 -17t23 -6.5q25 0 30 17zM135 541l224 163l162 -50l-304 -113h-82z" />
    <glyph glyph-name="acircumflex" unicode="&#xe2;" horiz-adv-x="567" 
d="M300 90v154q-24 -5 -40 -16t-24 -22t-12 -29.5t-4.5 -28.5t-0.5 -30v-7.5t2 -15.5t6 -20t12 -16t19 -7q25 0 42 38zM544 69l6 -5q-10 -33 -46 -53t-83 -20q-5 0 -12.5 0.5t-27 5.5t-35 13.5t-29 27t-16.5 43.5q-10 -40 -46.5 -65t-88.5 -25q-25 0 -50.5 7t-50 31.5
t-24.5 63.5q0 21 6 38t13.5 30t27.5 24.5t34.5 19t49 17t57 15t71.5 17.5v64q0 78 -38 114.5t-90 9.5q-1 -1 -2 -1.5t-3 -3.5t-2 -6t4.5 -7t14.5 -7q23 -8 36 -38q11 -28 0 -54.5t-39 -38.5q-27 -11 -54 0.5t-38 38.5q-17 44 12 74q27 30 67 51q20 11 43.5 16t36.5 5h14
q96 0 150 -55t54 -145v-149q0 -3 0.5 -8t3 -17t7 -21.5t14.5 -17t23 -6.5q25 0 30 17zM175 512h-41l165 193l165 -193h-41l-124 82z" />
    <glyph glyph-name="atilde" unicode="&#xe3;" horiz-adv-x="567" 
d="M338 522l-119 47q-21 8 -55.5 14t-74 0t-51.5 -31l-4 1q23 54 54 87t58.5 41.5t51.5 9t38 -4.5l14 -6l119 -46q21 -9 56 -15t74 0.5t52 31.5l4 -1q-24 -52 -55 -84t-58.5 -41t-51.5 -10.5t-38 3.5zM300 90v154q-24 -5 -40 -16t-24 -22t-12 -29.5t-4.5 -28.5t-0.5 -30
v-7.5t2 -15.5t6 -20t12 -16t19 -7q25 0 42 38zM544 69l6 -5q-10 -33 -46 -53t-83 -20q-5 0 -12.5 0.5t-27 5.5t-35 13.5t-29 27t-16.5 43.5q-10 -40 -46.5 -65t-88.5 -25q-25 0 -50.5 7t-50 31.5t-24.5 63.5q0 21 6 38t13.5 30t27.5 24.5t34.5 19t49 17t57 15t71.5 17.5v64
q0 78 -38 114.5t-90 9.5q-1 -1 -2 -1.5t-3 -3.5t-2 -6t4.5 -7t14.5 -7q23 -8 36 -38q11 -28 0 -54.5t-39 -38.5q-27 -11 -54 0.5t-38 38.5q-17 44 12 74q27 30 67 51q20 11 43.5 16t36.5 5h14q96 0 150 -55t54 -145v-149q0 -3 0.5 -8t3 -17t7 -21.5t14.5 -17t23 -6.5
q25 0 30 17z" />
    <glyph glyph-name="adieresis" unicode="&#xe4;" horiz-adv-x="567" 
d="M267 609q0 -29 -20.5 -50t-48.5 -21q-29 0 -50 21t-21 50q0 28 21 48.5t50 20.5q28 0 48.5 -20.5t20.5 -48.5zM455 609q0 -29 -20.5 -50t-48.5 -21q-29 0 -50 21t-21 50q0 28 21 48.5t50 20.5q28 0 48.5 -20.5t20.5 -48.5zM300 90v154q-24 -5 -40 -16t-24 -22t-12 -29.5
t-4.5 -28.5t-0.5 -30v-7.5t2 -15.5t6 -20t12 -16t19 -7q25 0 42 38zM544 69l6 -5q-10 -33 -46 -53t-83 -20q-5 0 -12.5 0.5t-27 5.5t-35 13.5t-29 27t-16.5 43.5q-10 -40 -46.5 -65t-88.5 -25q-25 0 -50.5 7t-50 31.5t-24.5 63.5q0 21 6 38t13.5 30t27.5 24.5t34.5 19t49 17
t57 15t71.5 17.5v64q0 78 -38 114.5t-90 9.5q-1 -1 -2 -1.5t-3 -3.5t-2 -6t4.5 -7t14.5 -7q23 -8 36 -38q11 -28 0 -54.5t-39 -38.5q-27 -11 -54 0.5t-38 38.5q-17 44 12 74q27 30 67 51q20 11 43.5 16t36.5 5h14q96 0 150 -55t54 -145v-149q0 -3 0.5 -8t3 -17t7 -21.5
t14.5 -17t23 -6.5q25 0 30 17z" />
    <glyph glyph-name="aring" unicode="&#xe5;" horiz-adv-x="567" 
d="M296 677q-16 0 -27.5 -11.5t-11.5 -27.5q0 -17 11.5 -28.5t27.5 -11.5t27.5 11.5t11.5 28.5q0 16 -11.5 27.5t-27.5 11.5zM296 741q43 0 73 -30t30 -73q0 -42 -30 -72t-73 -30q-42 0 -72.5 30t-30.5 72q0 43 30.5 73t72.5 30zM300 90v154q-24 -5 -40 -16t-24 -22
t-12 -29.5t-4.5 -28.5t-0.5 -30v-7.5t2 -15.5t6 -20t12 -16t19 -7q25 0 42 38zM544 69l6 -5q-10 -33 -46 -53t-83 -20q-5 0 -12.5 0.5t-27 5.5t-35 13.5t-29 27t-16.5 43.5q-10 -40 -46.5 -65t-88.5 -25q-25 0 -50.5 7t-50 31.5t-24.5 63.5q0 21 6 38t13.5 30t27.5 24.5
t34.5 19t49 17t57 15t71.5 17.5v64q0 78 -38 114.5t-90 9.5q-1 -1 -2 -1.5t-3 -3.5t-2 -6t4.5 -7t14.5 -7q23 -8 36 -38q11 -28 0 -54.5t-39 -38.5q-27 -11 -54 0.5t-38 38.5q-17 44 12 74q27 30 67 51q20 11 43.5 16t36.5 5h14q96 0 150 -55t54 -145v-149q0 -3 0.5 -8
t3 -17t7 -21.5t14.5 -17t23 -6.5q25 0 30 17z" />
    <glyph glyph-name="ae" unicode="&#xe6;" horiz-adv-x="728" 
d="M445 250h96v45q1 48 0 70.5t-4 49.5t-11.5 37t-22.5 10t-24.5 -8t-16.5 -26.5t-10 -34t-5.5 -46.5t-1.5 -46.5v-50.5zM299 91q-20 37 -20 77v75q-81 -21 -81 -126v-7.5t2.5 -15.5t6 -20t11.5 -16t19 -7q37 0 62 40zM667 141h9q-4 -63 -49.5 -106.5t-133.5 -43.5
q-55 0 -106.5 22.5t-81.5 67.5q-17 -38 -59.5 -64t-100.5 -26q-4 0 -11.5 0.5t-26.5 6t-33 15t-26 30.5t-12 50q0 71 50 100t193 60v64q0 79 -34.5 115.5t-85.5 9.5q-1 -1 -2 -1.5t-3.5 -3.5t-2 -6t4.5 -7t13 -8q23 -10 36 -38q11 -28 0 -54.5t-39 -38.5q-27 -11 -54 0.5
t-38 38.5q-17 44 12 74q28 30 67 51q20 11 41 16.5t32 5.5h12q73 0 134 -43q64 43 127 43q89 0 138 -49.5t49 -180.5h-241q0 -110 23.5 -153.5t80.5 -52.5q43 -6 78 23.5t40 82.5z" />
    <glyph glyph-name="ccedilla" unicode="&#xe7;" horiz-adv-x="529" 
d="M318 471q99 0 153 -61q13 -13 17 -34.5t-2 -41.5q-10 -29 -38 -42t-57 -2q-29 10 -42 37.5t-2 56.5q12 29 38 40q10 3 -1 17q-17 21 -61 21q-82 0 -82 -216q0 -81 33.5 -123.5t96.5 -42.5q79 0 101 53l7 -3q0 -52 -53 -95.5t-141 -43.5h-11l-18 -50q67 15 103.5 -12.5
t31.5 -73.5q-9 -78 -113 -78q-44 0 -69 22q-16 13 -13 36q4 14 16.5 22t27.5 4q15 -3 23 -15.5t5 -26.5q-6 -18 -18 -22q-7 -4 4 -8q7 -3 19 -3q19 0 29 13.5t10 31.5q0 8 -3 18.5t-11.5 22.5t-27 18t-44.5 1l39 101q-93 7 -156.5 74.5t-63.5 166.5q0 108 68.5 173t204.5 65
z" />
    <glyph glyph-name="egrave" unicode="&#xe8;" horiz-adv-x="537" 
d="M289 471q43 0 77.5 -10t65 -34t47.5 -71t17 -115h-272q0 -106 29 -150t86 -57q41 -9 82 17.5t55 86.5l9 -2q-11 -60 -66.5 -102.5t-144.5 -42.5q-99 0 -168 69t-69 170q0 61 22 109t58.5 76t80 42t91.5 14zM224 250h127q0 212 -58 212q-32 0 -50.5 -66t-18.5 -146z
M237 704l224 -163h-82l-304 113z" />
    <glyph glyph-name="eacute" unicode="&#xe9;" horiz-adv-x="537" 
d="M289 471q43 0 77.5 -10t65 -34t47.5 -71t17 -115h-272q0 -106 29 -150t86 -57q41 -9 82 17.5t55 86.5l9 -2q-11 -60 -66.5 -102.5t-144.5 -42.5q-99 0 -168 69t-69 170q0 61 22 109t58.5 76t80 42t91.5 14zM224 250h127q0 212 -58 212q-32 0 -50.5 -66t-18.5 -146z
M111 541l224 163l162 -50l-304 -113h-82z" />
    <glyph glyph-name="ecircumflex" unicode="&#xea;" horiz-adv-x="537" 
d="M289 471q43 0 77.5 -10t65 -34t47.5 -71t17 -115h-272q0 -106 29 -150t86 -57q41 -9 82 17.5t55 86.5l9 -2q-11 -60 -66.5 -102.5t-144.5 -42.5q-99 0 -168 69t-69 170q0 61 22 109t58.5 76t80 42t91.5 14zM224 250h127q0 212 -58 212q-32 0 -50.5 -66t-18.5 -146z
M158 512h-41l165 193l165 -193h-41l-124 82z" />
    <glyph glyph-name="edieresis" unicode="&#xeb;" horiz-adv-x="537" 
d="M253 609q0 -29 -20.5 -50t-48.5 -21q-29 0 -50 21t-21 50q0 28 21 48.5t50 20.5q28 0 48.5 -20.5t20.5 -48.5zM441 609q0 -29 -20.5 -50t-48.5 -21q-29 0 -50 21t-21 50q0 28 21 48.5t50 20.5q28 0 48.5 -20.5t20.5 -48.5zM289 471q43 0 77.5 -10t65 -34t47.5 -71
t17 -115h-272q0 -106 29 -150t86 -57q41 -9 82 17.5t55 86.5l9 -2q-11 -60 -66.5 -102.5t-144.5 -42.5q-99 0 -168 69t-69 170q0 61 22 109t58.5 76t80 42t91.5 14zM224 250h127q0 212 -58 212q-32 0 -50.5 -66t-18.5 -146z" />
    <glyph glyph-name="igrave" unicode="&#xec;" horiz-adv-x="326" 
d="M248 113q0 -47 8 -72.5t33 -32.5v-8h-250v8q26 7 32.5 32t6.5 73v244q0 26 -10.5 39.5t-41.5 24.5v8l222 42v-358zM99 704l224 -163h-82l-304 113z" />
    <glyph glyph-name="iacute" unicode="&#xed;" horiz-adv-x="326" 
d="M248 113q0 -47 8 -72.5t33 -32.5v-8h-250v8q26 7 32.5 32t6.5 73v244q0 26 -10.5 39.5t-41.5 24.5v8l222 42v-358zM-11 541l224 163l162 -50l-304 -113h-82z" />
    <glyph glyph-name="icircumflex" unicode="&#xee;" horiz-adv-x="326" 
d="M248 113q0 -47 8 -72.5t33 -32.5v-8h-250v8q26 7 32.5 32t6.5 73v244q0 26 -10.5 39.5t-41.5 24.5v8l222 42v-358zM32 512h-41l165 193l165 -193h-41l-124 82z" />
    <glyph glyph-name="idieresis" unicode="&#xef;" horiz-adv-x="326" 
d="M248 113q0 -47 8 -72.5t33 -32.5v-8h-250v8q26 7 32.5 32t6.5 73v244q0 26 -10.5 39.5t-41.5 24.5v8l222 42v-358zM133 609q0 -29 -20.5 -50t-48.5 -21q-29 0 -50 21t-21 50q0 28 21 48.5t50 20.5q28 0 48.5 -20.5t20.5 -48.5zM321 609q0 -29 -20.5 -50t-48.5 -21
q-29 0 -50 21t-21 50q0 28 21 48.5t50 20.5q28 0 48.5 -20.5t20.5 -48.5z" />
    <glyph glyph-name="eth" unicode="&#xf0;" 
d="M373 333q0 27 -19 45t-52 18q-35 0 -58.5 -52t-23.5 -146v-22q0 -63 1 -87.5t8 -50t21 -32t41 -6.5q52 0 65.5 72.5t16.5 260.5zM576 318q0 -151 -75 -239t-210 -88q-118 0 -185.5 57t-67.5 170q0 45 10.5 81.5t35 69t71 51t111.5 18.5q36 0 69.5 -19.5t37.5 -48.5
q-1 159 -43 242l-176 -91l-4 8l176 91q-46 84 -145 84v9q132 0 224 -53l89 46l5 -8l-85 -43q162 -99 162 -337z" />
    <glyph glyph-name="ntilde" unicode="&#xf1;" horiz-adv-x="593" 
d="M341 522l-119 47q-21 8 -55.5 14t-74 0t-51.5 -31l-4 1q23 54 54 87t58.5 41.5t51.5 9t38 -4.5l14 -6l119 -46q21 -9 56 -15t74 0.5t52 31.5l4 -1q-24 -52 -55 -84t-58.5 -41t-51.5 -10.5t-38 3.5zM527 114q0 -47 8.5 -73.5t32.5 -32.5v-8h-250v8q26 7 33 33t7 73v201
q0 84 -69 84q-33 0 -59 -39v-247q0 -47 8 -72.5t33 -32.5v-8h-250v8q18 5 27 22t10.5 33.5t1.5 49.5v244q0 26 -10.5 39.5t-41.5 24.5v8l222 42v-97q20 41 57 69t76 28q70 0 117 -35t47 -117v-205z" />
    <glyph glyph-name="ograve" unicode="&#xf2;" horiz-adv-x="595" 
d="M299 471q128 0 193 -67t65 -173q0 -105 -65 -172.5t-193 -67.5t-193 67.5t-65 172.5q0 106 65 173t193 67zM299 0q38 0 46.5 42t8.5 189t-8.5 189t-46.5 42q-39 0 -47.5 -42t-8.5 -189t8.5 -189t47.5 -42zM255 704l224 -163h-82l-304 113z" />
    <glyph glyph-name="oacute" unicode="&#xf3;" horiz-adv-x="595" 
d="M299 471q128 0 193 -67t65 -173q0 -105 -65 -172.5t-193 -67.5t-193 67.5t-65 172.5q0 106 65 173t193 67zM299 0q38 0 46.5 42t8.5 189t-8.5 189t-46.5 42q-39 0 -47.5 -42t-8.5 -189t8.5 -189t47.5 -42zM130 541l224 163l162 -50l-304 -113h-82z" />
    <glyph glyph-name="ocircumflex" unicode="&#xf4;" horiz-adv-x="595" 
d="M299 471q128 0 193 -67t65 -173q0 -105 -65 -172.5t-193 -67.5t-193 67.5t-65 172.5q0 106 65 173t193 67zM299 0q38 0 46.5 42t8.5 189t-8.5 189t-46.5 42q-39 0 -47.5 -42t-8.5 -189t8.5 -189t47.5 -42zM175 512h-41l165 193l165 -193h-41l-124 82z" />
    <glyph glyph-name="otilde" unicode="&#xf5;" horiz-adv-x="595" 
d="M299 471q128 0 193 -67t65 -173q0 -105 -65 -172.5t-193 -67.5t-193 67.5t-65 172.5q0 106 65 173t193 67zM299 0q38 0 46.5 42t8.5 189t-8.5 189t-46.5 42q-39 0 -47.5 -42t-8.5 -189t8.5 -189t47.5 -42zM351 522l-119 47q-21 8 -55.5 14t-74 0t-51.5 -31l-4 1
q23 54 54 87t58.5 41.5t51.5 9t38 -4.5l14 -6l119 -46q21 -9 56 -15t74 0.5t52 31.5l4 -1q-24 -52 -55 -84t-58.5 -41t-51.5 -10.5t-38 3.5z" />
    <glyph glyph-name="odieresis" unicode="&#xf6;" horiz-adv-x="595" 
d="M299 471q128 0 193 -67t65 -173q0 -105 -65 -172.5t-193 -67.5t-193 67.5t-65 172.5q0 106 65 173t193 67zM299 0q38 0 46.5 42t8.5 189t-8.5 189t-46.5 42q-39 0 -47.5 -42t-8.5 -189t8.5 -189t47.5 -42zM274 609q0 -29 -20.5 -50t-48.5 -21q-29 0 -50 21t-21 50
q0 28 21 48.5t50 20.5q28 0 48.5 -20.5t20.5 -48.5zM462 609q0 -29 -20.5 -50t-48.5 -21q-29 0 -50 21t-21 50q0 28 21 48.5t50 20.5q28 0 48.5 -20.5t20.5 -48.5z" />
    <glyph glyph-name="divide" unicode="&#xf7;" horiz-adv-x="625" 
d="M581 215h-536v123h536v-123zM390 493q0 -32 -23 -55t-55 -23t-54.5 23t-22.5 55t22.5 55t54.5 23t55 -23t23 -55zM390 60q0 -33 -23 -55.5t-55 -22.5t-54.5 22.5t-22.5 55.5q0 32 22.5 54.5t54.5 22.5t55 -22.5t23 -54.5z" />
    <glyph glyph-name="oslash" unicode="&#xf8;" horiz-adv-x="595" 
d="M427 447q66 -27 98 -84t32 -132q0 -105 -65 -172.5t-193 -67.5q-64 0 -116 19l-42 -77h-11l44 81q-66 28 -99.5 85.5t-33.5 131.5q0 106 65 173t193 67q58 0 118 -20l41 74h12zM243 231v-91l110 197q-2 71 -13 98t-41 27q-39 0 -47.5 -42t-8.5 -189zM299 0q38 0 46.5 42
t8.5 189q0 60 -1 85l-109 -197q2 -70 13 -94.5t42 -24.5z" />
    <glyph glyph-name="ugrave" unicode="&#xf9;" 
d="M544 89q0 -36 9.5 -47.5t41.5 -15.5v-8l-192 -26q-12 -2 -19 3t-8 11l-1 5v82q-6 -42 -43.5 -72t-96.5 -30q-69 0 -115.5 35.5t-46.5 117.5v222v26.5t-1.5 17.5t-4.5 14.5t-10 8t-16 7t-24 3.5v8l228 20v-324q0 -44 14 -63.5t51 -19.5q52 0 65 56v243v12q0 41 -6.5 52.5
t-40.5 15.5v8l216 20v-382zM250 704l224 -163h-82l-304 113z" />
    <glyph glyph-name="uacute" unicode="&#xfa;" 
d="M544 89q0 -36 9.5 -47.5t41.5 -15.5v-8l-192 -26q-12 -2 -19 3t-8 11l-1 5v82q-6 -42 -43.5 -72t-96.5 -30q-69 0 -115.5 35.5t-46.5 117.5v222v26.5t-1.5 17.5t-4.5 14.5t-10 8t-16 7t-24 3.5v8l228 20v-324q0 -44 14 -63.5t51 -19.5q52 0 65 56v243v12q0 41 -6.5 52.5
t-40.5 15.5v8l216 20v-382zM152 541l224 163l162 -50l-304 -113h-82z" />
    <glyph glyph-name="ucircumflex" unicode="&#xfb;" 
d="M544 89q0 -36 9.5 -47.5t41.5 -15.5v-8l-192 -26q-12 -2 -19 3t-8 11l-1 5v82q-6 -42 -43.5 -72t-96.5 -30q-69 0 -115.5 35.5t-46.5 117.5v222v26.5t-1.5 17.5t-4.5 14.5t-10 8t-16 7t-24 3.5v8l228 20v-324q0 -44 14 -63.5t51 -19.5q52 0 65 56v243v12q0 41 -6.5 52.5
t-40.5 15.5v8l216 20v-382zM189 512h-41l165 193l165 -193h-41l-124 82z" />
    <glyph glyph-name="udieresis" unicode="&#xfc;" 
d="M281 609q0 -29 -20.5 -50t-48.5 -21q-29 0 -50 21t-21 50q0 28 21 48.5t50 20.5q28 0 48.5 -20.5t20.5 -48.5zM469 609q0 -29 -20.5 -50t-48.5 -21q-29 0 -50 21t-21 50q0 28 21 48.5t50 20.5q28 0 48.5 -20.5t20.5 -48.5zM544 89q0 -36 9.5 -47.5t41.5 -15.5v-8
l-192 -26q-12 -2 -19 3t-8 11l-1 5v82q-6 -42 -43.5 -72t-96.5 -30q-69 0 -115.5 35.5t-46.5 117.5v222v26.5t-1.5 17.5t-4.5 14.5t-10 8t-16 7t-24 3.5v8l228 20v-324q0 -44 14 -63.5t51 -19.5q52 0 65 56v243v12q0 41 -6.5 52.5t-40.5 15.5v8l216 20v-382z" />
    <glyph glyph-name="yacute" unicode="&#xfd;" horiz-adv-x="616" 
d="M601 462h-233v-8q35 0 55.5 -16.5t25.5 -40t4.5 -47.5t-5.5 -40l-4 -17l-41 -121l-102 198q-2 3 -4.5 9t-6.5 20.5t-3.5 25.5t9.5 20t28 9v8h-313v-8q50 -5 81 -62l228 -454q-23 -82 -46 -78q-8 1 -11 12q-11 32 -44 47q-32 14 -65 1.5t-48 -44.5q-14 -32 -1.5 -65
t44.5 -48q22 -10 50.5 -7t45.5 17q46 38 83 158l125 359q42 100 69 132t79 32v8zM111 541l224 163l162 -50l-304 -113h-82z" />
    <glyph glyph-name="thorn" unicode="&#xfe;" horiz-adv-x="663" 
d="M317 0q45 0 72.5 55.5t27.5 169.5q0 95 -24.5 153.5t-75.5 58.5q-75 0 -82 -125v-173q8 -139 82 -139zM407 471q99 0 155 -67t56 -165q0 -71 -22 -121.5t-60.5 -77t-82 -38t-95.5 -11.5q-77 0 -123 23v-166q0 -47 8 -72t33 -32v-9h-250v9q18 5 27 22t10.5 33.5t1.5 48.5
v771q0 26 -10.5 39.5t-41.5 24.5v8l222 42v-337q43 75 172 75z" />
    <glyph glyph-name="ydieresis" unicode="&#xff;" horiz-adv-x="616" 
d="M300 609q0 -29 -20.5 -50t-48.5 -21q-29 0 -50 21t-21 50q0 28 21 48.5t50 20.5q28 0 48.5 -20.5t20.5 -48.5zM488 609q0 -29 -20.5 -50t-48.5 -21q-29 0 -50 21t-21 50q0 28 21 48.5t50 20.5q28 0 48.5 -20.5t20.5 -48.5zM601 462h-233v-8q35 0 55.5 -16.5t25.5 -40
t4.5 -47.5t-5.5 -40l-4 -17l-41 -121l-102 198q-2 3 -4.5 9t-6.5 20.5t-3.5 25.5t9.5 20t28 9v8h-313v-8q50 -5 81 -62l228 -454q-23 -82 -46 -78q-8 1 -11 12q-11 32 -44 47q-32 14 -65 1.5t-48 -44.5q-14 -32 -1.5 -65t44.5 -48q22 -10 50.5 -7t45.5 17q46 38 83 158
l125 359q42 100 69 132t79 32v8z" />
    <glyph glyph-name="Abreve" unicode="&#x102;" horiz-adv-x="762" 
d="M382 203l-100 225l-89 -225h189zM181 194l202 510h5l270 -613q16 -37 35.5 -56.5t29 -22t25.5 -4.5v-8h-350v8q22 0 32.5 12t9 29t-6 34.5t-9.5 29.5l-6 12l-32 69h-196q-10 -17 -6.5 -48.5t13 -62t39.5 -53t72 -22.5v-8h-288v8q16 1 28 6t33.5 21t47 56.5t52.5 102.5z
M389 861q73 0 102 14.5t29 43.5h2q0 -71 -32.5 -112t-100.5 -41q-70 0 -103 41t-33 112h3q0 -29 29.5 -43.5t103.5 -14.5z" />
    <glyph glyph-name="abreve" unicode="&#x103;" horiz-adv-x="567" 
d="M300 90v154q-24 -5 -40 -16t-24 -22t-12 -29.5t-4.5 -28.5t-0.5 -30v-7.5t2 -15.5t6 -20t12 -16t19 -7q25 0 42 38zM544 69l6 -5q-10 -33 -46 -53t-83 -20q-5 0 -12.5 0.5t-27 5.5t-35 13.5t-29 27t-16.5 43.5q-10 -40 -46.5 -65t-88.5 -25q-25 0 -50.5 7t-50 31.5
t-24.5 63.5q0 21 6 38t13.5 30t27.5 24.5t34.5 19t49 17t57 15t71.5 17.5v64q0 78 -38 114.5t-90 9.5q-1 -1 -2 -1.5t-3 -3.5t-2 -6t4.5 -7t14.5 -7q23 -8 36 -38q11 -28 0 -54.5t-39 -38.5q-27 -11 -54 0.5t-38 38.5q-17 44 12 74q27 30 67 51q20 11 43.5 16t36.5 5h14
q96 0 150 -55t54 -145v-149q0 -3 0.5 -8t3 -17t7 -21.5t14.5 -17t23 -6.5q25 0 30 17zM301 646q73 0 102 14.5t29 43.5h2q0 -71 -32.5 -112t-100.5 -41q-70 0 -103 41t-33 112h3q0 -29 29.5 -43.5t103.5 -14.5z" />
    <glyph glyph-name="Aogonek" unicode="&#x104;" horiz-adv-x="762" 
d="M181 194l202 510h5l270 -613q16 -37 35.5 -56.5t29 -22t25.5 -4.5v-8h-107q-68 -38 -56 -88q4 -17 15.5 -25.5t20.5 -8.5h9q32 1 32 20h10q0 -21 -2.5 -35t-17 -30t-41.5 -21q-26 -4 -47 0.5t-32.5 13t-19 18t-9.5 16.5l-2 7q-23 87 78 133h-181v8q22 0 32.5 12t9 29
t-6 34.5t-9.5 29.5l-6 12l-32 69h-196q-10 -17 -6.5 -48.5t13 -62t39.5 -53t72 -22.5v-8h-288v8q16 1 28 6t33.5 21t47 56.5t52.5 102.5zM382 203l-100 225l-89 -225h189z" />
    <glyph glyph-name="aogonek" unicode="&#x105;" horiz-adv-x="567" 
d="M544 69l6 -5q-10 -30 -41 -49.5t-72 -22.5q-54 -36 -42 -80q4 -17 15.5 -25.5t20.5 -8.5h9q32 1 32 20h10q0 -21 -2.5 -35t-17 -30t-41.5 -21q-26 -4 -47 0.5t-32.5 13t-19 18t-9.5 16.5l-2 7q-21 83 71 130q-75 16 -81 84q-10 -40 -46.5 -65t-88.5 -25q-25 0 -50.5 7
t-50 31.5t-24.5 63.5q0 21 6 38t13.5 30t27.5 24.5t34.5 19t49 17t57 15t71.5 17.5v64q0 78 -38 114.5t-90 9.5q-1 -1 -2 -1.5t-3 -3.5t-2 -6t4.5 -7t14.5 -7q23 -8 36 -38q11 -28 0 -54.5t-39 -38.5q-27 -11 -54 0.5t-38 38.5q-17 44 12 74q27 30 67 51q20 11 43.5 16
t36.5 5h14q96 0 150 -55t54 -145v-149q0 -3 0.5 -8t3 -17t7 -21.5t14.5 -17t23 -6.5q25 0 30 17zM300 90v154q-24 -5 -40 -16t-24 -22t-12 -29.5t-4.5 -28.5t-0.5 -30v-7.5t2 -15.5t6 -20t12 -16t19 -7q25 0 42 38z" />
    <glyph glyph-name="Cacute" unicode="&#x106;" horiz-adv-x="722" 
d="M660 240h8l10 -202q-23 -16 -92 -31t-142 -15q-168 0 -286 98.5t-118 261.5q0 109 57 193t148 126t199 42q88 0 150 -14.5t84 -31.5l-10 -202h-8q-11 73 -35.5 124t-57.5 74t-62 32t-61 9q-86 0 -122 -76t-36 -276q0 -136 17.5 -213.5t51 -108t89.5 -30.5q29 0 58.5 10
t61.5 34.5t58 75t38 120.5zM222 735l224 163l162 -50l-304 -113h-82z" />
    <glyph glyph-name="cacute" unicode="&#x107;" horiz-adv-x="515" 
d="M318 471q99 0 153 -61q13 -14 17.5 -35t-2.5 -41q-10 -29 -38 -42t-57 -2q-29 10 -42 37.5t-2 56.5q9 31 36 42q9 3 0 16q-17 20 -60 20q-82 0 -82 -216q0 -81 33.5 -123.5t96.5 -42.5q79 0 101 53l7 -3q0 -52 -53 -95.5t-141 -43.5q-100 0 -170 69t-70 173
q0 108 68.5 173t204.5 65zM135 541l224 163l162 -50l-304 -113h-82z" />
    <glyph glyph-name="Ccaron" unicode="&#x10c;" horiz-adv-x="722" 
d="M660 240h8l10 -202q-23 -16 -92 -31t-142 -15q-168 0 -286 98.5t-118 261.5q0 109 57 193t148 126t199 42q88 0 150 -14.5t84 -31.5l-10 -202h-8q-11 73 -35.5 124t-57.5 74t-62 32t-61 9q-86 0 -122 -76t-36 -276q0 -136 17.5 -213.5t51 -108t89.5 -30.5q29 0 58.5 10
t61.5 34.5t58 75t38 120.5zM253 928h41l124 -82l124 82h41l-165 -193z" />
    <glyph glyph-name="ccaron" unicode="&#x10d;" horiz-adv-x="515" 
d="M318 471q99 0 153 -61q13 -14 17.5 -35t-2.5 -41q-10 -29 -38 -42t-57 -2q-29 10 -42 37.5t-2 56.5q9 31 36 42q9 3 0 16q-17 20 -60 20q-82 0 -82 -216q0 -81 33.5 -123.5t96.5 -42.5q79 0 101 53l7 -3q0 -52 -53 -95.5t-141 -43.5q-100 0 -170 69t-70 173
q0 108 68.5 173t204.5 65zM121 704h41l124 -82l124 82h41l-165 -193z" />
    <glyph glyph-name="Dcaron" unicode="&#x10e;" horiz-adv-x="816" 
d="M333 9q42 0 65 4t49.5 22t39 53.5t21 100t8.5 160.5q0 95 -8 159t-20.5 101t-37.5 56t-50 24.5t-67 5.5h-44v-686h44zM333 704q65 0 122 -8.5t116 -32.5t101 -62t68.5 -102.5t26.5 -149.5q0 -71 -18 -127t-51 -93.5t-73 -63.5t-91.5 -39.5t-99 -19.5t-101.5 -6h-296v9
q30 0 44.5 36t14.5 92v429q0 53 -14.5 91.5t-44.5 38.5v8h296zM193 928h41l124 -82l124 82h41l-165 -193z" />
    <glyph glyph-name="dcaron" unicode="&#x10f;" horiz-adv-x="824" 
d="M671 704h121q0 -41 -16.5 -78.5t-40 -62t-47 -43t-40.5 -26.5l-16 -9l-8 13q5 5 13 16t21 64t13 126zM432 119v201q0 66 -27 104t-67 38q-41 0 -64.5 -46.5t-23.5 -164.5q0 -98 23 -147.5t76 -49.5q27 0 51.5 20.5t31.5 44.5zM601 90q0 -36 10 -48.5t41 -16.5v-8
l-192 -25q-12 -2 -19 2.5t-8 9.5l-1 6v89q-11 -50 -60 -79t-106 -29q-105 0 -162 60t-57 177q0 120 69 181.5t182 61.5q94 0 134 -44v205q0 27 -10.5 40t-40.5 24v8l220 42v-656z" />
    <glyph glyph-name="Dcroat" unicode="&#x110;" horiz-adv-x="823" 
d="M340 704q65 0 122 -8.5t116 -32.5t101 -62t68.5 -102.5t26.5 -149.5q0 -71 -18 -127t-51 -93.5t-73 -63.5t-91.5 -39.5t-99 -19.5t-101.5 -6h-296v9q30 0 44.5 36t14.5 92v212h-82v9h82v208q0 53 -14.5 91t-44.5 38v9h296zM340 9q42 0 65 4t49.5 22t39 53.5t21 100
t8.5 160.5q0 95 -8 159t-20.5 101t-37.5 56t-50 24.5t-67 5.5h-44v-337h131v-9h-131v-340h44z" />
    <glyph glyph-name="dcroat" unicode="&#x111;" horiz-adv-x="677" 
d="M601 90q0 -36 10 -48.5t41 -16.5v-8l-192 -25q-12 -2 -19 2.5t-8 9.5l-1 6v89q-11 -50 -60 -79t-106 -29q-105 0 -162 60t-57 177q0 120 69 181.5t182 61.5q94 0 134 -44v145h-79v9h79v51q0 27 -10.5 40t-40.5 24v8l220 42v-165h77v-9h-77v-482zM432 119v201
q0 66 -27 104t-67 38q-41 0 -64.5 -46.5t-23.5 -164.5q0 -98 23 -147.5t76 -49.5q27 0 51.5 20.5t31.5 44.5z" />
    <glyph glyph-name="Eogonek" unicode="&#x118;" horiz-adv-x="683" 
d="M602 196h9v-196h-54q-68 -38 -56 -88q4 -17 15.5 -25.5t20.5 -8.5h9q32 1 32 20h10q0 -21 -2.5 -35t-17 -30t-41.5 -21q-26 -4 -47 0.5t-32.5 13t-19 18t-9.5 16.5l-2 7q-23 87 78 133h-468v9q30 0 44 36t14 92v429q0 54 -14 92t-44 38v8h571v-205h-9q0 55 -28 95
t-68 58.5t-80.5 29t-68.5 12.5l-28 1h-36v-335h81q6 0 12.5 0.5t26 6.5t34 17t28.5 35.5t17 58.5h9v-245h-9q-3 34 -17 58.5t-28.5 35.5t-34 17t-26.5 6.5t-12 0.5h-81v-342h36q1 2 16 0t41 2.5t56 9t60.5 19t55.5 33t41 51t16 72.5z" />
    <glyph glyph-name="eogonek" unicode="&#x119;" horiz-adv-x="537" 
d="M289 471q43 0 77.5 -10t65 -34t47.5 -71t17 -115h-272q0 -106 29 -150t86 -57q41 -9 82 17.5t55 86.5l9 -2q-10 -56 -60.5 -97.5t-130.5 -46.5q-54 -36 -42 -80q4 -17 15.5 -25.5t20.5 -8.5h9q32 1 32 20h10q0 -21 -2.5 -35t-17 -30t-41.5 -21q-26 -4 -47 0.5t-32.5 13
t-19 18t-9.5 16.5l-2 7q-22 81 66 127q-85 14 -141 80t-56 156q0 61 22 109t58.5 76t80 42t91.5 14zM224 250h127q0 212 -58 212q-32 0 -50.5 -66t-18.5 -146z" />
    <glyph glyph-name="Ecaron" unicode="&#x11a;" horiz-adv-x="683" 
d="M173 928h41l124 -82l124 82h41l-165 -193zM602 196h9v-196h-584v9q30 0 44 36t14 92v429q0 54 -14 92t-44 38v8h571v-205h-9q0 55 -28 95t-68 58.5t-80.5 29t-68.5 12.5l-28 1h-36v-335h81q6 0 12.5 0.5t26 6.5t34 17t28.5 35.5t17 58.5h9v-245h-9q-3 34 -17 58.5
t-28.5 35.5t-34 17t-26.5 6.5t-12 0.5h-81v-342h36q1 2 16 0t41 2.5t56 9t60.5 19t55.5 33t41 51t16 72.5z" />
    <glyph glyph-name="ecaron" unicode="&#x11b;" horiz-adv-x="537" 
d="M289 471q43 0 77.5 -10t65 -34t47.5 -71t17 -115h-272q0 -106 29 -150t86 -57q41 -9 82 17.5t55 86.5l9 -2q-11 -60 -66.5 -102.5t-144.5 -42.5q-99 0 -168 69t-69 170q0 61 22 109t58.5 76t80 42t91.5 14zM224 250h127q0 212 -58 212q-32 0 -50.5 -66t-18.5 -146z
M124 704h41l124 -82l124 82h41l-165 -193z" />
    <glyph glyph-name="dotlessi" unicode="&#x131;" horiz-adv-x="326" 
d="M248 113q0 -47 8 -72.5t33 -32.5v-8h-250v8q26 7 32.5 32t6.5 73v244q0 26 -10.5 39.5t-41.5 24.5v8l222 42v-358z" />
    <glyph glyph-name="Lacute" unicode="&#x139;" horiz-adv-x="667" 
d="M572 217h-9q0 -53 -21.5 -93t-52 -61t-72 -34t-72.5 -16.5t-63 -3.5v616q0 28 1 41.5t9 20.5t14.5 7.5t26.5 0.5v9h-299v-9h7q29 0 35.5 -8t6.5 -49v-544q0 -62 -7 -73q-8 -12 -34 -12v-9h530v217zM102 735l224 163l162 -50l-304 -113h-82z" />
    <glyph glyph-name="lacute" unicode="&#x13a;" horiz-adv-x="311" 
d="M242 113q0 -47 8 -72.5t33 -32.5v-8h-250v8q18 5 27 22t10.5 33.5t1.5 49.5v519q0 26 -11 39.5t-42 24.5v8l223 42v-633zM-14 763l224 163l162 -50l-304 -113h-82z" />
    <glyph glyph-name="Lcaron" unicode="&#x13d;" horiz-adv-x="637" 
d="M379 704h121q0 -41 -16.5 -78.5t-40 -62t-47 -43t-40.5 -26.5l-16 -9l-8 13q5 5 13 16t21 64t13 126zM563 217h9v-217h-530v9q29 0 35 13.5t6 62.5v3v3v3v544q0 24 -0.5 35t-8.5 16.5t-13 5.5h-27v9h299v-9q-20 0 -26.5 -0.5t-14.5 -7.5t-9 -20.5t-1 -41.5v-616
q32 0 63 3.5t72.5 16.5t72 34t52 61t21.5 93z" />
    <glyph glyph-name="lcaron" unicode="&#x13e;" horiz-adv-x="483" 
d="M242 113q0 -47 8 -72.5t33 -32.5v-8h-250v8q18 5 27 22t10.5 33.5t1.5 49.5v519q0 26 -11 39.5t-42 24.5v8l223 42v-633zM315 704h121q0 -41 -16.5 -78.5t-40 -62t-47 -43t-40.5 -26.5l-16 -9l-8 13q5 5 13 16t21 64t13 126z" />
    <glyph glyph-name="Lslash" unicode="&#x141;" horiz-adv-x="637" 
d="M563 217h9v-217h-530v9q29 0 35 13.5t6 62.5v3v3v3v185l-138 -74v12l138 74v347q0 24 -0.5 35t-8.5 16.5t-13 5.5h-27v9h299v-9q-20 0 -26.5 -0.5t-14.5 -7.5t-9 -20.5t-1 -41.5v-228l148 79v-12l-148 -79v-376q32 0 63 3.5t72.5 16.5t72 34t52 61t21.5 93z" />
    <glyph glyph-name="lslash" unicode="&#x142;" horiz-adv-x="381" 
d="M365 465l-85 -46v-306q0 -47 8 -72.5t33 -32.5v-8h-250v8q18 5 27 22t10.5 33.5t1.5 49.5v216l-98 -53v12l98 53v291q0 26 -11 39.5t-42 24.5v8l223 42v-315l85 46v-12z" />
    <glyph glyph-name="Nacute" unicode="&#x143;" horiz-adv-x="844" 
d="M676 0h-110l-377 537v-312q0 -32 1.5 -54t10 -55.5t23.5 -54.5t44.5 -36.5t71.5 -15.5v-9h-318v9q49 0 82.5 21.5t48.5 58t21 68.5t6 68v324l-47 67q-21 28 -40 45.5t-37 24t-25 8t-23 2.5v8h319l340 -491v267q0 52 -11.5 98t-45.5 82t-86 36v8h303v-8q-44 0 -75.5 -20
t-47 -54t-22 -68.5t-6.5 -73.5v-480zM241 735l224 163l162 -50l-304 -113h-82z" />
    <glyph glyph-name="nacute" unicode="&#x144;" horiz-adv-x="593" 
d="M527 114q0 -47 8.5 -73.5t32.5 -32.5v-8h-250v8q26 7 33 33t7 73v201q0 84 -69 84q-33 0 -59 -39v-247q0 -47 8 -72.5t33 -32.5v-8h-250v8q18 5 27 22t10.5 33.5t1.5 49.5v244q0 26 -10.5 39.5t-41.5 24.5v8l222 42v-97q20 41 57 69t76 28q70 0 117 -35t47 -117v-205z
M130 541l224 163l162 -50l-304 -113h-82z" />
    <glyph glyph-name="Ncaron" unicode="&#x147;" horiz-adv-x="844" 
d="M257 928h41l124 -82l124 82h41l-165 -193zM676 0h-110l-377 537v-312q0 -32 1.5 -54t10 -55.5t23.5 -54.5t44.5 -36.5t71.5 -15.5v-9h-318v9q49 0 82.5 21.5t48.5 58t21 68.5t6 68v324l-47 67q-21 28 -40 45.5t-37 24t-25 8t-23 2.5v8h319l340 -491v267q0 52 -11.5 98
t-45.5 82t-86 36v8h303v-8q-44 0 -75.5 -20t-47 -54t-22 -68.5t-6.5 -73.5v-480z" />
    <glyph glyph-name="ncaron" unicode="&#x148;" horiz-adv-x="593" 
d="M527 114q0 -47 8.5 -73.5t32.5 -32.5v-8h-250v8q26 7 33 33t7 73v201q0 84 -69 84q-33 0 -59 -39v-247q0 -47 8 -72.5t33 -32.5v-8h-250v8q18 5 27 22t10.5 33.5t1.5 49.5v244q0 26 -10.5 39.5t-41.5 24.5v8l222 42v-97q20 41 57 69t76 28q70 0 117 -35t47 -117v-205z
M124 704h41l124 -82l124 82h41l-165 -193z" />
    <glyph glyph-name="Ohungarumlaut" unicode="&#x150;" horiz-adv-x="817" 
d="M406 0q30 0 50 5.5t34 24.5t21.5 39t11 67t4.5 88.5t1 122.5q0 60 -0.5 94.5t-2 76t-5 63.5t-9.5 47t-14.5 36t-21.5 22t-30 14.5t-39 3.5q-30 0 -50.5 -6.5t-34.5 -26.5t-21.5 -41.5t-11.5 -69t-5 -90.5t-1 -123t1 -122.5t5 -88.5t11.5 -66.5t21.5 -39.5t34.5 -24.5
t50.5 -5.5zM406 713q161 0 263 -106.5t102 -259.5q0 -152 -101.5 -253.5t-263.5 -101.5t-263.5 101.5t-101.5 253.5q0 153 102 259.5t263 106.5zM181 735l224 163l162 -50l-304 -113h-82zM470 735l224 163l162 -50l-304 -113h-82z" />
    <glyph glyph-name="ohungarumlaut" unicode="&#x151;" horiz-adv-x="598" 
d="M299 471q128 0 193 -67t65 -173q0 -105 -65 -172.5t-193 -67.5t-193 67.5t-65 172.5q0 106 65 173t193 67zM299 0q38 0 46.5 42t8.5 189t-8.5 189t-46.5 42q-39 0 -47.5 -42t-8.5 -189t8.5 -189t47.5 -42zM62 541l224 163l162 -50l-304 -113h-82zM351 541l224 163
l162 -50l-304 -113h-82z" />
    <glyph glyph-name="OE" unicode="&#x152;" horiz-adv-x="1089" 
d="M502 153q0 28 0.5 195.5t0.5 191.5q0 89 -26 126.5t-89 37.5q-64 0 -84 -72.5t-20 -284.5q0 -143 8.5 -214.5t30.5 -102t65 -30.5q63 0 88.5 33t25.5 120zM1008 196h9v-196h-563q-49 -9 -66 -9q-160 0 -252.5 101t-92.5 255q0 155 93 260.5t252 105.5q24 0 65 -9h551
v-205h-9q0 55 -26 95.5t-63.5 58.5t-74.5 29t-63 12l-26 1h-36v-335h61q6 0 12.5 0.5t26 6.5t34 17t28.5 35.5t17 58.5h9v-245h-9q-3 34 -17 58.5t-28.5 35.5t-34 17t-26 6.5t-12.5 0.5h-61v-342h36h15.5t37 3t52.5 8.5t56 19t53 33t37 51.5t15 72z" />
    <glyph glyph-name="oe" unicode="&#x153;" horiz-adv-x="818" 
d="M540 249h92v8q0 58 -1 85.5t-4.5 60.5t-13 46t-25.5 13t-26.5 -18t-15 -54t-5.5 -65.5t-1 -75.5zM356 231q0 147 -8.5 189t-46.5 42q-39 0 -47.5 -42t-8.5 -189t8.5 -189t47.5 -42q38 0 46.5 42t8.5 189zM757 140h9q-11 -64 -55.5 -106.5t-130.5 -42.5q-67 0 -127 37
q-63 -37 -152 -37q-128 0 -193 67.5t-65 172.5q0 106 65 173t193 67q83 0 152 -39q68 39 131 39q43 0 75.5 -10t60.5 -34.5t42.5 -71.5t14.5 -115h-237q0 -75 10 -118t29.5 -61.5t54.5 -26.5q40 -9 74.5 18t48.5 88z" />
    <glyph glyph-name="Racute" unicode="&#x154;" horiz-adv-x="773" 
d="M304 334h36t28.5 1.5t24 3t17.5 6.5t14.5 10.5t9 16.5t7.5 22.5t3.5 30.5t2.5 39v49q0 35 -1 60t-5 45t-6.5 33t-13 22t-16 13t-23 6.5t-27.5 2.5h-36h-15h-31v-361h31zM670 127q14 -52 45 -84t54 -34v-9h-199q-53 0 -76 45.5t-41 185.5q-6 44 -39 67.5t-64 25.5l-30 1
h-47v-212q0 -73 7 -88.5t39 -15.5v-9h-299v9q24 0 33 5t14 26t5 73v494q0 49 -10 69t-42 20v8h284q66 0 116.5 -3.5t102 -15.5t84.5 -32.5t54 -55.5t21 -84q0 -53 -22.5 -91t-59.5 -56.5t-74 -26t-78 -7.5q47 0 77 -7t58 -28t48.5 -62t38.5 -108zM174 735l224 163l162 -50
l-304 -113h-82z" />
    <glyph glyph-name="racute" unicode="&#x155;" horiz-adv-x="511" 
d="M462 448q29 -26 32 -64.5t-22 -67.5t-63.5 -32t-68.5 22q-32 30 -32 62q0 11 -19 2q-25 -14 -54 -58v-199q0 -47 8 -72.5t33 -32.5v-8h-250v8q26 7 32.5 32t6.5 73v244q0 26 -11 39.5t-42 24.5v8l223 42v-140q33 50 60 79.5t38.5 36.5t32.5 17t49 5.5t47 -21.5zM106 541
l224 163l162 -50l-304 -113h-82z" />
    <glyph glyph-name="Rcaron" unicode="&#x158;" horiz-adv-x="773" 
d="M304 334h36t28.5 1.5t24 3t17.5 6.5t14.5 10.5t9 16.5t7.5 22.5t3.5 30.5t2.5 39v49q0 35 -1 60t-5 45t-6.5 33t-13 22t-16 13t-23 6.5t-27.5 2.5h-36h-15h-31v-361h31zM670 127q14 -52 45 -84t54 -34v-9h-199q-53 0 -76 45.5t-41 185.5q-6 44 -39 67.5t-64 25.5l-30 1
h-47v-212q0 -73 7 -88.5t39 -15.5v-9h-299v9q24 0 33 5t14 26t5 73v494q0 49 -10 69t-42 20v8h284q66 0 116.5 -3.5t102 -15.5t84.5 -32.5t54 -55.5t21 -84q0 -53 -22.5 -91t-59.5 -56.5t-74 -26t-78 -7.5q47 0 77 -7t58 -28t48.5 -62t38.5 -108zM189 928h41l124 -82l124 82
h41l-165 -193z" />
    <glyph glyph-name="rcaron" unicode="&#x159;" horiz-adv-x="511" 
d="M462 448q29 -26 32 -64.5t-22 -67.5t-63.5 -32t-68.5 22q-32 30 -32 62q0 11 -19 2q-25 -14 -54 -58v-199q0 -47 8 -72.5t33 -32.5v-8h-250v8q26 7 32.5 32t6.5 73v244q0 26 -11 39.5t-42 24.5v8l223 42v-140q33 50 60 79.5t38.5 36.5t32.5 17t49 5.5t47 -21.5zM70 704
h41l124 -82l124 82h41l-165 -193z" />
    <glyph glyph-name="Sacute" unicode="&#x15a;" horiz-adv-x="616" 
d="M439 397q99 -65 124 -153.5t-32 -170.5q-2 -3 -7 -8.5t-23.5 -20t-42 -25t-65 -19.5t-89.5 -9q-54 0 -102 5.5t-77 12.5t-50.5 14.5t-30.5 12.5l-9 6v192h9q7 -29 26 -65.5t50 -76t80 -66t104 -26.5q39 0 64 22.5t30 55t-14.5 72.5t-62.5 72l-154 97q-106 67 -131 152.5
t39 165.5q2 3 7 8t23 18.5t41 23.5t62.5 18t85.5 8q76 0 135.5 -11.5t80.5 -23.5l21 -11v-168h-9q-57 205 -228 205q-40 0 -65 -20.5t-29.5 -50t17 -67t68.5 -67.5zM133 735l224 163l162 -50l-304 -113h-82z" />
    <glyph glyph-name="sacute" unicode="&#x15b;" horiz-adv-x="444" 
d="M313 279q67 -41 84 -113t-25 -121q-2 -2 -5 -5.5t-16 -13t-29 -16.5t-44 -13t-60 -6q-54 0 -98.5 8.5t-61.5 16.5l-18 9v131h9q14 -67 65.5 -111.5t103.5 -44.5q35 0 51.5 22.5t6 54.5t-46.5 56l-101 61q-70 46 -87 112t29 117q4 5 13.5 13t48 21.5t89.5 13.5t92 -7
t56 -14l15 -7v-102h-9q-12 62 -57.5 91.5t-96.5 29.5q-33 0 -51 -18t-8.5 -47t50.5 -55zM57 541l224 163l162 -50l-304 -113h-82z" />
    <glyph glyph-name="Scedilla" unicode="&#x15e;" horiz-adv-x="616" 
d="M439 397q99 -65 124 -153.5t-32 -170.5q-2 -3 -7 -8.5t-23.5 -20t-42 -25t-65 -19.5t-89.5 -9h-5l-18 -49q67 15 103.5 -12.5t31.5 -73.5q-9 -78 -113 -78q-44 0 -69 22q-16 13 -13 36q4 14 16.5 22t27.5 4q15 -3 23 -15.5t5 -26.5q-6 -18 -18 -22q-7 -4 4 -8q7 -3 19 -3
q19 0 29 13.5t10 31.5q0 8 -3 18.5t-11.5 22.5t-27 18t-44.5 1l39 99q-82 1 -145.5 14t-86.5 25l-23 12v192h9q7 -29 26 -65.5t50 -76t80 -66t104 -26.5q39 0 64 22.5t30 55t-14.5 72.5t-62.5 72l-154 97q-106 67 -131 152.5t39 165.5q2 3 7 8t23 18.5t41 23.5t62.5 18
t85.5 8q76 0 135.5 -11.5t80.5 -23.5l21 -11v-168h-9q-57 205 -228 205q-40 0 -65 -20.5t-29.5 -50t17 -67t68.5 -67.5z" />
    <glyph glyph-name="scedilla" unicode="&#x15f;" horiz-adv-x="444" 
d="M313 279q67 -41 84 -113t-25 -121q-2 -2 -5 -5.5t-16 -13t-29 -16.5t-44 -13t-60 -6h-18l-18 -49q67 15 103.5 -12.5t31.5 -73.5q-9 -78 -113 -78q-44 0 -69 22q-16 13 -13 36q4 14 16.5 22t27.5 4q15 -3 23 -15.5t5 -26.5q-6 -18 -18 -22q-7 -4 4 -8q7 -3 19 -3
q19 0 29 13.5t10 31.5q0 8 -3 18.5t-11.5 22.5t-27 18t-44.5 1l39 99q-46 2 -83.5 10.5t-52.5 16.5l-15 7v131h9q14 -67 65.5 -111.5t103.5 -44.5q35 0 51.5 22.5t6 54.5t-46.5 56l-101 61q-70 46 -87 112t29 117q4 5 13.5 13t48 21.5t89.5 13.5t92 -7t56 -14l15 -7v-102h-9
q-12 62 -57.5 91.5t-96.5 29.5q-33 0 -51 -18t-8.5 -47t50.5 -55z" />
    <glyph glyph-name="Scaron" unicode="&#x160;" horiz-adv-x="617" 
d="M439 397q99 -65 124 -153.5t-32 -170.5q-2 -3 -7 -8.5t-23.5 -20t-42 -25t-65 -19.5t-89.5 -9q-54 0 -102 5.5t-77 12.5t-50.5 14.5t-30.5 12.5l-9 6v192h9q7 -29 26 -65.5t50 -76t80 -66t104 -26.5q39 0 64 22.5t30 55t-14.5 72.5t-62.5 72l-154 97q-106 67 -131 152.5
t39 165.5q2 3 7 8t23 18.5t41 23.5t62.5 18t85.5 8q76 0 135.5 -11.5t80.5 -23.5l21 -11v-168h-9q-57 205 -228 205q-40 0 -65 -20.5t-29.5 -50t17 -67t68.5 -67.5zM127 928h41l124 -82l124 82h41l-165 -193z" />
    <glyph glyph-name="scaron" unicode="&#x161;" horiz-adv-x="445" 
d="M313 279q67 -41 84 -113t-25 -121q-2 -2 -5 -5.5t-16 -13t-29 -16.5t-44 -13t-60 -6q-54 0 -98.5 8.5t-61.5 16.5l-18 9v131h9q14 -67 65.5 -111.5t103.5 -44.5q35 0 51.5 22.5t6 54.5t-46.5 56l-101 61q-70 46 -87 112t29 117q4 5 13.5 13t48 21.5t89.5 13.5t92 -7
t56 -14l15 -7v-102h-9q-12 62 -57.5 91.5t-96.5 29.5q-33 0 -51 -18t-8.5 -47t50.5 -55zM53 684h41l124 -82l124 82h41l-165 -193z" />
    <glyph glyph-name="uni0162" unicode="&#x162;" horiz-adv-x="754" 
d="M20 704h715v-225h-8q-4 81 -85.5 148.5t-150.5 67.5h-11v-582q0 -56 8.5 -80t36.5 -24v-9h-166l-21 -58q67 15 103.5 -12.5t31.5 -73.5q-9 -78 -113 -78q-44 0 -69 22q-16 13 -13 36q4 14 16.5 22t27.5 4q15 -3 23 -15.5t5 -26.5q-6 -18 -18 -22q-7 -4 4 -8q7 -3 19 -3
q19 0 29 13.5t10 31.5q0 8 -3 18.5t-11.5 22.5t-27 18t-44.5 1l42 108h-120v9q28 0 36.5 24t8.5 80v582h-11q-69 0 -150.5 -67.5t-85.5 -148.5h-8v225z" />
    <glyph glyph-name="uni0163" unicode="&#x163;" horiz-adv-x="399" 
d="M320 64q35 0 61 30l6 -4q-9 -41 -49.5 -70t-94.5 -29q-25 0 -53 5l-20 -54q67 15 103.5 -12.5t31.5 -73.5q-9 -78 -113 -78q-44 0 -69 22q-16 13 -13 36q4 14 16.5 22t27.5 4q15 -3 23 -15.5t5 -26.5q-6 -18 -18 -22q-7 -4 4 -8q7 -3 19 -3q19 0 29 13.5t10 31.5
q0 8 -3 18.5t-11.5 22.5t-27 18t-44.5 1l42 106q-108 26 -108 146v309h-63v9h63v134l168 21v-155h129v-9h-129v-306q0 -43 18 -63t60 -20z" />
    <glyph glyph-name="Tcaron" unicode="&#x164;" horiz-adv-x="754" 
d="M20 704h715v-225h-8q-4 81 -85.5 148.5t-150.5 67.5h-11v-582q0 -56 8.5 -80t36.5 -24v-9h-295v9q28 0 36.5 24t8.5 80v582h-11q-69 0 -150.5 -67.5t-85.5 -148.5h-8v225zM216 928h41l124 -82l124 82h41l-165 -193z" />
    <glyph glyph-name="tcaron" unicode="&#x165;" horiz-adv-x="461" 
d="M320 64q35 0 61 30l6 -4q-9 -41 -49.5 -70t-94.5 -29q-44 0 -79.5 12t-62.5 48t-27 93v309h-63v9h63v134l168 21v-155h129v-9h-129v-306q0 -43 18 -63t60 -20zM314 704h121q0 -41 -16.5 -78.5t-40 -62t-47 -43t-39.5 -26.5l-17 -9l-8 13q5 5 13 16t21 64t13 126z" />
    <glyph glyph-name="Uring" unicode="&#x16e;" horiz-adv-x="737" 
d="M320 -9q128 0 196 63t68 165v260q0 36 5.5 69.5t18.5 68.5t41 56.5t68 21.5l-1 9h-262v-9q44 0 73 -38.5t38.5 -84t9.5 -93.5v-260q0 -73 -42 -120.5t-119 -47.5q-74 0 -115.5 41t-41.5 127v388v9q0 52 6 65.5t35 13.5v9h-286v-9q12 0 19.5 -3.5t12 -7t6.5 -16t2 -19.5
v-28v-14v-381q0 -78 39.5 -132.5t98.5 -78.5t130 -24zM378 920q-16 0 -27.5 -11t-11.5 -28t11.5 -28.5t27.5 -11.5t27.5 11.5t11.5 28.5t-11.5 28t-27.5 11zM378 981q43 0 73 -29t30 -71t-30 -72t-73 -30q-42 0 -72.5 30t-30.5 72t30.5 71t72.5 29z" />
    <glyph glyph-name="uring" unicode="&#x16f;" 
d="M544 89q0 -36 9.5 -47.5t41.5 -15.5v-8l-192 -26q-12 -2 -19 3t-8 11l-1 5v82q-6 -42 -43.5 -72t-96.5 -30q-69 0 -115.5 35.5t-46.5 117.5v222v26.5t-1.5 17.5t-4.5 14.5t-10 8t-16 7t-24 3.5v8l228 20v-324q0 -44 14 -63.5t51 -19.5q52 0 65 56v243v12q0 41 -6.5 52.5
t-40.5 15.5v8l216 20v-382zM303 654q-17 0 -28 -11t-11 -28t11.5 -28.5t27.5 -11.5t27.5 11.5t11.5 28.5t-11 28t-28 11zM303 715q43 0 73 -29t30 -71t-30 -72t-73 -30q-42 0 -72.5 30t-30.5 72t30.5 71t72.5 29z" />
    <glyph glyph-name="Uhungarumlaut" unicode="&#x170;" horiz-adv-x="737" 
d="M659 898l162 -50l-304 -113h-82zM370 898l162 -50l-304 -113h-82zM320 -9q128 0 196 63t68 165v260q0 36 5.5 69.5t18.5 68.5t41 56.5t68 21.5l-1 9h-262v-9q44 0 73 -38.5t38.5 -84t9.5 -93.5v-260q0 -73 -41.5 -120.5t-119.5 -47.5q-74 0 -115.5 41t-41.5 127v388v9
q0 52 6 65.5t35 13.5v9h-286v-9q12 0 19.5 -3.5t12 -7t6.5 -16t2 -19.5v-28v-14v-381q0 -78 39.5 -132.5t98.5 -78.5t130 -24z" />
    <glyph glyph-name="uhungarumlaut" unicode="&#x171;" 
d="M51 541l224 163l162 -50l-304 -113h-82zM340 541l224 163l162 -50l-304 -113h-82zM544 89q0 -36 9.5 -47.5t41.5 -15.5v-8l-192 -26q-12 -2 -19 3t-8 11l-1 5v82q-6 -42 -43.5 -72t-96.5 -30q-69 0 -115.5 35.5t-46.5 117.5v222v26.5t-1.5 17.5t-4.5 14.5t-10 8t-16 7
t-24 3.5v8l228 20v-324q0 -44 14 -63.5t51 -19.5q52 0 65 56v243v12q0 41 -6.5 52.5t-40.5 15.5v8l216 20v-382z" />
    <glyph glyph-name="Ydieresis" unicode="&#x178;" horiz-adv-x="777" 
d="M473 335q50 99 78 160q10 21 15 52.5t2 66t-26.5 58.5t-66.5 24v8h290v-8q-103 0 -206 -205l-81 -164v-214v-21.5v-19v-16.5t1 -14.5t2.5 -11t4 -9.5t6 -6.5t9 -4.5t12.5 -1v-9h-269v9q18 0 26.5 11.5t9.5 25t1 47.5v7v6v7v163l-195 342q-31 53 -43.5 65t-33.5 14v7h301
v-7q-29 0 -32 -9q-4 -15 49 -105zM360 833q0 -29 -20.5 -50t-48.5 -21q-29 0 -50 21t-21 50q0 28 21 48.5t50 20.5q28 0 48.5 -20.5t20.5 -48.5zM548 833q0 -29 -20.5 -50t-48.5 -21q-29 0 -50 21t-21 50q0 28 21 48.5t50 20.5q28 0 48.5 -20.5t20.5 -48.5z" />
    <glyph glyph-name="Zacute" unicode="&#x179;" horiz-adv-x="687" 
d="M636 704l-355 -695h10q155 0 235.5 49t94.5 175h8l-15 -233h-589l382 695h-47q-130 0 -211 -51.5t-93 -141.5h-8l13 202h575zM198 735l224 163l162 -50l-304 -113h-82z" />
    <glyph glyph-name="zacute" unicode="&#x17a;" horiz-adv-x="529" 
d="M101 541l224 163l162 -50l-304 -113h-82zM493 462l-242 -453q52 0 93.5 16t65.5 41.5t36 45.5t19 40h8l-9 -152h-435l258 453q-178 0 -221 -123h-8l5 132h430z" />
    <glyph glyph-name="Zdotaccent" unicode="&#x17b;" horiz-adv-x="687" 
d="M444 847q0 -29 -20.5 -50t-48.5 -21q-29 0 -50 21t-21 50q0 28 21 48.5t50 20.5q28 0 48.5 -20.5t20.5 -48.5zM636 704l-355 -695h10q155 0 235.5 49t94.5 175h8l-15 -233h-589l382 695h-47q-130 0 -211 -51.5t-93 -141.5h-8l13 202h575z" />
    <glyph glyph-name="zdotaccent" unicode="&#x17c;" horiz-adv-x="529" 
d="M493 462l-242 -453q52 0 93.5 16t65.5 41.5t36 45.5t19 40h8l-9 -152h-435l258 453q-178 0 -221 -123h-8l5 132h430zM354 606q0 -29 -20.5 -50t-48.5 -21q-29 0 -50 21t-21 50q0 28 21 48.5t50 20.5q28 0 48.5 -20.5t20.5 -48.5z" />
    <glyph glyph-name="Zcaron" unicode="&#x17d;" horiz-adv-x="687" 
d="M636 704l-355 -695h10q155 0 235.5 49t94.5 175h8l-15 -233h-589l382 695h-47q-130 0 -211 -51.5t-93 -141.5h-8l13 202h575zM179 928h41l124 -82l124 82h41l-165 -193z" />
    <glyph glyph-name="zcaron" unicode="&#x17e;" horiz-adv-x="529" 
d="M116 684h41l124 -82l124 82h41l-165 -193zM493 462l-242 -453q52 0 93.5 16t65.5 41.5t36 45.5t19 40h8l-9 -152h-435l258 453q-178 0 -221 -123h-8l5 132h430z" />
    <glyph glyph-name="florin" unicode="&#x192;" horiz-adv-x="751" 
d="M701 684q10 -15 11.5 -37.5t-6.5 -40.5q-13 -25 -40 -34.5t-52 2.5q-26 13 -35.5 40t3.5 53q13 27 39 35q8 2 4 12q-5 13 -35 13q-33 0 -58.5 -57t-35.5 -114l-9 -58l-16 -123h128l-2 -9h-127l-37 -268q-23 -177 -93.5 -257t-188.5 -80q-41 0 -72 17t-43 36q-23 38 -5 78
q13 26 40.5 35.5t52.5 -2.5q26 -14 35 -41t-4 -53q-13 -28 -37 -34q-9 -2 -6 -12q7 -15 41 -16q20 0 37.5 23.5t28.5 57t19 67t12 57.5l3 23l48 369h-115l2 9h114q35 201 105 280.5t184 79.5q34 0 67 -16.5t43 -34.5z" />
    <glyph glyph-name="uni0218" unicode="&#x218;" horiz-adv-x="616" 
d="M439 397q99 -65 124 -153.5t-32 -170.5q-2 -3 -7 -8.5t-23.5 -20t-42 -25t-65 -19.5t-89.5 -9q-54 0 -102 5.5t-77 12.5t-50.5 14.5t-30.5 12.5l-9 6v192h9q7 -29 26 -65.5t50 -76t80 -66t104 -26.5q39 0 64 22.5t30 55t-14.5 72.5t-62.5 72l-154 97q-106 67 -131 152.5
t39 165.5q2 3 7 8t23 18.5t41 23.5t62.5 18t85.5 8q76 0 135.5 -11.5t80.5 -23.5l21 -11v-168h-9q-57 205 -228 205q-40 0 -65 -20.5t-29.5 -50t17 -67t68.5 -67.5zM375 -59q22 -22 27 -53.5t-4.5 -63.5t-22.5 -57.5t-28 -47.5q-26 -41 -94 -80l-7 10q25 20 42 48.5t18 45
t-6 21.5q-43 3 -70 29q-31 31 -31 74t30 74q31 30 73.5 30t72.5 -30z" />
    <glyph glyph-name="uni0219" unicode="&#x219;" horiz-adv-x="444" 
d="M313 279q67 -41 84 -113t-25 -121q-2 -2 -5 -5.5t-16 -13t-29 -16.5t-44 -13t-60 -6q-54 0 -98.5 8.5t-61.5 16.5l-18 9v131h9q14 -67 65.5 -111.5t103.5 -44.5q35 0 51.5 22.5t6 54.5t-46.5 56l-101 61q-70 46 -87 112t29 117q4 5 13.5 13t48 21.5t89.5 13.5t92 -7
t56 -14l15 -7v-102h-9q-12 62 -57.5 91.5t-96.5 29.5q-33 0 -51 -18t-8.5 -47t50.5 -55zM289 -59q22 -22 27 -53.5t-4.5 -63.5t-22.5 -57.5t-28 -47.5q-26 -41 -94 -80l-7 10q25 20 42 48.5t18 45t-6 21.5q-43 3 -70 29q-31 31 -31 74t30 74q31 30 73.5 30t72.5 -30z" />
    <glyph glyph-name="uni021A" unicode="&#x21a;" horiz-adv-x="762" 
d="M448 -59q22 -22 27 -53.5t-4.5 -63.5t-22.5 -57.5t-28 -47.5q-26 -41 -94 -80l-7 10q25 20 42 48.5t18 45t-6 21.5q-43 3 -70 29q-31 31 -31 74t30 74q31 30 73.5 30t72.5 -30zM20 704h715v-225h-8q-4 81 -85.5 148.5t-150.5 67.5h-11v-582q0 -56 8.5 -80t36.5 -24v-9
h-295v9q28 0 36.5 24t8.5 80v582h-11q-69 0 -150.5 -67.5t-85.5 -148.5h-8v225z" />
    <glyph glyph-name="uni021B" unicode="&#x21b;" horiz-adv-x="399" 
d="M302 -59q22 -22 27 -53.5t-4.5 -63.5t-22.5 -57.5t-28 -47.5q-26 -41 -94 -80l-7 10q25 20 42 48.5t18 45t-6 21.5q-43 3 -70 29q-31 31 -31 74t30 74q31 30 73.5 30t72.5 -30zM320 64q35 0 61 30l6 -4q-9 -41 -49.5 -70t-94.5 -29q-44 0 -79.5 12t-62.5 48t-27 93v309
h-63v9h63v134l168 21v-155h129v-9h-129v-306q0 -43 18 -63t60 -20z" />
    <glyph glyph-name="circumflex" unicode="&#x2c6;" horiz-adv-x="330" 
d="M330 531h-41l-124 82l-124 -82h-41l165 193z" />
    <glyph glyph-name="caron" unicode="&#x2c7;" horiz-adv-x="330" 
d="M0 720h41l124 -82l124 82h41l-165 -193z" />
    <glyph glyph-name="uni02C9" unicode="&#x2c9;" horiz-adv-x="330" 
d="M-25 671h355v-100h-355v100z" />
    <glyph glyph-name="breve" unicode="&#x2d8;" horiz-adv-x="267" 
d="M135 646q73 0 102 14.5t29 43.5h2q0 -71 -32.5 -112t-100.5 -41q-70 0 -103 41t-33 112h3q0 -29 29.5 -43.5t103.5 -14.5z" />
    <glyph glyph-name="dotaccent" unicode="&#x2d9;" horiz-adv-x="281" 
d="M216 646q0 -29 -20.5 -50t-48.5 -21q-29 0 -50 21t-21 50q0 28 21 48.5t50 20.5q28 0 48.5 -20.5t20.5 -48.5z" />
    <glyph glyph-name="ring" unicode="&#x2da;" horiz-adv-x="278" 
d="M141 676q-17 0 -28 -11t-11 -28t11.5 -28.5t27.5 -11.5t27.5 11.5t11.5 28.5t-11 28t-28 11zM141 737q43 0 73 -29t30 -71t-30 -72t-73 -30q-42 0 -72.5 30t-30.5 72t30.5 71t72.5 29z" />
    <glyph glyph-name="ogonek" unicode="&#x2db;" horiz-adv-x="278" 
d="M247 -22q-68 -38 -56 -88q4 -17 15.5 -25.5t20.5 -8.5h9q32 1 32 20h10q0 -21 -2.5 -35t-17 -30t-41.5 -21q-26 -4 -47 0.5t-32.5 13t-19 18t-9.5 16.5l-2 7q-28 108 140 155v-22z" />
    <glyph glyph-name="tilde" unicode="&#x2dc;" horiz-adv-x="478" 
d="M283 529l-119 47q-24 9 -56.5 16.5t-72.5 4t-52 -27.5l-4 1q23 54 54 88t58.5 44t51.5 12t38 -2l14 -5l119 -46q22 -10 56 -17.5t73.5 -4t52.5 28.5l4 -1q-24 -52 -55 -85t-58.5 -43.5t-51.5 -13.5t-38 1z" />
    <glyph glyph-name="hungarumlaut" unicode="&#x2dd;" horiz-adv-x="791" 
d="M87 558l224 163l162 -50l-304 -113h-82zM376 558l224 163l162 -50l-304 -113h-82z" />
    <glyph glyph-name="uni03A9" unicode="&#x3a9;" horiz-adv-x="768" 
d="M729 195h8l-41 -195h-269q58 250 58 445q0 117 -11 178t-32 82.5t-60 21.5t-60 -21.5t-31.5 -82.5t-10.5 -178q0 -87 14.5 -198t29.5 -179l14 -68h-269l-41 195h8q15 -28 43 -42t55 -14h158q-2 17 -39 33q-71 28 -130 102t-59 176q0 140 87.5 213t230.5 73t231 -73
t88 -213q0 -102 -58.5 -176t-129.5 -102q-16 -7 -26 -15.5t-11 -12.5l-2 -5h157q27 0 55 14t43 42z" />
    <glyph glyph-name="uni03BC" unicode="&#x3bc;" horiz-adv-x="618" 
d="M546 89q0 -36 10 -48t42 -15v-9l-193 -25q-12 -2 -19 2.5t-8 10.5l-1 6v89q-11 -56 -53.5 -82.5t-77.5 -26.5v-157q0 -36 10 -48.5t42 -15.5v-8l-202 -26q-13 -2 -20 2.5t-8 10.5l-1 6v608v12q0 41 -6.5 52.5t-40.5 15.5v8l226 20v-323q0 -45 15.5 -64t58.5 -19
q21 0 36.5 18t20.5 47v233v12q0 41 -6.5 52.5t-40.5 15.5v8l216 20v-382z" />
    <glyph glyph-name="pi" unicode="&#x3c0;" horiz-adv-x="610" 
d="M550 65l6 -5q-9 -25 -35.5 -47t-66.5 -22q-31 0 -53.5 10t-32 24.5t-15 29.5t-5.5 25v10v260h-87l-11 -175q-2 -43 -20 -81t-41.5 -60.5t-51.5 -40t-44.5 -24.5t-24.5 -10h-1l-5 7q80 61 88 215l11 168h-16.5t-16.5 -0.5t-14.5 -1t-15.5 -1.5t-14 -3t-14.5 -4.5
t-12.5 -6.5t-13.5 -9t-12.5 -12t-14 -15l-9 4q1 7 2.5 19.5t12.5 43.5t27.5 54.5t49 43t75.5 19.5h282q62 0 91 9t33 39h9q0 -33 -1 -52t-6.5 -46.5t-15.5 -42.5t-30.5 -26t-49.5 -11v-235q0 -30 9.5 -46.5t18.5 -18.5l9 -1q8 0 14.5 4t9.5 8z" />
    <glyph glyph-name="uni2010" unicode="&#x2010;" horiz-adv-x="447" 
d="M379 188h-315v133h315v-133z" />
    <glyph glyph-name="endash" unicode="&#x2013;" horiz-adv-x="561" 
d="M0 306h561v-108h-561v108z" />
    <glyph glyph-name="emdash" unicode="&#x2014;" horiz-adv-x="1055" 
d="M0 306h1055v-108h-1055v108z" />
    <glyph glyph-name="quoteleft" unicode="&#x2018;" horiz-adv-x="294" 
d="M81 434q-22 22 -27 53.5t4.5 63.5t22.5 57.5t28 47.5q26 41 94 80l7 -10q-25 -20 -42 -48.5t-18 -45t6 -21.5q43 -3 70 -29q31 -31 31 -74t-30 -74q-31 -30 -73.5 -30t-72.5 30z" />
    <glyph glyph-name="quoteright" unicode="&#x2019;" horiz-adv-x="308" 
d="M233 705q22 -22 27 -53.5t-4.5 -63.5t-22.5 -57.5t-28 -47.5q-26 -41 -94 -80l-7 10q25 20 42 48.5t18 45t-6 21.5q-43 3 -70 29q-31 31 -31 74t30 74q31 30 73.5 30t72.5 -30z" />
    <glyph glyph-name="quotesinglbase" unicode="&#x201a;" horiz-adv-x="316" 
d="M231 170q22 -22 27 -53.5t-4.5 -63.5t-22.5 -57.5t-28 -47.5q-26 -41 -94 -80l-7 10q25 20 42 48.5t18 45t-6 21.5q-43 3 -70 29q-31 31 -31 74t30 74q31 30 73.5 30t72.5 -30z" />
    <glyph glyph-name="quotedblleft" unicode="&#x201c;" horiz-adv-x="595" 
d="M81 434q-22 22 -27 53.5t4.5 63.5t22.5 57.5t28 47.5q26 41 94 80l7 -10q-25 -20 -42 -48.5t-18 -45t6 -21.5q43 -3 70 -29q31 -31 31 -74t-30 -74q-31 -30 -73.5 -30t-72.5 30zM358 434q-22 22 -27 53.5t4.5 63.5t22.5 57.5t28 47.5q26 41 94 80l7 -10
q-25 -20 -42 -48.5t-18 -45t6 -21.5q43 -3 70 -29q31 -31 31 -74t-30 -74q-31 -30 -73.5 -30t-72.5 30z" />
    <glyph glyph-name="quotedblright" unicode="&#x201d;" horiz-adv-x="594" 
d="M509 705q22 -22 27 -53.5t-4.5 -63.5t-22.5 -57.5t-28 -47.5q-26 -41 -94 -80l-7 10q25 20 42 48.5t18 45t-6 21.5q-43 3 -70 29q-31 31 -31 74t30 74q31 30 73.5 30t72.5 -30zM232 705q22 -22 27 -53.5t-4.5 -63.5t-22.5 -57.5t-28 -47.5q-26 -41 -94 -80l-7 10
q25 20 42 48.5t18 45t-6 21.5q-43 3 -70 29q-31 31 -31 74t30 74q31 30 73.5 30t72.5 -30z" />
    <glyph glyph-name="quotedblbase" unicode="&#x201e;" horiz-adv-x="584" 
d="M506 169q22 -22 27 -53.5t-4.5 -63.5t-22.5 -57.5t-28 -47.5q-26 -41 -94 -80l-7 10q25 20 42 48.5t18 45t-6 21.5q-43 3 -70 29q-31 31 -31 74t30 74q31 30 73.5 30t72.5 -30zM229 169q22 -22 27 -53.5t-4.5 -63.5t-22.5 -57.5t-28 -47.5q-26 -41 -94 -80l-7 10
q25 20 42 48.5t18 45t-6 21.5q-43 3 -70 29q-31 31 -31 74t30 74q31 30 73.5 30t72.5 -30z" />
    <glyph glyph-name="dagger" unicode="&#x2020;" horiz-adv-x="467" 
d="M30 471q14 14 35 15t39 -6.5t34 -18.5q24 -16 45 -51l-6 -4q-11 14 -27.5 23.5t-25.5 10t-12 -2.5q-2 -20 -14 -32q-13 -15 -33 -15t-35 14q-14 14 -14 33.5t14 33.5zM436 471q14 -13 14 -33t-14 -34t-34 -14t-34 15q-12 12 -14 32q-3 3 -12 2.5t-26 -10t-28 -23.5l-7 4
q20 34 48 51q16 11 34 18.5t38.5 6.5t34.5 -15zM289 701q0 -23 -16.5 -39.5t-39.5 -16.5t-39.5 16.5t-16.5 39.5t16.5 39t39.5 16t39.5 -16.5t16.5 -38.5zM239 403q0 -30 9.5 -47t52.5 -69q-22 -114 -38 -252t-21 -219l-5 -81h-9q-13 297 -63 552q44 52 53 68.5t9 47.5
q0 27 -18 69t-18 68v7.5t2 15.5t6 20t12.5 16t21.5 7q20 0 30.5 -16.5t10.5 -33.5l1 -16q0 -26 -18 -67.5t-18 -69.5z" />
    <glyph glyph-name="daggerdbl" unicode="&#x2021;" horiz-adv-x="591" 
d="M129 387q-17 -17 -41.5 -17t-42.5 17q-17 17 -17 41.5t17 41.5q16 17 42 17.5t48 -8t42 -22.5q30 -20 55 -62l-7 -5q-14 17 -33.5 28.5t-31 12t-14.5 -3.5q-2 -25 -17 -40zM443 427q-3 4 -15 3.5t-32.5 -12t-34.5 -28.5l-5 5q23 41 55 62q19 14 41 22.5t48 8t43 -17.5
t17 -41.5t-17 -41.5q-18 -17 -42.5 -17t-41.5 17q-16 16 -16 40zM294 616q-29 0 -49 20t-20 48t20.5 48.5t48.5 20.5t48 -20.5t20 -48.5t-20 -48t-48 -20zM368 246q-30 -21 -46.5 -46.5t-18.5 -41.5l-2 -15q0 -33 21 -71t21 -70v-8t-2 -18t-6.5 -23t-15 -18t-25.5 -8
q-24 0 -36.5 18.5t-13.5 37.5v19q0 32 21 69t21 72q0 2 -0.5 6t-4 16.5t-10 24t-20.5 27.5t-33 29q30 18 47 44t19 43l2 17q0 32 -21 70t-21 71v8t2.5 18t7 23t15 18t25.5 8q24 0 36 -19t12 -37l1 -19q0 -33 -21 -70t-21 -71q0 -3 0.5 -7.5t4 -17.5t10 -25t20 -27.5
t32.5 -26.5zM543 111q17 -17 17 -41.5t-17 -41.5t-43 -17.5t-47.5 8t-41.5 21.5q-37 29 -55 64l5 4q14 -17 34.5 -28.5t32.5 -12t15 2.5q0 24 16 41q17 18 41.5 18t42.5 -18zM146 70q3 -3 14 -2.5t31 12t34 28.5l7 -4q-20 -36 -55 -64q-20 -13 -42 -21.5t-48 -8t-42 17.5
q-17 17 -17 41.5t17 41.5q17 18 42 18t42 -18q15 -17 17 -41zM294 -121q28 0 48 -20t20 -48q0 -29 -20 -49t-48 -20q-29 0 -49 20t-20 49q0 28 20.5 48t48.5 20z" />
    <glyph glyph-name="bullet" unicode="&#x2022;" horiz-adv-x="523" 
d="M268 196q-59 0 -101.5 42t-42.5 102t42 102.5t102 42.5q61 0 103.5 -42t42.5 -103q0 -60 -42.5 -102t-103.5 -42z" />
    <glyph glyph-name="ellipsis" unicode="&#x2026;" horiz-adv-x="984" 
d="M292 94q0 -43 -30 -73t-72 -30q-44 0 -74 30t-30 73t30.5 73.5t73.5 30.5q42 0 72 -30.5t30 -73.5zM580 94q0 -43 -30 -73t-72 -30q-44 0 -74 30t-30 73t30.5 73.5t73.5 30.5q42 0 72 -30.5t30 -73.5zM889 94q0 -43 -30 -73t-72 -30q-44 0 -74 30t-30 73t30.5 73.5
t73.5 30.5q42 0 72 -30.5t30 -73.5z" />
    <glyph glyph-name="perthousand" unicode="&#x2030;" horiz-adv-x="1294" 
d="M187 679q82 0 125.5 -52t43.5 -131q0 -78 -43 -127t-126 -49t-126.5 49t-43.5 127q0 79 43.5 131t126.5 52zM187 329q34 0 42 30t8 137t-8.5 140.5t-41.5 33.5q-34 0 -42.5 -33t-8.5 -141q0 -105 8.5 -136t42.5 -31zM686 384q82 0 126 -51.5t44 -130.5q0 -78 -43.5 -127
t-126.5 -49t-126.5 49t-43.5 127q0 79 43.5 130.5t126.5 51.5zM686 35q35 0 42.5 29.5t7.5 137.5q0 106 -8.5 139.5t-41.5 33.5q-34 0 -42.5 -33t-8.5 -140q0 -106 8.5 -136.5t42.5 -30.5zM667 704h100l-551 -704h-99zM1074 384q82 0 126 -51.5t44 -130.5q0 -78 -43.5 -127
t-126.5 -49t-126.5 49t-43.5 127q0 79 43.5 130.5t126.5 51.5zM1074 35q35 0 42.5 29.5t7.5 137.5q0 106 -8.5 139.5t-41.5 33.5q-34 0 -42.5 -33t-8.5 -140q0 -106 8.5 -136.5t42.5 -30.5z" />
    <glyph glyph-name="guilsinglleft" unicode="&#x2039;" horiz-adv-x="385" 
d="M335 505v-49l-118 -190l118 -184v-49l-286 233z" />
    <glyph glyph-name="guilsinglright" unicode="&#x203a;" horiz-adv-x="385" 
d="M49 456v49l286 -239l-286 -233v49l118 184z" />
    <glyph glyph-name="fraction" unicode="&#x2044;" horiz-adv-x="395" 
d="M458 734h95l-605 -734h-94z" />
    <glyph glyph-name="Euro" unicode="&#x20ac;" horiz-adv-x="665" 
d="M609 190h8l10 -152q-21 -14 -34.5 -21.5t-52 -16.5t-87.5 -9q-147 0 -232.5 80.5t-99.5 226.5h-107l4 9h103q-2 15 -2 45q0 31 2 46h-107l4 9h103q14 146 100 226t232 80q21 0 39 -1t32.5 -3t25.5 -3.5t21 -5.5t16 -6t13 -7t10 -6.5t9.5 -7t7.5 -6.5l-10 -152h-8
q-9 65 -24.5 105t-38.5 57.5t-42 22t-51 4.5q-74 0 -93 -57t-20 -240h187l-5 -9h-182v-46v-45h171l-5 -9h-166q1 -182 20.5 -240t92.5 -58q28 0 47.5 6t42 24t39 58t27.5 102z" />
    <glyph glyph-name="afii61289" unicode="&#x2113;" horiz-adv-x="386" 
d="M355 100l9 -6q2 -47 -35 -75t-85 -28q-78 0 -118.5 41t-40.5 157v36l-63 -48v72l63 47v205q0 68 17.5 119.5t44.5 77t58.5 36t61 3t50.5 -29.5q30 -35 40.5 -92.5t-9 -130t-70.5 -131.5l-40 -47l-2 -123q0 -77 15 -106t55 -29q18 0 33.5 12t15.5 40zM239 503v-112l26 25
q39 38 59 79.5t22.5 71t-5.5 62t-14 44.5t-15 26q-8 13 -23 15q-50 3 -50 -211z" />
    <glyph glyph-name="trademark" unicode="&#x2122;" horiz-adv-x="755" 
d="M12 704h293v-86h-9q-2 40 -32 58.5t-54 18.5h-10v-227q0 -24 3 -33t15 -9v-9h-120v9q12 0 15 9t3 33v227h-10q-25 0 -54 -18.5t-31 -58.5h-9v86zM559 517l71 187h100v-9q-8 0 -11.5 -1t-5.5 -6t-2 -8.5v-16.5v-208q0 -20 3.5 -24.5t19.5 -4.5v-9h-125v9q15 0 18 4t3 25
v221l-97 -262h-12l-130 243v-132q0 -99 60 -99v-9h-127v9q58 0 58 99v144q-14 26 -37 26v9h116z" />
    <glyph glyph-name="Omega" unicode="&#x2126;" horiz-adv-x="768" 
d="M729 195h8l-41 -195h-269q58 250 58 445q0 117 -11 178t-32 82.5t-60 21.5t-60 -21.5t-31.5 -82.5t-10.5 -178q0 -87 14.5 -198t29.5 -179l14 -68h-269l-41 195h8q15 -28 43 -42t55 -14h158q-2 17 -39 33q-71 28 -130 102t-59 176q0 140 87.5 213t230.5 73t231 -73
t88 -213q0 -102 -58.5 -176t-129.5 -102q-16 -7 -26 -15.5t-11 -12.5l-2 -5h157q27 0 55 14t43 42z" />
    <glyph glyph-name="estimated" unicode="&#x212e;" horiz-adv-x="892" 
d="M663 655q-100 59 -219 59q-117 0 -215 -57v-273h434v271zM857 367h-628v-291q98 -57 215 -57q87 0 164 32t132 88h28q-58 -65 -143 -102.5t-181 -37.5q-171 0 -292 108t-121 260t121 259.5t292 107.5t292 -107.5t121 -259.5z" />
    <glyph glyph-name="partialdiff" unicode="&#x2202;" horiz-adv-x="621" 
d="M283 744q143 0 227 -114t69 -303q-13 -160 -87.5 -248t-208.5 -88q-119 0 -185 62t-57 179q8 98 61 161.5t159 63.5q42 0 82.5 -22.5t53.5 -70.5q13 141 0.5 223.5t-40 115t-74.5 32.5q-48 0 -99 -56.5t-50 -110.5l-5 -1l-61 100q66 77 215 77zM283 0q49 0 72 78t40 266
q-17 39 -34 54t-40 15q-82 0 -100 -207q-10 -125 1 -165.5t61 -40.5z" />
    <glyph glyph-name="Delta" unicode="&#x2206;" horiz-adv-x="720" 
d="M393 738l285 -706l-15 -32h-625l-6 26l1 2l278 692zM85 44h409l-205 483z" />
    <glyph glyph-name="product" unicode="&#x220f;" horiz-adv-x="860" 
d="M829 695q-76 0 -76 -99v-555q0 -117 76 -117v-9h-355v9q76 0 76 117v522q0 78 -18 105t-58 27h-94q-39 0 -57 -27t-18 -105v-522q0 -57 19.5 -87t55.5 -30v-9h-354v9q75 0 75 117v555q0 99 -75 99v9h803v-9z" />
    <glyph glyph-name="summation" unicode="&#x2211;" horiz-adv-x="723" 
d="M262 695l204 -355l-252 -428q90 0 167.5 20t127.5 49.5t89 66.5t58 66t28 54h11l-27 -266h-587l193 338l-253 464h635l22 -231h-13q-30 87 -151.5 154.5t-251.5 67.5z" />
    <glyph glyph-name="minus" unicode="&#x2212;" horiz-adv-x="626" 
d="M581 188h-533v133h533v-133z" />
    <glyph glyph-name="uni2215" unicode="&#x2215;" horiz-adv-x="405" 
d="M458 734h95l-605 -734h-94z" />
    <glyph glyph-name="uni2219" unicode="&#x2219;" horiz-adv-x="295" 
d="M223 298q0 -30 -21 -51t-52 -21q-30 0 -51 21t-21 51t21 51.5t51 21.5q31 0 52 -21.5t21 -51.5z" />
    <glyph glyph-name="radical" unicode="&#x221a;" horiz-adv-x="649" 
d="M437 78l137 789l54 -15l-175 -1002l-112 -36l-188 427q-17 41 -46.5 65t-57.5 14l-3 7l244 92z" />
    <glyph glyph-name="infinity" unicode="&#x221e;" horiz-adv-x="858" 
d="M746 419q57 -57 57 -138t-57 -137v-1q-57 -57 -138 -57q-82 0 -137 57l-44 44l-44 -44q-57 -57 -138 -57q-82 0 -137 57q-57 57 -57 137.5t56 137.5l1 1q57 57 137 57q79 0 138 -57l44 -44l44 44q57 57 137 57q79 0 138 -57zM202 325q-19 -18 -19 -44t19 -44
q17 -18 43 -18t44 18l44 44l-44 44q-20 18 -44 18q-25 0 -43 -18zM564 325l-43 -44l44 -44q17 -18 43 -18t44 18t18 44t-18 44q-20 18 -44 18t-44 -18z" />
    <glyph glyph-name="integral" unicode="&#x222b;" horiz-adv-x="432" 
d="M394 793q11 -13 14 -33t-4 -36q-9 -24 -33 -34t-47 0q-24 8 -34 31.5t-1 47.5q12 28 32 33q9 4 -1 11q-9 5 -26 5q-7 0 -17.5 -5.5t-24 -57.5t-5.5 -145l60 -441q13 -93 6 -159t-20.5 -108.5t-41 -67.5t-56.5 -34.5t-65 -9.5q-68 0 -95 35q-10 14 -13 33.5t3 35.5
q9 25 32.5 35t46.5 0q25 -9 35.5 -32.5t0.5 -46.5q-10 -27 -32 -34q-8 -3 -2 -12q7 -8 25 -8q7 0 18 5t24 57.5t4 146.5l-60 440q-12 110 -5 183t36.5 117t65 62t80.5 18q74 0 100 -32z" />
    <glyph glyph-name="approxequal" unicode="&#x2248;" horiz-adv-x="581" 
d="M334 284l-119 47q-24 9 -56.5 16.5t-72.5 4t-52 -27.5l-4 1q23 54 54 88t58.5 44t51.5 12t38 -3l14 -4l119 -46q22 -10 56 -17.5t73.5 -4t52.5 28.5l4 -1q-24 -52 -55 -85t-58.5 -43.5t-51.5 -13.5t-38 0zM334 96l-119 47q-24 9 -56.5 16.5t-72.5 4t-52 -27.5l-4 1
q23 54 54 88t58.5 44t51.5 12t38 -3l14 -4l119 -46q22 -10 56 -17.5t73.5 -4t52.5 28.5l4 -1q-24 -52 -55 -85t-58.5 -43.5t-51.5 -13.5t-38 0z" />
    <glyph glyph-name="notequal" unicode="&#x2260;" horiz-adv-x="542" 
d="M500 334h-150l-47 -102h197v-88h-237l-56 -122l-82 38l38 84h-117v88h158l46 102h-204v88h245l59 129l82 -38l-42 -91h110v-88z" />
    <glyph glyph-name="lessequal" unicode="&#x2264;" horiz-adv-x="611" 
d="M49 87h516v-107h-516v107zM262 385l303 -149v-133l-507 260v43l507 260v-134z" />
    <glyph glyph-name="greaterequal" unicode="&#x2265;" horiz-adv-x="612" 
d="M51 87h516v-107h-516v107zM51 236l303 149l-303 147v134l507 -260v-43l-507 -260v133z" />
    <glyph glyph-name="lozenge" unicode="&#x25ca;" horiz-adv-x="559" 
d="M301 733l208 -406l-208 -406h-45l-208 406l208 406h45zM393 327l-115 234l-115 -234l115 -234z" />
    <glyph glyph-name="zero.taboldstyle" unicode="&#xf643;" horiz-adv-x="648" 
d="M330 471q275 0 275 -235q0 -48 -12.5 -88.5t-41 -77.5t-85 -58t-135.5 -21t-135 21t-85.5 58t-42 77.5t-12.5 88.5q0 235 274 235zM331 0q61 0 61 236q0 63 -4.5 108t-10.5 67.5t-15.5 34.5t-16 14t-15.5 2q-8 0 -14 -2t-15.5 -14.5t-16 -34.5t-11 -67t-4.5 -108t4 -109
t10 -70t15.5 -37.5t16.5 -16.5t16 -3z" />
    <glyph glyph-name="one.taboldstyle" unicode="&#xf644;" horiz-adv-x="518" 
d="M179 90v253q0 35 -16 44t-59 9v9l255 66v-381q0 -53 12.5 -67t43.5 -14v-9h-305v9q36 0 52.5 15t16.5 66z" />
    <glyph glyph-name="two.taboldstyle" unicode="&#xf645;" horiz-adv-x="541" 
d="M459 189h8l-47 -189h-348l110 111q81 74 103.5 131.5t6.5 114.5q-13 49 -50 72.5t-79 5.5q-15 -8 -21 -17.5t-3.5 -15.5t6.5 -6q27 2 44 -17q18 -19 17.5 -46t-19.5 -45q-19 -19 -45.5 -18.5t-44.5 19.5q-28 30 -15 67q17 46 73 84q27 18 75 25.5t98.5 2.5t90.5 -34
t48 -79q7 -59 -23.5 -99t-71.5 -55.5t-89.5 -34t-65.5 -35.5h142q28 0 56.5 15t43.5 43z" />
    <glyph glyph-name="three.taboldstyle" unicode="&#xf646;" horiz-adv-x="607" 
d="M554 -39q0 -226 -295 -226q-126 0 -175 85q-12 18 -10 44t17 46q20 30 56 36t64 -15q30 -21 36 -56.5t-15 -64.5q-22 -30 -55 -34q-9 0 -1 -9q17 -23 82 -23q56 0 81 55t10 140q-5 31 -12.5 53t-23.5 49.5t-46.5 42.5t-73.5 15v9q47 8 75.5 36t34.5 60.5t-4 65t-34 49.5
q-33 25 -86 13.5t-57 -49.5l-10 -2q-23 70 28 130t156 60q56 0 100.5 -26.5t65 -68t23 -87.5t-26.5 -90t-83 -70q78 -3 128.5 -54.5t50.5 -113.5z" />
    <glyph glyph-name="four.taboldstyle" unicode="&#xf647;" horiz-adv-x="629" 
d="M579 -48h-84v-80q0 -30 0.5 -47t1 -33t3 -23.5t5 -13.5t8.5 -8t11 -2.5t16 -0.5v-9h-270v9q15 0 21.5 2t12.5 6.5t7.5 20t2.5 35.5t1 59v85l-258 -1v17l396 503l42 -9v-440h84v-70zM315 22v258l-160 -202q-39 -51 -22 -56q4 -1 13 -1z" />
    <glyph glyph-name="five.taboldstyle" unicode="&#xf648;" 
d="M129 194q208 35 321.5 -40.5t105.5 -203.5q-4 -75 -44.5 -124.5t-97.5 -70t-129 -20.5q-111 0 -175 51q-18 15 -26 40.5t-3 50.5q9 35 41 54.5t69 11.5q36 -8 55.5 -40t10.5 -68q-9 -39 -38 -55q-11 -6 -1 -18q15 -18 67 -18q65 0 100.5 55t15.5 123q-5 18 -15.5 35
t-33 38.5t-56 32.5t-85 18t-120.5 -4l79 420h371l-48 -167h-346z" />
    <glyph glyph-name="six.taboldstyle" unicode="&#xf649;" horiz-adv-x="623" 
d="M364 471q214 0 214 -240q0 -114 -70.5 -177t-187.5 -63q-134 0 -204.5 87t-70.5 240q0 185 83 290t231 105q39 0 70.5 -9t50 -23.5t26 -23t12.5 -16.5q11 -16 10.5 -39t-12.5 -41q-16 -28 -47.5 -35t-59.5 10q-28 16 -34.5 48t10.5 59q15 24 48 30q7 2 -6 13
q-24 18 -68 18q-38 0 -61 -27.5t-36.5 -100.5t-13.5 -198q7 42 42.5 67.5t73.5 25.5zM320 0q50 0 60.5 36t10.5 153v22q0 106 -14.5 162t-50.5 56q-62 0 -78 -83q0 -19 1 -56q2 -184 15 -233q16 -56 56 -57z" />
    <glyph glyph-name="seven.taboldstyle" unicode="&#xf64a;" horiz-adv-x="571" 
d="M99 462h451l-96 -165q-30 -62 -49 -131.5t-26 -148t-8.5 -125.5t-1.5 -126v-22h-192q9 153 64.5 272t202.5 281h-275q-28 0 -57 -15t-44 -43h-9z" />
    <glyph glyph-name="eight.taboldstyle" unicode="&#xf64b;" horiz-adv-x="582" 
d="M282 497l92 -47q33 24 33 115q0 71 -32.5 105t-79.5 34q-36 0 -60.5 -23.5t-29.5 -57.5q-5 -36 14 -70.5t63 -55.5zM326 244l-125 68q-18 -17 -23 -46.5t-5 -87.5q0 -178 124 -178q46 0 75.5 26t35.5 66q6 41 -14.5 82.5t-67.5 69.5zM297 -9q-131 0 -192 44.5t-61 134.5
q0 107 132 155q-120 83 -120 198q0 80 63.5 135t175.5 55q107 0 158 -40t51 -108q0 -31 -14.5 -54.5t-38 -37t-37.5 -19t-30 -9.5q86 -38 127 -101.5t41 -136.5q0 -216 -255 -216z" />
    <glyph glyph-name="nine.taboldstyle" unicode="&#xf64c;" horiz-adv-x="601" 
d="M251 -9q-213 0 -213 244q0 113 70.5 174.5t187.5 61.5q275 0 275 -326q0 -66 -5 -116.5t-17.5 -99t-35.5 -82.5t-57 -60t-84 -39t-115 -13q-39 0 -71 9.5t-50 23.5t-26.5 23.5t-11.5 16.5q-11 16 -10.5 40t12.5 43q17 28 49.5 35.5t61.5 -10.5q28 -17 35 -49.5t-11 -60.5
q-17 -25 -55 -31q-7 -2 7 -12q24 -19 70 -19q33 0 54 9.5t33 26t17 52t6 72.5t1 103v80q-6 -45 -42 -70.5t-75 -25.5zM296 462q-50 0 -60.5 -35t-10.5 -150v-22q0 -222 59 -222q66 0 84 82q-3 208 -9 251q-11 89 -55 95q-4 1 -8 1z" />
    <glyph glyph-name="dollar.taboldstyle" unicode="&#xf653;" horiz-adv-x="584" 
d="M290 0q39 0 64 22.5t30 55t-14.5 72.5t-62.5 72l-17 11v-233zM281 492v212q-53 0 -79.5 -33t-9.5 -82.5t79 -89.5zM425 397q99 -65 124 -153.5t-32 -170.5q-2 -3 -7 -8.5t-23.5 -20t-42 -25t-65 -19.5t-89.5 -9v-122h-9v122q-84 1 -149 13.5t-88 25.5l-23 12v192h9
q7 -29 25.5 -65t48.5 -74.5t77 -65.5t100 -29v238l-128 81q-106 67 -131 152.5t39 165.5q2 3 7 8t23.5 18.5t41 23.5t62.5 18t86 8v122h9v-122q73 -1 129.5 -12.5t76.5 -22.5l21 -11v-168h-9q-8 27 -16 49t-25.5 52.5t-39.5 51t-57.5 36t-79.5 16.5v-218z" />
    <glyph glyph-name="cent.taboldstyle" unicode="&#xf654;" horiz-adv-x="582" 
d="M338 94v368q-68 -19 -68 -216q0 -117 68 -152zM376 384q12 29 38 40q9 3 1 16q-17 22 -68 22v-372q38 -20 89.5 -7t64.5 50l7 -3q0 -47 -44 -89t-117 -50v-109h-9v109q-115 0 -189.5 63.5t-74.5 178.5q0 106 66 171t198 67v122h9v-122q99 0 153 -61q13 -13 17 -34.5
t-2 -41.5q-10 -29 -38 -42t-57 -2q-29 10 -42 37.5t-2 56.5z" />
    <glyph glyph-name="dollar.oldstyle" unicode="&#xf724;" horiz-adv-x="584" 
d="M290 0q39 0 64 22.5t30 55t-14.5 72.5t-62.5 72l-17 11v-233zM281 492v212q-53 0 -79.5 -33t-9.5 -82.5t79 -89.5zM425 397q99 -65 124 -153.5t-32 -170.5q-2 -3 -7 -8.5t-23.5 -20t-42 -25t-65 -19.5t-89.5 -9v-122h-9v122q-84 1 -149 13.5t-88 25.5l-23 12v192h9
q7 -29 25.5 -65t48.5 -74.5t77 -65.5t100 -29v238l-128 81q-106 67 -131 152.5t39 165.5q2 3 7 8t23.5 18.5t41 23.5t62.5 18t86 8v122h9v-122q73 -1 129.5 -12.5t76.5 -22.5l21 -11v-168h-9q-8 27 -16 49t-25.5 52.5t-39.5 51t-57.5 36t-79.5 16.5v-218z" />
    <glyph glyph-name="zero.oldstyle" unicode="&#xf730;" horiz-adv-x="648" 
d="M330 471q275 0 275 -235q0 -48 -12.5 -88.5t-41 -77.5t-85 -58t-135.5 -21t-135 21t-85.5 58t-42 77.5t-12.5 88.5q0 235 274 235zM331 0q61 0 61 236q0 63 -4.5 108t-10.5 67.5t-15.5 34.5t-16 14t-15.5 2q-8 0 -14 -2t-15.5 -14.5t-16 -34.5t-11 -67t-4.5 -108t4 -109
t10 -70t15.5 -37.5t16.5 -16.5t16 -3z" />
    <glyph glyph-name="one.oldstyle" unicode="&#xf731;" horiz-adv-x="518" 
d="M179 90v253q0 35 -16 44t-59 9v9l255 66v-381q0 -53 12.5 -67t43.5 -14v-9h-305v9q36 0 52.5 15t16.5 66z" />
    <glyph glyph-name="two.oldstyle" unicode="&#xf732;" horiz-adv-x="541" 
d="M459 189h8l-47 -189h-348l110 111q81 74 103.5 131.5t6.5 114.5q-13 49 -50 72.5t-79 5.5q-15 -8 -21 -17.5t-3.5 -15.5t6.5 -6q27 2 44 -17q18 -19 17.5 -46t-19.5 -45q-19 -19 -45.5 -18.5t-44.5 19.5q-28 30 -15 67q17 46 73 84q27 18 75 25.5t98.5 2.5t90.5 -34
t48 -79q7 -59 -23.5 -99t-71.5 -55.5t-89.5 -34t-65.5 -35.5h142q28 0 56.5 15t43.5 43z" />
    <glyph glyph-name="three.oldstyle" unicode="&#xf733;" horiz-adv-x="607" 
d="M554 -39q0 -226 -295 -226q-126 0 -175 85q-12 18 -10 44t17 46q20 30 56 36t64 -15q30 -21 36 -56.5t-15 -64.5q-22 -30 -55 -34q-9 0 -1 -9q17 -23 82 -23q56 0 81 55t10 140q-5 31 -12.5 53t-23.5 49.5t-46.5 42.5t-73.5 15v9q47 8 75.5 36t34.5 60.5t-4 65t-34 49.5
q-33 25 -86 13.5t-57 -49.5l-10 -2q-23 70 28 130t156 60q56 0 100.5 -26.5t65 -68t23 -87.5t-26.5 -90t-83 -70q78 -3 128.5 -54.5t50.5 -113.5z" />
    <glyph glyph-name="four.oldstyle" unicode="&#xf734;" horiz-adv-x="629" 
d="M579 -48h-84v-80q0 -30 0.5 -47t1 -33t3 -23.5t5 -13.5t8.5 -8t11 -2.5t16 -0.5v-9h-270v9q15 0 21.5 2t12.5 6.5t7.5 20t2.5 35.5t1 59v85l-258 -1v17l396 503l42 -9v-440h84v-70zM315 22v258l-160 -202q-39 -51 -22 -56q4 -1 13 -1z" />
    <glyph glyph-name="five.oldstyle" unicode="&#xf735;" 
d="M129 194q208 35 321.5 -40.5t105.5 -203.5q-4 -75 -44.5 -124.5t-97.5 -70t-129 -20.5q-111 0 -175 51q-18 15 -26 40.5t-3 50.5q9 35 41 54.5t69 11.5q36 -8 55.5 -40t10.5 -68q-9 -39 -38 -55q-11 -6 -1 -18q15 -18 67 -18q65 0 100.5 55t15.5 123q-5 18 -15.5 35
t-33 38.5t-56 32.5t-85 18t-120.5 -4l79 420h371l-48 -167h-346z" />
    <glyph glyph-name="six.oldstyle" unicode="&#xf736;" horiz-adv-x="623" 
d="M364 471q214 0 214 -240q0 -114 -70.5 -177t-187.5 -63q-134 0 -204.5 87t-70.5 240q0 185 83 290t231 105q39 0 70.5 -9t50 -23.5t26 -23t12.5 -16.5q11 -16 10.5 -39t-12.5 -41q-16 -28 -47.5 -35t-59.5 10q-28 16 -34.5 48t10.5 59q15 24 48 30q7 2 -6 13
q-24 18 -68 18q-38 0 -61 -27.5t-36.5 -100.5t-13.5 -198q7 42 42.5 67.5t73.5 25.5zM320 0q50 0 60.5 36t10.5 153v22q0 106 -14.5 162t-50.5 56q-62 0 -78 -83q0 -19 1 -56q2 -184 15 -233q16 -56 56 -57z" />
    <glyph glyph-name="seven.oldstyle" unicode="&#xf737;" horiz-adv-x="571" 
d="M99 462h451l-96 -165q-30 -62 -49 -131.5t-26 -148t-8.5 -125.5t-1.5 -126v-22h-192q9 153 64.5 272t202.5 281h-275q-28 0 -57 -15t-44 -43h-9z" />
    <glyph glyph-name="eight.oldstyle" unicode="&#xf738;" horiz-adv-x="582" 
d="M282 497l92 -47q33 24 33 115q0 71 -32.5 105t-79.5 34q-36 0 -60.5 -23.5t-29.5 -57.5q-5 -36 14 -70.5t63 -55.5zM326 244l-125 68q-18 -17 -23 -46.5t-5 -87.5q0 -178 124 -178q46 0 75.5 26t35.5 66q6 41 -14.5 82.5t-67.5 69.5zM297 -9q-131 0 -192 44.5t-61 134.5
q0 107 132 155q-120 83 -120 198q0 80 63.5 135t175.5 55q107 0 158 -40t51 -108q0 -31 -14.5 -54.5t-38 -37t-37.5 -19t-30 -9.5q86 -38 127 -101.5t41 -136.5q0 -216 -255 -216z" />
    <glyph glyph-name="nine.oldstyle" unicode="&#xf739;" horiz-adv-x="601" 
d="M251 -9q-213 0 -213 244q0 113 70.5 174.5t187.5 61.5q275 0 275 -326q0 -66 -5 -116.5t-17.5 -99t-35.5 -82.5t-57 -60t-84 -39t-115 -13q-39 0 -71 9.5t-50 23.5t-26.5 23.5t-11.5 16.5q-11 16 -10.5 40t12.5 43q17 28 49.5 35.5t61.5 -10.5q28 -17 35 -49.5t-11 -60.5
q-17 -25 -55 -31q-7 -2 7 -12q24 -19 70 -19q33 0 54 9.5t33 26t17 52t6 72.5t1 103v80q-6 -45 -42 -70.5t-75 -25.5zM296 462q-50 0 -60.5 -35t-10.5 -150v-22q0 -222 59 -222q66 0 84 82q-3 208 -9 251q-11 89 -55 95q-4 1 -8 1z" />
    <glyph glyph-name="cent.oldstyle" unicode="&#xf7a2;" horiz-adv-x="582" 
d="M338 94v368q-68 -19 -68 -216q0 -117 68 -152zM376 384q12 29 38 40q9 3 1 16q-17 22 -68 22v-372q38 -20 89.5 -7t64.5 50l7 -3q0 -47 -44 -89t-117 -50v-109h-9v109q-115 0 -189.5 63.5t-74.5 178.5q0 106 66 171t198 67v122h9v-122q99 0 153 -61q13 -13 17 -34.5
t-2 -41.5q-10 -29 -38 -42t-57 -2q-29 10 -42 37.5t-2 56.5z" />
    <glyph glyph-name="fi" unicode="&#xfb01;" horiz-adv-x="645" 
d="M608 8v-8h-250v8q26 7 32.5 32t6.5 73v260q0 21 -0.5 28.5t-3 23t-11 22t-21.5 6.5h-108v-340q0 -47 8 -72.5t33 -32.5v-8h-250v8q26 7 32.5 32t6.5 73v340h-65v9h65q0 80 22 138t61 88t83 43.5t96 13.5q60 0 121.5 -20t82.5 -58q25 -47 -5 -98q-20 -29 -54.5 -36
t-63.5 12q-30 20 -37 54t13 64q16 28 50 36q17 4 -6 16q-39 21 -102 21q-30 0 -49 -18t-28 -58.5t-11.5 -83.5t-2.5 -114h108q64 0 115.5 7.5t71.5 14.5l19 8v-379q0 -48 8 -73.5t33 -31.5z" />
    <glyph glyph-name="fl" unicode="&#xfb02;" horiz-adv-x="621" 
d="M606 8v-8h-250v8q26 7 32.5 32t6.5 73v519q0 30 -6.5 46t-28.5 26q-70 19 -93.5 -37.5t-23.5 -204.5h107v-9h-107v-340q0 -47 8 -72.5t33 -32.5v-8h-250v8q26 7 32.5 32t6.5 73v340h-65v9h65v80q0 62 19 105.5t49 63t55 27t48 7.5q75 4 116 -32l205 33v-633
q0 -48 8 -73.5t33 -31.5z" />
    <glyph glyph-name="NULL" horiz-adv-x="0" 
 />
    <glyph glyph-name="CR" horiz-adv-x="278" 
 />
    <glyph glyph-name="two.superior" horiz-adv-x="280" 
d="M227 476h9l-27 -97h-181l91 122q57 84 19 121q-23 24 -58 12q-35 -11 -32 -45q0 -3 1 -6l-8 -4q-22 43 5 84t85 41q34 0 60.5 -25t26.5 -56q0 -24 -15 -50t-32.5 -43.5t-39.5 -37t-28 -27.5l-11 -15h94q27 0 41 26z" />
    <glyph glyph-name="one.superior" horiz-adv-x="232" 
d="M162 425q0 -20 3 -28t14 -8v-9h-119v9q13 0 17 8.5t4 27.5v193q0 10 -4 14t-10 2.5t-12 -4t-10 -5.5l-4 -3l-7 8l86 74h42v-279z" />
    <glyph glyph-name="a.superior" horiz-adv-x="328" 
d="M155 510v72q-20 -4 -30 -15.5t-11.5 -21t-1.5 -26.5q0 -32 21 -32q12 0 22 23zM280 495l8 -3q-5 -18 -24.5 -28.5t-44.5 -10.5h-6t-14 2.5t-18 6.5t-15 12.5t-9 19.5q-13 -41 -72 -41q-23 0 -44.5 12t-21.5 42q0 36 27.5 50.5t108.5 33.5v34q0 41 -19 59t-47 4
q-12 -7 5 -12q13 -3 19 -19q6 -15 0 -29t-20 -20q-15 -5 -29 1t-20 20q-8 20 6 39q11 15 32 26q9 5 22 7.5t22 2.5l9 1q51 0 79 -28.5t28 -76.5v-78q0 -4 0.5 -10.5t7 -16.5t18.5 -10q9 1 12 10z" />
    <glyph glyph-name="three.superior" horiz-adv-x="289" 
d="M249 477q0 -101 -134 -101q-57 0 -79 39q-11 21 3 40q9 13 25.5 16t29.5 -6q13 -10 16 -25.5t-7 -28.5q-8 -14 -25 -17q-6 0 0 -6q12 -8 37 -8t36.5 24.5t4.5 63.5q-3 20 -8 33t-21 26t-42 13v4q28 5 41 24t10 39.5t-18 30.5q-15 11 -38.5 6.5t-26.5 -23.5l-4 -1
q-9 29 13.5 56.5t69.5 27.5q42 0 66.5 -28.5t17 -65.5t-48.5 -57q36 -1 59 -24t23 -52z" />
    <glyph glyph-name="o.superior" horiz-adv-x="344" 
d="M156 704q64 0 96 -33.5t32 -93.5q0 -59 -32 -92t-96 -33t-96 33t-32 92q0 60 32 93.5t96 33.5zM156 461q15 0 23 4.5t11.5 20t4 29t0.5 46.5v16q0 86 -9 102t-30 16q-15 0 -23 -5t-11.5 -21t-4 -31t-0.5 -50v-11q0 -84 9 -101q8 -15 30 -15z" />
    </font>
</defs>
</svg>
